<svg id="Layer_2" data-name="Layer 2" xmlns="http://www.w3.org/2000/svg" viewBox="0 0 100 100"><defs><style>.cls-1{fill:#40403b;}.cls-2{fill:#b29656;}.cls-3{fill:#515150;}</style></defs><path class="cls-1" d="M89.42,49.13H79.36v2.79h9.79V75.51c0,3.46-3.61,6.77-7.07,6.77H82c-3.46,0-6.27-3.31-6.27-6.77V18.77A2.7,2.7,0,0,0,73,16.07H25.74a2.7,2.7,0,0,0-2.7,2.7V49.9A14.36,14.36,0,0,1,26,49.36V18.89H73V75.51a12.48,12.48,0,0,0,1.19,4.8l2.15,2.32H25a13.49,13.49,0,0,0-.08,2.94h57.2a10.07,10.07,0,0,0,10-10.06V51.84A2.71,2.71,0,0,0,89.42,49.13Z"/><rect class="cls-1" x="35.82" y="29.43" width="27.12" height="3.04"/><rect class="cls-1" x="35.82" y="42.32" width="27.12" height="3.04"/><rect class="cls-1" x="49.77" y="55.2" width="13.17" height="3.04"/><rect class="cls-1" x="52.75" y="68.09" width="10.2" height="3.04"/><ellipse class="cls-2" cx="24.47" cy="63.97" rx="0.98" ry="1.23"/><path class="cls-2" d="M45.77,62.71V56.24H39.25v3.69H37.5V56.24H15.27v6.47c1.53,0,2.78,1.65,2.78,3.69s-1.25,3.7-2.78,3.7v6.47H37.5v-3.7h1.75v3.7h6.52V70.1c-1.54,0-2.78-1.66-2.78-3.7S44.23,62.71,45.77,62.71ZM21.88,64a2.72,2.72,0,0,1,2.59-2.84,2.85,2.85,0,0,1,0,5.68A2.73,2.73,0,0,1,21.88,64Zm3.35,7.93a.8.8,0,0,1-.77-.58.8.8,0,0,1,.07-.61l5.09-9.17a.81.81,0,0,1,.49-.38.78.78,0,0,1,.6.07.82.82,0,0,1,.38.48.77.77,0,0,1-.07.61l-5.09,9.16A.8.8,0,0,1,25.23,71.9Zm5.86,0a2.85,2.85,0,1,1,2.58-2.84A2.73,2.73,0,0,1,31.09,71.9ZM39.25,71H37.5V67.33h1.75Zm0-5.54H37.5v-3.7h1.75Z"/><ellipse class="cls-2" cx="31.09" cy="69.06" rx="0.98" ry="1.23"/><rect class="cls-2" x="36.17" y="78.17" width="2.02"/><path class="cls-3" d="M48.8,80.94H8.9a1.23,1.23,0,0,1-1.23-1.23V71.25A1.23,1.23,0,0,1,8.9,70c1.3,0,2.4-1.65,2.4-3.61s-1.1-3.6-2.4-3.6a1.23,1.23,0,0,1-1.23-1.23V53.11A1.23,1.23,0,0,1,8.9,51.88H48.8A1.23,1.23,0,0,1,50,53.11v8.47a1.23,1.23,0,0,1-1.23,1.23c-1.3,0-2.4,1.65-2.4,3.6S47.5,70,48.8,70A1.23,1.23,0,0,1,50,71.25v8.46A1.23,1.23,0,0,1,48.8,80.94ZM10.13,78.48H47.57v-6.2c-2.09-.68-3.63-3-3.63-5.87s1.54-5.18,3.63-5.87V54.35H10.13v6.19c2.09.69,3.63,3.06,3.63,5.87s-1.54,5.19-3.63,5.87Z"/></svg>