<?xml version="1.0" encoding="utf-8"?>
<!-- Generator: Adobe Illustrator 24.1.0, SVG Export Plug-In . SVG Version: 6.00 Build 0)  -->
<svg version="1.1" id="Layer_1" xmlns="http://www.w3.org/2000/svg" xmlns:xlink="http://www.w3.org/1999/xlink" x="0px" y="0px"
	 viewBox="0 0 100 100" style="enable-background:new 0 0 100 100;" xml:space="preserve">
<style type="text/css">
	.st0{fill:none;}
	.st1{fill:#AE955E;}
	.st2{fill:#010101;}
</style>
<g>
	<path class="st0" d="M31.65,44.98v26.47c0,1.39,1.13,2.52,2.52,2.52h4.2c-1.22,0-2.21-0.99-2.21-2.21V48.55
		c0-1.44,1.17-2.6,2.61-2.6h26.96c1.44,0,2.61,1.17,2.61,2.6v-3.57c0-1.64-1.33-2.97-2.97-2.97H34.62
		C32.98,42.01,31.65,43.34,31.65,44.98z"/>
	<path class="st1" d="M65.73,45.94H38.77c-1.44,0-2.61,1.17-2.61,2.6v23.22c0,1.22,0.99,2.21,2.21,2.21h27.44
		c1.39,0,2.52-1.13,2.52-2.52V48.55C68.34,47.11,67.17,45.94,65.73,45.94z M51.54,58.24v6.32h-3.08v-6.32
		c-1.25-0.58-2.12-1.85-2.12-3.32c0-2.02,1.64-3.66,3.66-3.66s3.66,1.64,3.66,3.66C53.66,56.39,52.79,57.66,51.54,58.24z"/>
	<path class="st2" d="M5.77,34.89c4.6-2.15,9.21-4.3,13.81-6.45c2.63-1.23,0.33-5.12-2.29-3.89c-2.53,1.18-5.05,2.36-7.58,3.54
		C16.36,16.15,27.94,7.68,41.55,5.15C55.9,2.47,70.91,7.34,81.3,17.46c8.69,8.47,13.52,20.25,13.58,32.35
		c0.01,2.91,4.53,2.94,4.52,0.03c-0.07-14.64-6.53-28.67-17.72-38.13C70.14,1.95,54.72-1.89,39.92,0.87
		C25.64,3.53,13.09,12.89,6.01,25.45c-0.3-2.54-0.59-5.09-0.89-7.63c-0.14-1.22-0.9-2.26-2.24-2.27c-1.11-0.01-2.42,1.02-2.27,2.24
		c0.59,5.05,1.17,10.09,1.76,15.14C2.57,34.71,4.1,35.67,5.77,34.89z"/>
	<path class="st2" d="M94.23,65.11c-4.6,2.15-9.21,4.3-13.81,6.45c-2.63,1.23-0.33,5.12,2.29,3.89c2.53-1.18,5.05-2.36,7.58-3.54
		c-6.65,11.94-18.23,20.41-31.83,22.94C44.1,97.53,29.09,92.66,18.7,82.54C10.01,74.08,5.18,62.29,5.12,50.19
		c-0.01-2.91-4.53-2.94-4.52-0.03C0.68,64.8,7.13,78.83,18.32,88.3c11.53,9.75,26.96,13.59,41.76,10.83
		c14.28-2.66,26.83-12.01,33.91-24.58c0.3,2.54,0.59,5.09,0.89,7.63c0.14,1.22,0.9,2.26,2.24,2.27c1.11,0.01,2.42-1.02,2.27-2.24
		c-0.59-5.05-1.17-10.09-1.76-15.14C97.43,65.29,95.9,64.33,94.23,65.11z"/>
	<path class="st2" d="M49.99,19.69c5.73,0,10.42,4.53,10.68,10.2c0.01,0.13,0.01,4.34,0.01,6.3h4.16c0-1.96,0-6.18-0.01-6.3
		c-0.26-7.96-6.82-14.36-14.84-14.36s-14.59,6.4-14.84,14.36c0,0.12-0.01,4.18-0.01,6.3h4.16c0-2.12,0-6.18,0.01-6.3
		C39.57,24.22,44.27,19.69,49.99,19.69z"/>
	<path class="st2" d="M28.05,44.98v26.47c0,3.38,2.75,6.12,6.12,6.12h31.65c3.38,0,6.12-2.75,6.12-6.12V44.98
		c0-3.62-2.95-6.57-6.57-6.57H34.62C31,38.41,28.05,41.35,28.05,44.98z M68.34,44.98v3.57v22.91v0.31c0,1.22-0.99,2.21-2.21,2.21
		h-0.31H38.38h-4.2c-1.39,0-2.52-1.13-2.52-2.52V44.98c0-1.64,1.33-2.97,2.97-2.97h30.75C67.01,42.01,68.34,43.34,68.34,44.98z"/>
	<path class="st2" d="M65.82,73.97h0.31c1.22,0,2.21-0.99,2.21-2.21v-0.31C68.34,72.84,67.21,73.97,65.82,73.97z"/>
	<path class="st2" d="M49.99,51.26c-2.02,0-3.66,1.64-3.66,3.66c0,1.47,0.87,2.74,2.12,3.32v6.32h3.08v-6.32
		c1.25-0.58,2.12-1.85,2.12-3.32C53.66,52.9,52.02,51.26,49.99,51.26z"/>
</g>
</svg>
