<svg id="Layer_1" data-name="Layer 1" xmlns="http://www.w3.org/2000/svg" viewBox="0 0 100 100">
  <defs>
    <style>.cls-1{fill:none;}.cls-2{fill:#b29656;}.cls-3{fill:#010101;}</style>
  </defs>
  <path class="cls-1" d="M34.82,60.94l-.15-.09-.14-.12-.12-.12-.11-.13-.1-.14-.08-.15c0-.06,0-.11-.07-.17a.84.84,0,0,1,0-.17.75.75,0,0,1,0-.16,1.36,1.36,0,0,1,0-.2s0-.07,0-.1V57a16.93,16.93,0,0,1-2.26.17A16.28,16.28,0,0,1,29,57v2.33s0,.07,0,.11a1.23,1.23,0,0,1,0,.19,1,1,0,0,1,0,.17,1.09,1.09,0,0,1-.05.17,1.11,1.11,0,0,1-.07.16l-.08.15-.1.14-.11.14-.12.11-.14.12-.15.09-.15.09-.18.07-.1,0L15.77,64.36a24.24,24.24,0,0,0-8.45,4.18c-1.68,1.33-3.7,3.32-3.7,5.28V87.87a8.52,8.52,0,0,0,8.51,8.51h4.49a8.36,8.36,0,0,1-3.55-6.81V78.2c0-2.06,1.69-4,3.55-5.42A21.14,21.14,0,0,1,24,69.14s4.21-1.3,5.85-1.64a38.44,38.44,0,0,1,6.62-.6,38.86,38.86,0,0,1,7.55.6l5.85,1.64a21.14,21.14,0,0,1,7.34,3.64,14.74,14.74,0,0,1,1.74,1.6v-.56c0-2-2-3.95-3.69-5.28a24.24,24.24,0,0,0-8.45-4.18L35.25,61.13l-.1,0L35,61Z" />
  <path class="cls-1" d="M70.16,18a12,12,0,0,1-3.78-2.94,5,5,0,0,0-2.53-1.82c-2.08-.48-4.88,1.06-8.11,4.42V30.61a13.39,13.39,0,0,0,26.78,0V17s0-.06,0-.09A18.3,18.3,0,0,1,74.72,19,10.83,10.83,0,0,1,70.16,18Z" />
  <path class="cls-1" d="M32.7,27.59a12.06,12.06,0,0,1-3.79-2.93,5.08,5.08,0,0,0-2.52-1.83c-2.08-.47-4.88,1.07-8.11,4.42V40.19a13.39,13.39,0,1,0,26.77,0V26.51a18.3,18.3,0,0,1-7.79,2.07A10.65,10.65,0,0,1,32.7,27.59Z" />
  <path class="cls-1" d="M64.66,9.72A8.37,8.37,0,0,1,69,12.57a8.62,8.62,0,0,0,2.68,2.15c1.83.84,4.64,1.39,10.27-1.56a13.38,13.38,0,0,0-25.21-1.22C59.58,9.89,62.19,9.16,64.66,9.72Z" />
  <path class="cls-1" d="M27.19,19.3a8.47,8.47,0,0,1,4.35,2.86,8.6,8.6,0,0,0,2.68,2.14c1.83.85,4.64,1.4,10.27-1.55a13.39,13.39,0,0,0-25.21-1.23C22.12,19.47,24.73,18.74,27.19,19.3Z" />
  <path class="cls-2" d="M57.17,72.78a21.14,21.14,0,0,0-7.34-3.64L44,67.5a38.86,38.86,0,0,0-7.55-.6,38.44,38.44,0,0,0-6.62.6c-1.64.34-5.85,1.64-5.85,1.64a21.14,21.14,0,0,0-7.34,3.64c-1.86,1.46-3.55,3.36-3.55,5.42V89.57a8.36,8.36,0,0,0,3.55,6.81H50.4a8.52,8.52,0,0,0,8.51-8.51V74.38A14.74,14.74,0,0,0,57.17,72.78Z" />
  <path class="cls-3" d="M34.12,60.19l.08.15Z" />
  <path class="cls-3" d="M34.41,60.61l-.11-.13Z" />
  <path class="cls-3" d="M34.53,60.73l.14.12Z" />
  <path class="cls-3" d="M28.58,60.38a1.71,1.71,0,0,1-.11.14Z" />
  <path class="cls-3" d="M34,59.85a.84.84,0,0,0,0,.17A.84.84,0,0,1,34,59.85Z" />
  <path class="cls-3" d="M28.92,59.59a1.23,1.23,0,0,0,0-.19A1.23,1.23,0,0,1,28.92,59.59Z" />
  <path class="cls-3" d="M28.21,60.75l.14-.12Z" />
  <path class="cls-3" d="M28.83,59.93a1.09,1.09,0,0,0,.05-.17A1.54,1.54,0,0,1,28.83,59.93Z" />
  <path class="cls-3" d="M27.91,60.93l.15-.09Z" />
  <path class="cls-3" d="M28.68,60.24l.08-.15Z" />
  <path class="cls-3" d="M33.94,59.49a1.36,1.36,0,0,0,0,.2A1.23,1.23,0,0,1,33.94,59.49Z" />
  <path class="cls-3" d="M34.82,60.94,35,61Z" />
  <path class="cls-3" d="M28.47,60.52l-.12.11Z" />
  <path class="cls-3" d="M28.88,59.76a1,1,0,0,0,0-.17A1,1,0,0,1,28.88,59.76Z" />
  <path class="cls-3" d="M28.58,60.38l.1-.14Z" />
  <path class="cls-3" d="M28.06,60.84l.15-.09Z" />
  <path class="cls-3" d="M27.73,61l.18-.07Z" />
  <path class="cls-3" d="M28.76,60.09a1.11,1.11,0,0,0,.07-.16A1.11,1.11,0,0,1,28.76,60.09Z" />
  <path class="cls-3" d="M34.2,60.34l.1.14Z" />
  <path class="cls-3" d="M35.15,61.09,35,61Z" />
  <path class="cls-3" d="M34.67,60.85l.15.09Z" />
  <path class="cls-3" d="M34.05,60c0,.06.05.11.07.17S34.07,60.08,34.05,60Z" />
  <path class="cls-3" d="M34,59.69a.75.75,0,0,0,0,.16A.75.75,0,0,1,34,59.69Z" />
  <path class="cls-3" d="M34.53,60.73l-.12-.12Z" />
  <path class="cls-3" d="M48.36,23.36c0,.05,0,.1,0,.14S48.37,23.41,48.36,23.36Z" />
  <path class="cls-3" d="M57.45,65.69a27.66,27.66,0,0,0-9.7-4.81L37.55,58V56.13A17,17,0,0,0,48.67,40.19V26.6a17.61,17.61,0,0,0-.29-3.1s0-.09,0-.14a17,17,0,0,0-33.7,3.24V40.19A17,17,0,0,0,25.33,56v2l-10.54,3a27.8,27.8,0,0,0-9.71,4.81C1.71,68.35,0,71.08,0,73.82V87.87A12.15,12.15,0,0,0,12.13,100H50.4A12.14,12.14,0,0,0,62.53,87.87V73.82C62.53,71.08,60.83,68.35,57.45,65.69ZM31.67,13.21a13.42,13.42,0,0,1,12.82,9.54c-5.63,2.95-8.44,2.4-10.27,1.55a8.6,8.6,0,0,1-2.68-2.14,8.47,8.47,0,0,0-4.35-2.86c-2.46-.56-5.07.17-7.91,2.22A13.41,13.41,0,0,1,31.67,13.21Zm-13.39,27V27.25c3.23-3.35,6-4.89,8.11-4.42a5.08,5.08,0,0,1,2.52,1.83,12.06,12.06,0,0,0,3.79,2.93,10.65,10.65,0,0,0,4.56,1,18.3,18.3,0,0,0,7.79-2.07V40.19a13.39,13.39,0,1,1-26.77,0ZM12.13,96.38a8.52,8.52,0,0,1-8.51-8.51V73.82c0-2,2-3.95,3.7-5.28a24.24,24.24,0,0,1,8.45-4.18L27.63,61l.1,0,.18-.07.15-.09.15-.09.14-.12.12-.11a1.71,1.71,0,0,0,.11-.14l.1-.14.08-.15a1.11,1.11,0,0,0,.07-.16,1.54,1.54,0,0,0,.05-.17,1,1,0,0,0,0-.17,1.23,1.23,0,0,0,0-.19s0-.07,0-.11V57a16.28,16.28,0,0,0,2.72.24A16.93,16.93,0,0,0,33.93,57v2.36s0,.07,0,.1a1.23,1.23,0,0,0,0,.2.75.75,0,0,0,0,.16.84.84,0,0,0,0,.17c0,.06.05.11.07.17l.08.15.1.14.11.13.12.12.14.12.15.09L35,61l.18.07.1,0,11.52,3.23a24.24,24.24,0,0,1,8.45,4.18c1.68,1.33,3.69,3.32,3.69,5.28V87.87a8.52,8.52,0,0,1-8.51,8.51H12.13Z" />
  <path class="cls-3" d="M65.52,51.26l-.15.08Z" />
  <path class="cls-3" d="M66.4,49.81a1.36,1.36,0,0,1,0,.2A1.36,1.36,0,0,0,66.4,49.81Z" />
  <path class="cls-3" d="M66.22,50.5a1.09,1.09,0,0,1-.08.15A1.09,1.09,0,0,0,66.22,50.5Z" />
  <path class="cls-3" d="M66,50.79a1.71,1.71,0,0,1-.11.14A1.71,1.71,0,0,0,66,50.79Z" />
  <path class="cls-3" d="M66.34,50.17a.84.84,0,0,1,0,.17A.84.84,0,0,0,66.34,50.17Z" />
  <path class="cls-3" d="M65.81,51.05l-.14.11Z" />
  <path class="cls-3" d="M72.43,51.44l-.15-.09Z" />
  <path class="cls-3" d="M71.42,50.1a1.23,1.23,0,0,1,0-.19A1.23,1.23,0,0,0,71.42,50.1Z" />
  <path class="cls-3" d="M71.66,50.75l-.08-.15Z" />
  <path class="cls-3" d="M71.88,51l-.12-.14Z" />
  <path class="cls-3" d="M72.13,51.26,72,51.15Z" />
  <path class="cls-3" d="M71.51,50.44a1.09,1.09,0,0,1-.05-.17A1.09,1.09,0,0,0,71.51,50.44Z" />
  <path class="cls-3" d="M65.37,51.34l-.18.07Z" />
  <path class="cls-3" d="M65.93,50.93l-.12.12Z" />
  <path class="cls-3" d="M65.67,51.16l-.15.1Z" />
  <path class="cls-3" d="M66.38,50a.94.94,0,0,1,0,.16A.94.94,0,0,0,66.38,50Z" />
  <path class="cls-3" d="M66.29,50.34a.77.77,0,0,1-.07.16A.77.77,0,0,0,66.29,50.34Z" />
  <path class="cls-3" d="M66.14,50.65a.71.71,0,0,1-.1.14A.71.71,0,0,0,66.14,50.65Z" />
  <path class="cls-3" d="M71.46,50.27a1,1,0,0,1,0-.17A1,1,0,0,0,71.46,50.27Z" />
  <path class="cls-3" d="M72,51.15,71.88,51Z" />
  <path class="cls-3" d="M72.61,51.51l-.18-.07Z" />
  <path class="cls-3" d="M72.28,51.35l-.15-.09Z" />
  <path class="cls-3" d="M71.58,50.6l-.07-.16Z" />
  <path class="cls-3" d="M71.76,50.89l-.1-.14Z" />
  <path class="cls-3" d="M85.82,13.78s0,.09,0,.13A.59.59,0,0,0,85.82,13.78Z" />
  <path class="cls-3" d="M94.92,56.11a27.81,27.81,0,0,0-9.71-4.82L75,48.43V46.54A17,17,0,0,0,86.14,30.61V17a16.71,16.71,0,0,0-.3-3.1s0-.09,0-.13A17,17,0,0,0,52.12,17v13.6A17,17,0,0,0,62.79,46.38v1.95l-10.54,3a30,30,0,0,0-5.18,2,1.81,1.81,0,0,0,.81,3.43,1.77,1.77,0,0,0,.8-.19,26,26,0,0,1,4.55-1.73l11.86-3.33.1,0,.18-.07.15-.08.15-.1.14-.11.12-.12a1.71,1.71,0,0,0,.11-.14.71.71,0,0,0,.1-.14,1.09,1.09,0,0,0,.08-.15.77.77,0,0,0,.07-.16.84.84,0,0,0,0-.17.94.94,0,0,0,0-.16,1.36,1.36,0,0,0,0-.2s0-.07,0-.1V47.38a17.41,17.41,0,0,0,2.72.24,16.81,16.81,0,0,0,2.26-.17V49.8s0,.07,0,.11a1.23,1.23,0,0,0,0,.19,1,1,0,0,0,0,.17,1.09,1.09,0,0,0,.05.17l.07.16.08.15.1.14.12.14.12.12.13.11.15.09.15.09.18.07.1,0,11.52,3.23A24.23,24.23,0,0,1,92.68,59c1.68,1.33,3.7,3.32,3.7,5.29v14a8.52,8.52,0,0,1-8.51,8.51h-21a1.81,1.81,0,0,0,0,3.62h21A12.15,12.15,0,0,0,100,78.28v-14C100,61.49,98.29,58.76,94.92,56.11ZM69.13,3.62A13.42,13.42,0,0,1,82,13.16c-5.63,2.95-8.44,2.4-10.27,1.56A8.62,8.62,0,0,1,69,12.57a8.37,8.37,0,0,0-4.34-2.85c-2.47-.56-5.08.17-7.92,2.22A13.41,13.41,0,0,1,69.13,3.62Zm0,40.37A13.39,13.39,0,0,1,55.74,30.61V17.67c3.23-3.36,6-4.9,8.11-4.42a5,5,0,0,1,2.53,1.82A12,12,0,0,0,70.16,18a10.83,10.83,0,0,0,4.56,1,18.3,18.3,0,0,0,7.79-2.07s0,.06,0,.09v13.6A13.4,13.4,0,0,1,69.13,44Z" />
</svg>