<?xml version="1.0" encoding="utf-8"?>
<!-- Generator: Adobe Illustrator 24.1.0, SVG Export Plug-In . SVG Version: 6.00 Build 0)  -->
<svg version="1.1" id="Layer_1" xmlns="http://www.w3.org/2000/svg" xmlns:xlink="http://www.w3.org/1999/xlink" x="0px" y="0px"
	 viewBox="0 0 100 100" style="enable-background:new 0 0 100 100;" xml:space="preserve">
<style type="text/css">
	.st0{fill:#B29656;}
	.st1{fill:#010101;}
</style>
<g>
	<path class="st0" d="M59.43,39.77c0-4.86-3.18-7.86-8.22-7.86h-7.62v15.6h7.62C56.25,47.51,59.43,44.57,59.43,39.77z"/>
	<path class="st0" d="M51.81,51.59h-8.22V68.1h8.22c5.46,0,8.82-3.18,8.82-8.4C60.63,54.65,57.33,51.59,51.81,51.59z"/>
	<path class="st0" d="M50,16.49c-18.51,0-33.51,15-33.51,33.51s15,33.51,33.51,33.51s33.51-15,33.51-33.51S68.51,16.49,50,16.49z
		 M61.65,68.82c-2.14,2.03-5.29,3.2-8.89,3.33v7.65c0,0.81-0.66,1.47-1.47,1.47h-1.83c-0.81,0-1.47-0.66-1.47-1.47v-7.62h-8.91
		V27.82H48V20.2c0-0.81,0.66-1.47,1.47-1.47h1.83c0.81,0,1.47,0.66,1.47,1.47v7.67c3.21,0.23,5.91,1.33,7.87,3.13
		c2.16,2.04,3.42,5.04,3.42,8.46c0,4.32-1.98,7.56-5.88,9.78c4.5,1.86,7.08,5.76,7.08,10.74C65.25,63.59,63.93,66.66,61.65,68.82z"
		/>
	<path class="st1" d="M5.77,34.89c4.6-2.15,9.21-4.3,13.81-6.45c2.63-1.23,0.33-5.12-2.29-3.89c-2.53,1.18-5.05,2.36-7.58,3.54
		C16.36,16.15,27.94,7.68,41.55,5.15C55.9,2.47,70.91,7.34,81.3,17.46c8.69,8.47,13.52,20.25,13.58,32.35
		c0.01,2.91,4.53,2.94,4.52,0.03c-0.07-14.64-6.53-28.67-17.72-38.13C70.14,1.95,54.72-1.89,39.92,0.87
		C25.64,3.53,13.09,12.89,6.01,25.45c-0.3-2.54-0.59-5.09-0.89-7.63c-0.14-1.22-0.9-2.26-2.24-2.27c-1.11-0.01-2.42,1.02-2.27,2.24
		c0.59,5.05,1.17,10.09,1.76,15.14C2.57,34.71,4.1,35.67,5.77,34.89z"/>
	<path class="st1" d="M94.23,65.11c-4.6,2.15-9.21,4.3-13.81,6.45c-2.63,1.23-0.33,5.12,2.29,3.89c2.53-1.18,5.05-2.36,7.58-3.54
		c-6.65,11.94-18.23,20.41-31.83,22.94C44.1,97.53,29.09,92.66,18.7,82.54C10.01,74.08,5.18,62.29,5.12,50.19
		c-0.01-2.91-4.53-2.94-4.52-0.03C0.68,64.8,7.13,78.83,18.32,88.3c11.53,9.75,26.96,13.59,41.76,10.83
		c14.28-2.66,26.83-12.01,33.91-24.58c0.3,2.54,0.59,5.09,0.89,7.63c0.14,1.22,0.9,2.26,2.24,2.27c1.11,0.01,2.42-1.02,2.27-2.24
		c-0.59-5.05-1.17-10.09-1.76-15.14C97.43,65.29,95.9,64.33,94.23,65.11z"/>
	<path class="st1" d="M58.17,49.25c3.9-2.22,5.88-5.46,5.88-9.78c0-3.42-1.26-6.42-3.42-8.46c-1.96-1.8-4.67-2.9-7.87-3.13V20.2
		c0-0.81-0.66-1.47-1.47-1.47h-1.83c-0.81,0-1.47,0.66-1.47,1.47v7.62h-8.91v44.35H48v7.62c0,0.81,0.66,1.47,1.47,1.47h1.83
		c0.81,0,1.47-0.66,1.47-1.47v-7.65c3.6-0.14,6.75-1.31,8.89-3.33c2.28-2.16,3.6-5.22,3.6-8.82C65.25,55.01,62.67,51.11,58.17,49.25
		z M43.59,31.9h7.62c5.04,0,8.22,3,8.22,7.86c0,4.8-3.18,7.74-8.22,7.74h-7.62V31.9z M51.81,68.1h-8.22V51.59h8.22
		c5.52,0,8.82,3.06,8.82,8.1C60.63,64.91,57.27,68.1,51.81,68.1z"/>
</g>
</svg>
