<?xml version="1.0" encoding="utf-8"?>
<!-- Generator: Adobe Illustrator 24.1.0, SVG Export Plug-In . SVG Version: 6.00 Build 0)  -->
<svg version="1.1" id="Layer_1" xmlns="http://www.w3.org/2000/svg" xmlns:xlink="http://www.w3.org/1999/xlink" x="0px" y="0px"
	 viewBox="0 0 100 100" style="enable-background:new 0 0 100 100;" xml:space="preserve">
<style type="text/css">
	.st0{fill:none;}
	.st1{fill:#B29656;}
</style>
<g>
	<path class="st0" d="M63.37,61.32l0.84,2.29c0.23,0.64,0.1,1.35-0.36,1.86c-0.03,0.03-0.05,0.07-0.08,0.1
		c-0.21,0.24-0.4,0.48-0.59,0.73c-0.45,0.57-0.87,1.15-1.22,1.75c-0.33,0.56-0.92,0.9-1.57,0.9c0,0-2.63-0.07-2.63-0.07
		c-0.38,0-0.72,0.24-0.84,0.59c-0.12,0.34-0.23,0.68-0.34,1.03c-0.12,0.38,0.03,0.79,0.36,1.01l2.07,1.38
		c0.56,0.38,0.87,1.04,0.81,1.71c-0.05,0.5-0.08,1.01-0.08,1.58c0,0.55,0.03,1.07,0.09,1.56c0.07,0.68-0.23,1.34-0.8,1.72l-2.06,1.4
		c-0.33,0.22-0.47,0.63-0.36,1.01c0.11,0.34,0.22,0.69,0.34,1.03c0.13,0.36,0.47,0.59,0.84,0.59l2.56-0.08
		c0.77,0.04,1.33,0.34,1.66,0.89c0.56,0.92,1.2,1.78,1.91,2.56c0.32,0.35,0.48,0.81,0.47,1.27c0,0.2-0.03,0.39-0.1,0.59l-0.22,0.61
		l-0.61,1.69c-0.13,0.37-0.01,0.78,0.3,1.02c0,0,0,0,0,0c0.34,0.25,0.65,0.48,0.95,0.68c0.15,0.1,0.32,0.15,0.5,0.15
		c0.19,0,0.38-0.06,0.54-0.18l2.03-1.54c0.32-0.24,0.71-0.37,1.11-0.37c0.25,0,0.49,0.05,0.72,0.15c1.02,0.43,2.05,0.76,3.09,0.98
		c0.66,0.14,1.18,0.62,1.38,1.26l0.72,2.37c0.11,0.37,0.45,0.63,0.83,0.64c0.07,0,0.26,0,0.26,0h0.05c0.08,0,0.16,0,0.25,0
		c0.02,0,0.03,0,0.03,0c0.22,0,0.42-0.01,0.62-0.01c0.39-0.01,0.72-0.27,0.84-0.64l0.7-2.37c0.19-0.64,0.72-1.13,1.37-1.27
		c1.04-0.22,2.08-0.56,3.08-0.99c0.23-0.1,0.48-0.15,0.73-0.15c0.4,0,0.78,0.13,1.1,0.36l2.03,1.53c0.16,0.12,0.35,0.18,0.54,0.18
		c0.17,0,0.35-0.05,0.5-0.15c0.33-0.22,0.66-0.45,0.95-0.68c0.31-0.24,0.43-0.65,0.3-1.02l-0.84-2.3c-0.23-0.64-0.09-1.35,0.36-1.86
		c0.71-0.78,1.34-1.64,1.89-2.56c0.32-0.54,0.97-0.9,1.62-0.9l2.58,0.06c0.38,0,0.71-0.23,0.84-0.59c0.12-0.32,0.23-0.66,0.34-1.04
		c0.11-0.38-0.03-0.78-0.36-1l-2.07-1.39c-0.56-0.37-0.87-1.03-0.81-1.7c0.05-0.58,0.08-1.1,0.08-1.59c0-0.54-0.03-1.06-0.08-1.59
		c-0.07-0.67,0.24-1.32,0.8-1.7l2.06-1.4c0.33-0.22,0.47-0.63,0.35-1.01c-0.11-0.37-0.23-0.7-0.35-1.03
		c-0.13-0.35-0.47-0.59-0.84-0.59l-2.66,0.08c-0.64,0-1.21-0.33-1.55-0.89c-0.54-0.9-1.18-1.76-1.91-2.56
		c-0.46-0.5-0.6-1.22-0.37-1.86l0.82-2.29c0.13-0.37,0.01-0.79-0.31-1.02c-0.31-0.24-0.63-0.46-0.95-0.68
		c-0.15-0.1-0.33-0.15-0.5-0.15c-0.19,0-0.38,0.06-0.54,0.18l-2.03,1.54c-0.32,0.24-0.71,0.37-1.11,0.37
		c-0.25,0-0.49-0.05-0.72-0.15c-0.99-0.42-2.03-0.75-3.09-0.98c-0.65-0.14-1.18-0.62-1.37-1.26l-0.72-2.37
		c-0.11-0.37-0.45-0.62-0.83-0.64c-0.14,0-0.28-0.01-0.42-0.01c0,0-0.18,0-0.18,0c-0.2,0-0.39,0-0.57,0.01
		c-0.39,0.01-0.77,0.27-0.88,0.64l-0.7,2.37c-0.19,0.64-0.72,1.13-1.37,1.27c-1.06,0.23-2.1,0.56-3.09,0.99
		c-0.23,0.1-0.47,0.15-0.73,0.15c-0.4,0-0.78-0.13-1.11-0.37l-2.03-1.53c-0.16-0.12-0.35-0.18-0.54-0.18c-0.18,0-0.35,0.05-0.5,0.16
		c-0.27,0.18-0.54,0.38-0.8,0.57c-0.05,0.04-0.1,0.07-0.15,0.11C63.35,60.54,63.23,60.95,63.37,61.32z M66.98,72.13
		c0.35-0.8,0.8-1.54,1.34-2.22c1.84-2.32,4.68-3.82,7.86-3.82c5.53,0,10.04,4.5,10.04,10.04c0,5.53-4.5,10.04-10.04,10.04
		c-2.49,0-4.76-0.92-6.52-2.42c-0.49-0.42-0.94-0.88-1.34-1.39c-1.36-1.71-2.18-3.87-2.18-6.23C66.14,74.71,66.44,73.36,66.98,72.13
		z"/>
	<path class="st0" d="M14.77,85.21V80.5c0-14.79,11.99-26.77,26.77-26.77c6.75,0,12.91,2.5,17.62,6.63
		c-0.02-0.16-0.01-0.31,0.01-0.47c-5.73-7.1-14.48-11.65-24.29-11.65c-17.21,0-31.21,14-31.21,31.21v5.8c0,1.82,1.48,3.3,3.3,3.3
		h9.52C15.46,87.8,14.77,86.59,14.77,85.21z"/>
	<path class="st0" d="M76.17,82.5c3.51,0,6.36-2.85,6.36-6.36c0-3.51-2.85-6.36-6.36-6.36s-6.36,2.85-6.36,6.36
		C69.81,79.64,72.66,82.5,76.17,82.5z"/>
	<path class="st0" d="M34.89,37.38c7.71,0,14.48-8.12,14.48-17.37c0-8.98-6.5-16.29-14.48-16.29c-7.98,0-14.48,7.31-14.48,16.29
		C20.41,29.26,27.17,37.38,34.89,37.38z"/>
	<path class="st1" d="M60.15,88.09c-0.15-0.19-0.3-0.39-0.44-0.59c-0.17-0.23-0.44-0.37-0.73-0.37c-0.01,0-3,0.09-3,0.09
		c-0.67,0-1.35-0.43-1.64-1.05c-0.82-1.72-1.43-3.54-1.8-5.39c-0.15-0.73,0.16-1.47,0.77-1.88l2.36-1.6
		c0.25-0.17,0.4-0.46,0.39-0.76c0-0.11-0.01-0.23-0.01-0.34c0-0.12,0-0.24,0-0.35c0.01-0.31-0.14-0.6-0.4-0.77l-2.37-1.58
		c-0.62-0.41-0.93-1.15-0.78-1.89c0.37-1.86,0.97-3.67,1.77-5.39c0.3-0.64,0.98-1.05,1.74-1.06l2.9,0.07c0.29,0,0.57-0.14,0.74-0.38
		c0.14-0.2,0.29-0.4,0.43-0.59c0.19-0.24,0.24-0.57,0.13-0.86l-0.96-2.62c-0.05-0.14-0.07-0.28-0.09-0.42
		c-4.71-4.12-10.87-6.63-17.62-6.63c-14.79,0-26.77,11.99-26.77,26.77v4.71c0,1.38,0.68,2.59,1.72,3.34h43.84
		C60.31,88.38,60.25,88.23,60.15,88.09z"/>
	<path d="M34.89,40.94c9.78,0,18.04-9.58,18.04-20.93c0-10.94-8.09-19.85-18.04-19.85c-9.95,0-18.04,8.9-18.04,19.85
		C16.85,31.35,25.11,40.94,34.89,40.94z M34.89,3.72c7.99,0,14.48,7.31,14.48,16.29c0,9.25-6.77,17.37-14.48,17.37
		c-7.71,0-14.48-8.12-14.48-17.37C20.41,11.03,26.9,3.72,34.89,3.72z"/>
	<path d="M99.06,78.78l-2.36-1.58c-0.25-0.17-0.4-0.46-0.4-0.76c0-0.12,0-0.24,0-0.35c0-0.11,0-0.23-0.01-0.34
		c-0.01-0.3,0.14-0.59,0.39-0.76l2.35-1.6c0.61-0.42,0.92-1.16,0.77-1.88c-0.37-1.85-0.98-3.66-1.8-5.39
		c-0.38-0.79-1.15-1.01-1.75-1.05c0,0-2.88,0.09-2.89,0.09c-0.29,0-0.56-0.14-0.73-0.37c-0.15-0.2-0.29-0.4-0.44-0.6
		c-0.19-0.24-0.24-0.57-0.14-0.86l0.94-2.62c0.25-0.7,0.06-1.48-0.5-1.99c-1.41-1.28-2.98-2.4-4.67-3.32
		c-0.26-0.15-0.57-0.22-0.87-0.22c-0.4,0-0.79,0.13-1.11,0.38l-2.29,1.74c-0.16,0.12-0.35,0.18-0.54,0.18
		c-0.1,0-0.19-0.02-0.29-0.05c-0.26-0.09-0.52-0.17-0.78-0.25c-0.29-0.09-0.52-0.31-0.6-0.6l-0.82-2.69
		c-0.21-0.7-0.82-1.2-1.54-1.29c-0.93-0.11-1.87-0.17-2.82-0.17l-0.24,0c-0.86,0-1.67,0.06-2.7,0.18c-0.73,0.09-1.33,0.6-1.54,1.3
		l-0.8,2.69c-0.09,0.29-0.32,0.52-0.61,0.61c-0.26,0.08-0.52,0.16-0.77,0.25c-0.09,0.03-0.19,0.05-0.29,0.05
		c-0.19,0-0.38-0.06-0.54-0.18l-2.31-1.73c-0.32-0.24-0.7-0.37-1.1-0.37c-0.31,0-0.62,0.08-0.89,0.23c-0.96,0.53-1.89,1.14-2.77,1.8
		c-6.38-7.67-16-12.57-26.73-12.57c-19.17,0-34.76,15.6-34.76,34.76v5.8c0,3.78,3.07,6.85,6.85,6.85h52.26
		c-0.03,0.54,0.18,1.07,0.6,1.45c1.41,1.28,2.98,2.4,4.66,3.31c0.27,0.15,0.57,0.22,0.88,0.22c0.4,0,0.79-0.13,1.11-0.37l2.3-1.75
		c0.16-0.12,0.35-0.18,0.54-0.18c0.1,0,0.19,0.02,0.29,0.05c0.26,0.09,0.52,0.17,0.78,0.25c0.29,0.09,0.52,0.31,0.61,0.6l0.81,2.69
		c0.21,0.7,0.82,1.21,1.55,1.29c0.98,0.11,1.89,0.16,2.78,0.17c0.42-0.03,0.84-0.05,1.26-0.07c0.6-0.02,1.16-0.05,1.71-0.11
		c0.73-0.09,1.33-0.6,1.54-1.3l0.8-2.69c0.09-0.29,0.31-0.52,0.6-0.6c0.26-0.08,0.52-0.16,0.77-0.25c0.1-0.03,0.2-0.05,0.3-0.05
		c0.19,0,0.38,0.06,0.54,0.18l2.31,1.73c0.32,0.24,0.7,0.37,1.1,0.37c0.31,0,0.62-0.08,0.89-0.23c1.67-0.92,3.23-2.04,4.65-3.34
		c0.55-0.51,0.74-1.28,0.48-1.98l-0.96-2.62c-0.11-0.29-0.06-0.61,0.13-0.86c0.15-0.19,0.29-0.39,0.44-0.59
		c0.17-0.24,0.44-0.38,0.73-0.38c0.01,0,3.03,0.07,3.03,0.07c0.97,0,1.42-0.66,1.61-1.06c0.81-1.74,1.41-3.56,1.77-5.4
		C99.98,79.93,99.68,79.19,99.06,78.78z M16.49,88.55H6.98c-1.82,0-3.3-1.48-3.3-3.3v-5.8c0-17.21,14-31.21,31.21-31.21
		c9.81,0,18.57,4.55,24.29,11.65c-0.02,0.15-0.03,0.31-0.01,0.47c0.02,0.14,0.04,0.28,0.09,0.42l0.96,2.62
		c0.11,0.29,0.06,0.61-0.13,0.86c-0.15,0.19-0.3,0.39-0.43,0.59c-0.17,0.24-0.44,0.38-0.74,0.38l-2.9-0.07
		c-0.76,0.01-1.44,0.42-1.74,1.06c-0.81,1.72-1.4,3.54-1.77,5.39c-0.14,0.73,0.16,1.47,0.78,1.89l2.37,1.58
		c0.25,0.17,0.41,0.46,0.4,0.77c0,0.12,0,0.24,0,0.35c0,0.11,0,0.23,0.01,0.34c0.01,0.31-0.14,0.59-0.39,0.76l-2.36,1.6
		c-0.62,0.42-0.92,1.16-0.77,1.88c0.37,1.85,0.98,3.66,1.8,5.39c0.3,0.62,0.97,1.05,1.64,1.05c0,0,2.99-0.09,3-0.09
		c0.29,0,0.56,0.14,0.73,0.37c0.14,0.2,0.29,0.4,0.44,0.59c0.11,0.13,0.16,0.29,0.18,0.45H16.49z M95.79,81.77
		c-0.11,0.38-0.23,0.72-0.34,1.04c-0.13,0.35-0.47,0.59-0.84,0.59l-2.58-0.06c-0.65,0-1.3,0.36-1.62,0.9
		c-0.55,0.92-1.18,1.78-1.89,2.56c-0.46,0.5-0.6,1.22-0.36,1.86l0.84,2.3c0.13,0.37,0.01,0.78-0.3,1.02
		c-0.3,0.23-0.62,0.46-0.95,0.68c-0.15,0.1-0.33,0.15-0.5,0.15c-0.19,0-0.38-0.06-0.54-0.18l-2.03-1.53
		c-0.32-0.24-0.7-0.36-1.1-0.36c-0.25,0-0.5,0.05-0.73,0.15c-1,0.43-2.04,0.77-3.08,0.99c-0.66,0.14-1.18,0.63-1.37,1.27l-0.7,2.37
		c-0.11,0.37-0.45,0.63-0.84,0.64c-0.2,0.01-0.41,0.01-0.62,0.01c0,0-0.02,0-0.03,0c-0.08,0-0.17,0-0.25,0h-0.05c0,0-0.19,0-0.26,0
		c-0.39-0.01-0.72-0.27-0.83-0.64l-0.72-2.37c-0.19-0.64-0.72-1.12-1.38-1.26c-1.03-0.22-2.07-0.55-3.09-0.98
		c-0.23-0.1-0.47-0.15-0.72-0.15c-0.4,0-0.79,0.13-1.11,0.37l-2.03,1.54c-0.16,0.12-0.35,0.18-0.54,0.18c-0.17,0-0.35-0.05-0.5-0.15
		c-0.3-0.2-0.61-0.42-0.95-0.68c0,0,0,0,0,0c-0.31-0.24-0.44-0.65-0.3-1.02l0.61-1.69l0.22-0.61c0.07-0.19,0.09-0.39,0.1-0.59
		c0.01-0.46-0.15-0.92-0.47-1.27c-0.71-0.77-1.35-1.63-1.91-2.56c-0.33-0.55-0.89-0.85-1.66-0.89l-2.56,0.08
		c-0.38,0-0.72-0.24-0.84-0.59c-0.12-0.34-0.24-0.68-0.34-1.03c-0.12-0.38,0.03-0.79,0.36-1.01l2.06-1.4
		c0.57-0.38,0.87-1.04,0.8-1.72c-0.05-0.49-0.08-1.02-0.09-1.56c0-0.57,0.02-1.09,0.08-1.58c0.07-0.68-0.24-1.33-0.81-1.71
		l-2.07-1.38c-0.33-0.22-0.48-0.63-0.36-1.01c0.11-0.35,0.22-0.69,0.34-1.03c0.13-0.36,0.47-0.59,0.84-0.59
		c0.01,0,2.63,0.07,2.63,0.07c0.65,0,1.24-0.34,1.57-0.9c0.36-0.6,0.78-1.18,1.22-1.75c0.19-0.24,0.38-0.49,0.59-0.73
		c0.03-0.03,0.05-0.07,0.08-0.1c0.45-0.51,0.59-1.22,0.36-1.86l-0.84-2.29c-0.14-0.37-0.01-0.79,0.3-1.02
		c0.05-0.04,0.1-0.07,0.15-0.11c0.26-0.2,0.53-0.39,0.8-0.57c0.15-0.1,0.33-0.16,0.5-0.16c0.19,0,0.38,0.06,0.54,0.18l2.03,1.53
		c0.33,0.24,0.71,0.37,1.11,0.37c0.25,0,0.49-0.05,0.73-0.15c0.99-0.43,2.03-0.76,3.09-0.99c0.66-0.14,1.18-0.63,1.37-1.27l0.7-2.37
		c0.11-0.37,0.49-0.63,0.88-0.64c0.19-0.01,0.37-0.01,0.57-0.01c0,0,0.18,0,0.18,0c0.14,0,0.28,0,0.42,0.01
		c0.38,0.01,0.72,0.27,0.83,0.64l0.72,2.37c0.2,0.64,0.72,1.12,1.37,1.26c1.05,0.22,2.09,0.55,3.09,0.98
		c0.23,0.1,0.47,0.15,0.72,0.15c0.4,0,0.79-0.13,1.11-0.37l2.03-1.54c0.16-0.12,0.35-0.18,0.54-0.18c0.17,0,0.35,0.05,0.5,0.15
		c0.32,0.21,0.64,0.44,0.95,0.68c0.32,0.24,0.44,0.65,0.31,1.02l-0.82,2.29c-0.23,0.64-0.09,1.35,0.37,1.86
		c0.73,0.8,1.37,1.67,1.91,2.56c0.34,0.57,0.91,0.89,1.55,0.89l2.66-0.08c0.37,0,0.71,0.23,0.84,0.59c0.12,0.33,0.23,0.67,0.35,1.03
		c0.12,0.38-0.03,0.79-0.35,1.01l-2.06,1.4c-0.56,0.38-0.87,1.04-0.8,1.7c0.05,0.53,0.08,1.05,0.08,1.59c0,0.49-0.02,1-0.08,1.59
		c-0.06,0.67,0.25,1.32,0.81,1.7l2.07,1.39C95.76,80.98,95.9,81.39,95.79,81.77z"/>
	<path d="M76.17,66.1c-3.18,0-6.02,1.5-7.86,3.82c-0.54,0.68-0.99,1.42-1.34,2.22c-0.54,1.23-0.84,2.58-0.84,4
		c0,2.35,0.82,4.51,2.18,6.23c0.4,0.5,0.85,0.97,1.34,1.39c1.76,1.51,4.03,2.42,6.52,2.42c5.53,0,10.04-4.5,10.04-10.04
		C86.21,70.6,81.71,66.1,76.17,66.1z M76.17,82.5c-3.51,0-6.36-2.85-6.36-6.36c0-3.51,2.85-6.36,6.36-6.36s6.36,2.85,6.36,6.36
		C82.54,79.64,79.68,82.5,76.17,82.5z"/>
</g>
</svg>
