<?xml version="1.0" encoding="utf-8"?>
<!-- Generator: Adobe Illustrator 24.1.0, SVG Export Plug-In . SVG Version: 6.00 Build 0)  -->
<svg version="1.1" id="Layer_1" xmlns="http://www.w3.org/2000/svg" xmlns:xlink="http://www.w3.org/1999/xlink" x="0px" y="0px"
	 viewBox="0 0 100 100" style="enable-background:new 0 0 100 100;" xml:space="preserve">
<style type="text/css">
	.st0{fill:none;}
	.st1{fill:#010101;}
	.st2{fill:#AE955E;}
</style>
<g>
	<path class="st0" d="M88.02,13.59H45.17c-4.59,0-8.32,3.73-8.32,8.32v33.61c0,4.59,3.73,8.32,8.32,8.32h7.19
		c-4.59,0-8.32-3.73-8.32-8.32V29.11c0-4.59,3.73-8.32,8.32-8.32h35.66c4.59,0,8.32,3.73,8.32,8.32v-7.19
		C96.35,17.32,92.61,13.59,88.02,13.59z"/>
	<path class="st1" d="M88.02,9.98H45.17c-6.58,0-11.93,5.35-11.93,11.93v33.61c0,6.58,5.35,11.93,11.93,11.93h18.4l14.8,14.8
		c0.58,0.58,1.36,0.89,2.14,0.89c0.39,0,0.79-0.08,1.17-0.23c1.14-0.47,1.87-1.57,1.87-2.81V67.45h4.47
		c6.58,0,11.93-5.35,11.93-11.93V21.91C99.96,15.33,94.6,9.98,88.02,9.98z M63.41,67.29C63.41,67.29,63.41,67.29,63.41,67.29
		C63.41,67.29,63.41,67.29,63.41,67.29z M63.81,67.45L63.81,67.45L63.81,67.45z M67.38,67.36C67.38,67.36,67.38,67.36,67.38,67.36
		C67.38,67.36,67.38,67.36,67.38,67.36z M67.69,67.49L67.69,67.49L67.69,67.49z M96.35,29.11v26.42c0,4.59-3.73,8.32-8.32,8.32
		h-5.04c-1.68,0-3.04,1.36-3.04,3.04v11.84L65.96,64.74c-0.57-0.58-1.34-0.89-2.15-0.89H52.37h-7.19c-4.59,0-8.32-3.73-8.32-8.32
		V21.91c0-4.59,3.73-8.32,8.32-8.32h42.85c4.59,0,8.32,3.73,8.32,8.32V29.11z"/>
	<path class="st1" d="M41.02,71.69c0,0.01,0,0.02,0,0.03c0,2.57-2.09,4.67-4.67,4.67H24.68c-0.68,0-1.35,0.28-1.83,0.76l-7.82,7.82
		v-5.99c0-1.43-1.16-2.59-2.59-2.59H8.32c-2.57,0-4.67-2.09-4.67-4.67V50.26c0-2.57,2.09-4.67,4.67-4.67H30v-3.61H8.32
		c-4.56,0-8.28,3.71-8.28,8.28v21.47c0,4.56,3.71,8.28,8.28,8.28h3.1v7.43c0,1.05,0.63,1.99,1.6,2.4c0.32,0.13,0.66,0.2,0.99,0.2
		c0.67,0,1.33-0.26,1.83-0.76L25.1,80h11.25c4.56,0,8.28-3.71,8.28-8.28c0-0.01,0-0.02,0-0.03h0v-1.12h-3.61V71.69z"/>
	<path class="st2" d="M88.02,20.78H52.37c-4.59,0-8.32,3.73-8.32,8.32v26.42c0,4.59,3.73,8.32,8.32,8.32h11.44
		c0.81,0,1.58,0.32,2.15,0.89l13.98,13.98V66.88c0-1.68,1.36-3.04,3.04-3.04h5.04c4.59,0,8.32-3.73,8.32-8.32V29.11
		C96.35,24.52,92.61,20.78,88.02,20.78z"/>
</g>
</svg>
