<?xml version="1.0" encoding="utf-8"?>
<!-- Generator: Adobe Illustrator 24.1.0, SVG Export Plug-In . SVG Version: 6.00 Build 0)  -->
<svg version="1.1" id="Layer_1" xmlns="http://www.w3.org/2000/svg" xmlns:xlink="http://www.w3.org/1999/xlink" x="0px" y="0px"
	 viewBox="0 0 100 100" style="enable-background:new 0 0 100 100;" xml:space="preserve">
<style type="text/css">
	.st0{fill:none;}
	.st1{fill:#B29656;}
	.st2{fill:#010101;}
</style>
<g>
	<path class="st0" d="M83.19,88.06V83.6h-3.63v4.46c0,4.72,3.84,8.56,8.56,8.56c0.61,0,1.2-0.07,1.77-0.19
		C86.06,95.62,83.19,92.17,83.19,88.06z"/>
	<path class="st0" d="M76.17,11.94c0-4.72-3.84-8.56-8.56-8.56H20.2c2.23,2.17,3.62,5.21,3.62,8.56v76.12
		c0,4.72,3.84,8.56,8.56,8.56H79.8c-2.23-2.17-3.62-5.21-3.62-8.56V11.94z M36.51,67.04c-1.14,0-2.06-0.92-2.06-2.06
		c0-1.14,0.92-2.06,2.06-2.06s2.06,0.92,2.06,2.06C38.57,66.12,37.65,67.04,36.51,67.04z M36.51,52.06c-1.14,0-2.06-0.92-2.06-2.06
		c0-1.14,0.92-2.06,2.06-2.06s2.06,0.92,2.06,2.06C38.57,51.14,37.65,52.06,36.51,52.06z M36.51,37.08c-1.14,0-2.06-0.92-2.06-2.06
		s0.92-2.06,2.06-2.06s2.06,0.92,2.06,2.06S37.65,37.08,36.51,37.08z M45.5,67.04c-1.14,0-2.06-0.92-2.06-2.06
		c0-1.14,0.92-2.06,2.06-2.06c1.14,0,2.06,0.92,2.06,2.06C47.56,66.12,46.64,67.04,45.5,67.04z M45.5,52.06
		c-1.14,0-2.06-0.92-2.06-2.06c0-1.14,0.92-2.06,2.06-2.06c1.14,0,2.06,0.92,2.06,2.06C47.56,51.14,46.64,52.06,45.5,52.06z
		 M45.5,37.08c-1.14,0-2.06-0.92-2.06-2.06s0.92-2.06,2.06-2.06c1.14,0,2.06,0.92,2.06,2.06S46.64,37.08,45.5,37.08z M54.5,67.04
		c-1.14,0-2.06-0.92-2.06-2.06c0-1.14,0.92-2.06,2.06-2.06c1.14,0,2.06,0.92,2.06,2.06C56.56,66.12,55.63,67.04,54.5,67.04z
		 M54.5,52.06c-1.14,0-2.06-0.92-2.06-2.06c0-1.14,0.92-2.06,2.06-2.06c1.14,0,2.06,0.92,2.06,2.06
		C56.56,51.14,55.63,52.06,54.5,52.06z M54.5,37.08c-1.14,0-2.06-0.92-2.06-2.06s0.92-2.06,2.06-2.06c1.14,0,2.06,0.92,2.06,2.06
		S55.63,37.08,54.5,37.08z M63.49,67.04c-1.14,0-2.06-0.92-2.06-2.06c0-1.14,0.92-2.06,2.06-2.06s2.06,0.92,2.06,2.06
		C65.55,66.12,64.63,67.04,63.49,67.04z M63.49,52.06c-1.14,0-2.06-0.92-2.06-2.06c0-1.14,0.92-2.06,2.06-2.06s2.06,0.92,2.06,2.06
		C65.55,51.14,64.63,52.06,63.49,52.06z M63.49,37.08c-1.14,0-2.06-0.92-2.06-2.06s0.92-2.06,2.06-2.06s2.06,0.92,2.06,2.06
		S64.63,37.08,63.49,37.08z"/>
	<path class="st0" d="M13.65,3.57c-0.57-0.12-1.16-0.18-1.76-0.18c-4.72,0-8.56,3.84-8.56,8.56v4.46h3.62v-4.46
		C6.95,7.83,9.83,4.38,13.65,3.57z"/>
	<path class="st1" d="M13.65,3.57c-3.82,0.82-6.7,4.26-6.7,8.37v4.46h13.49v-4.46C20.45,7.83,17.53,4.38,13.65,3.57z"/>
	<path class="st1" d="M96.67,88.06V83.6H83.19v4.46c0,4.11,2.87,7.56,6.69,8.37C93.75,95.62,96.67,92.17,96.67,88.06z"/>
	<path class="st2" d="M98.36,80.22H79.55V11.94C79.55,5.36,74.2,0,67.62,0H11.89C5.3,0-0.05,5.36-0.05,11.94v6.15
		c0,0.93,0.76,1.69,1.69,1.69h18.81v68.28c0,6.58,5.36,11.94,11.94,11.94h55.73c6.29,0,11.44-4.89,11.89-11.06
		c0.02-0.27,0.04-0.54,0.04-0.82c0-0.02,0-0.04,0-0.06V83.6v-1.69C100.05,80.98,99.3,80.22,98.36,80.22z M6.95,16.4H3.33v-4.46
		c0-4.72,3.84-8.56,8.56-8.56c0.6,0,1.19,0.06,1.76,0.18c3.88,0.82,6.8,4.26,6.8,8.37v4.46H6.95z M32.38,96.62
		c-4.72,0-8.56-3.84-8.56-8.56V11.94c0-3.35-1.39-6.39-3.62-8.56h47.41c4.72,0,8.56,3.84,8.56,8.56v76.12
		c0,3.35,1.39,6.39,3.62,8.56H32.38z M96.67,88.06c0,4.11-2.92,7.56-6.79,8.37c-0.57,0.12-1.16,0.19-1.77,0.19
		c-4.72,0-8.56-3.84-8.56-8.56V83.6h3.63h13.48V88.06z"/>
	<circle class="st2" cx="36.51" cy="35.02" r="2.06"/>
	<path class="st2" d="M45.5,32.96c-1.14,0-2.06,0.92-2.06,2.06s0.92,2.06,2.06,2.06c1.14,0,2.06-0.92,2.06-2.06
		S46.64,32.96,45.5,32.96z"/>
	<path class="st2" d="M54.5,32.96c-1.14,0-2.06,0.92-2.06,2.06s0.92,2.06,2.06,2.06c1.14,0,2.06-0.92,2.06-2.06
		S55.63,32.96,54.5,32.96z"/>
	<circle class="st2" cx="63.49" cy="35.02" r="2.06"/>
	<path class="st2" d="M36.51,47.94c-1.14,0-2.06,0.92-2.06,2.06c0,1.14,0.92,2.06,2.06,2.06s2.06-0.92,2.06-2.06
		C38.57,48.86,37.65,47.94,36.51,47.94z"/>
	<path class="st2" d="M45.5,47.94c-1.14,0-2.06,0.92-2.06,2.06c0,1.14,0.92,2.06,2.06,2.06c1.14,0,2.06-0.92,2.06-2.06
		C47.56,48.86,46.64,47.94,45.5,47.94z"/>
	<path class="st2" d="M54.5,47.94c-1.14,0-2.06,0.92-2.06,2.06c0,1.14,0.92,2.06,2.06,2.06c1.14,0,2.06-0.92,2.06-2.06
		C56.56,48.86,55.63,47.94,54.5,47.94z"/>
	<path class="st2" d="M63.49,47.94c-1.14,0-2.06,0.92-2.06,2.06c0,1.14,0.92,2.06,2.06,2.06s2.06-0.92,2.06-2.06
		C65.55,48.86,64.63,47.94,63.49,47.94z"/>
	<path class="st2" d="M36.51,62.92c-1.14,0-2.06,0.92-2.06,2.06c0,1.14,0.92,2.06,2.06,2.06s2.06-0.92,2.06-2.06
		C38.57,63.84,37.65,62.92,36.51,62.92z"/>
	<path class="st2" d="M45.5,62.92c-1.14,0-2.06,0.92-2.06,2.06c0,1.14,0.92,2.06,2.06,2.06c1.14,0,2.06-0.92,2.06-2.06
		C47.56,63.84,46.64,62.92,45.5,62.92z"/>
	<path class="st2" d="M54.5,62.92c-1.14,0-2.06,0.92-2.06,2.06c0,1.14,0.92,2.06,2.06,2.06c1.14,0,2.06-0.92,2.06-2.06
		C56.56,63.84,55.63,62.92,54.5,62.92z"/>
	<path class="st2" d="M63.49,62.92c-1.14,0-2.06,0.92-2.06,2.06c0,1.14,0.92,2.06,2.06,2.06s2.06-0.92,2.06-2.06
		C65.55,63.84,64.63,62.92,63.49,62.92z"/>
</g>
</svg>
