<?xml version="1.0" encoding="utf-8"?>
<!-- Generator: Adobe Illustrator 24.1.0, SVG Export Plug-In . SVG Version: 6.00 Build 0)  -->
<svg version="1.1" id="Layer_1" xmlns="http://www.w3.org/2000/svg" xmlns:xlink="http://www.w3.org/1999/xlink" x="0px" y="0px"
	 viewBox="0 0 100 100" style="enable-background:new 0 0 100 100;" xml:space="preserve">
<style type="text/css">
	.st0{fill:none;}
	.st1{fill:#AE955E;}
	.st2{fill:#231F20;}
	.st3{fill:#010101;}
</style>
<g>
	<path class="st0" d="M50,24.86c2.34,0,4.25-1.91,4.25-4.25v-2.64h-8.49v2.64C45.75,22.96,47.66,24.86,50,24.86z"/>
	<path class="st0" d="M80.06,24.86c2.34,0,4.25-1.91,4.25-4.25v-2.64h-8.49v2.64C75.81,22.96,77.71,24.86,80.06,24.86z"/>
	<path class="st0" d="M19.94,24.86c2.34,0,4.25-1.91,4.25-4.25v-2.64H15.7v2.64C15.7,22.96,17.6,24.86,19.94,24.86z"/>
	<path class="st0" d="M76.89,92.16h15.4c2.47,0,4.49-2.01,4.49-4.48V77.8H76.89V92.16z"/>
	<rect x="51.62" y="59.98" class="st0" width="22.02" height="14.57"/>
	<rect x="51.62" y="42.34" class="st0" width="22.02" height="14.39"/>
	<path class="st0" d="M54.25,12.09c0-2.34-1.9-4.25-4.25-4.25c-2.34,0-4.25,1.91-4.25,4.25v4.25c0,0,0,0.01,0,0.01
		c0,0,0,0.01,0,0.01v1.61h8.49V12.09z"/>
	<path class="st0" d="M24.19,12.09c0-2.34-1.91-4.25-4.25-4.25c-2.34,0-4.25,1.91-4.25,4.25v5.89h8.49V12.09z"/>
	<path class="st0" d="M76.89,56.73h19.89V42.34H76.89V56.73z M80.83,46.82c0.77-0.45,1.77-0.19,2.22,0.58l1.73,2.95l4.93-5.64
		c0.59-0.68,1.62-0.74,2.29-0.15c0.68,0.59,0.74,1.62,0.15,2.29l-6.42,7.34c-0.31,0.35-0.76,0.56-1.22,0.56c-0.05,0-0.1,0-0.15-0.01
		c-0.52-0.05-0.98-0.35-1.25-0.8l-2.87-4.89C79.8,48.27,80.06,47.28,80.83,46.82z"/>
	<rect x="76.89" y="59.98" class="st0" width="19.89" height="14.57"/>
	<rect x="26.36" y="77.8" class="st0" width="22.02" height="14.35"/>
	<rect x="3.22" y="42.34" class="st0" width="19.89" height="14.39"/>
	<rect x="3.22" y="59.98" class="st0" width="19.89" height="14.57"/>
	<rect x="51.62" y="77.8" class="st0" width="22.02" height="14.35"/>
	<rect x="26.36" y="59.98" class="st0" width="22.02" height="14.57"/>
	<rect x="26.36" y="42.34" class="st0" width="22.02" height="14.39"/>
	<path class="st0" d="M3.22,87.67c0,2.47,2.01,4.48,4.49,4.48h15.4V77.8H3.22V87.67z"/>
	<path class="st0" d="M84.3,16.36c0,0,0-0.01,0-0.01c0,0,0-0.01,0-0.01v-4.25c0-2.34-1.91-4.25-4.25-4.25
		c-2.34,0-4.25,1.91-4.25,4.25v5.89h8.49V16.36z"/>
	<polygon class="st0" points="42.5,17.98 42.5,17.98 27.44,17.98 27.44,17.98 42.5,17.98 	"/>
	<polygon class="st0" points="72.56,17.98 72.56,17.98 57.5,17.98 57.5,17.98 72.56,17.98 	"/>
	<path class="st0" d="M92.29,17.98h-4.74v0h2.28L92.29,17.98c2.47,0,4.48,2.01,4.48,4.49v16.63h0V22.46
		C96.78,19.99,94.77,17.98,92.29,17.98z"/>
	<path class="st0" d="M12.45,18.04v-0.07h0H9.88h2.57h0v0H7.71c-2.47,0-4.49,2.01-4.49,4.49v16.63h5.4V22.46
		C8.62,20.22,10.29,18.37,12.45,18.04z"/>
	<path class="st1" d="M92.29,17.98h-2.46h-2.28v2.64c0,4.13-3.36,7.5-7.5,7.5c-4.13,0-7.5-3.36-7.5-7.5v-2.64h0H57.5v2.64
		c0,4.13-3.36,7.5-7.5,7.5c-4.13,0-7.5-3.36-7.5-7.5v-2.64h0H27.44v2.64c0,4.13-3.36,7.5-7.5,7.5c-4.13,0-7.5-3.36-7.5-7.5v-2.57
		c-2.16,0.32-3.82,2.17-3.82,4.42v16.63h16.11c0,0,0,0,0,0c0,0,0,0,0,0c0,0,0,0,0,0c0,0,0,0,0,0h0H50c0,0,0,0,0,0c0,0,0,0,0,0
		c0,0,0,0,0,0c0,0,0,0,0,0h0h25.27c0,0,0,0,0,0c0,0,0,0,0,0c0,0,0,0,0,0c0,0,0,0,0,0h0h21.51V22.46
		C96.78,19.99,94.77,17.98,92.29,17.98z"/>
	<path class="st2" d="M13.11,17.98h-0.66v0.07C12.66,18.01,12.88,17.98,13.11,17.98z"/>
	<path class="st3" d="M92.29,14.73h-4.74v-2.64c0-4.13-3.36-7.5-7.5-7.5c-4.13,0-7.5,3.36-7.5,7.5v2.64H57.5v-2.64
		c0-4.13-3.36-7.5-7.5-7.5c-4.13,0-7.5,3.36-7.5,7.5v2.64H27.44v-2.64c0-4.13-3.36-7.5-7.5-7.5c-4.13,0-7.5,3.36-7.5,7.5v2.64H7.71
		c-4.27,0-7.74,3.47-7.74,7.74v18.25c0,0,0,0,0,0c0,0,0,0,0,0v17.63c0,0,0,0,0,0c0,0,0,0,0,0v17.82c0,0,0,0,0,0c0,0,0,0,0,0v11.49
		c0,4.26,3.47,7.73,7.74,7.73h17.01c0.01,0,0.01,0,0.01,0c0,0,0.01,0,0.01,0h25.24c0.01,0,0.01,0,0.01,0c0,0,0.01,0,0.01,0h25.24
		c0.01,0,0.01,0,0.01,0c0,0,0.01,0,0.01,0h17.01c4.27,0,7.74-3.47,7.74-7.73V22.46C100.03,18.2,96.56,14.73,92.29,14.73z
		 M75.81,12.09c0-2.34,1.91-4.25,4.25-4.25c2.34,0,4.25,1.91,4.25,4.25v4.25c0,0,0,0.01,0,0.01c0,0,0,0.01,0,0.01v1.61v2.64
		c0,2.34-1.91,4.25-4.25,4.25c-2.34,0-4.25-1.91-4.25-4.25v-2.64V12.09z M45.75,16.36c0,0,0-0.01,0-0.01c0,0,0-0.01,0-0.01v-4.25
		c0-2.34,1.91-4.25,4.25-4.25c2.34,0,4.25,1.91,4.25,4.25v5.89v2.64c0,2.34-1.9,4.25-4.25,4.25c-2.34,0-4.25-1.91-4.25-4.25v-2.64
		V16.36z M15.7,12.09c0-2.34,1.91-4.25,4.25-4.25c2.34,0,4.25,1.91,4.25,4.25v5.89v2.64c0,2.34-1.91,4.25-4.25,4.25
		c-2.34,0-4.25-1.91-4.25-4.25v-2.64V12.09z M23.11,92.16H7.71c-2.47,0-4.49-2.01-4.49-4.48V77.8h19.89V92.16z M23.11,74.55H3.22
		V59.98h19.89V74.55z M23.11,56.73H3.22V42.34h19.89V56.73z M48.37,92.16H26.36V77.8h22.02V92.16z M48.37,74.55H26.36V59.98h22.02
		V74.55z M48.37,56.73H26.36V42.34h22.02V56.73z M73.64,92.16H51.62V77.8h22.02V92.16z M73.64,74.55H51.62V59.98h22.02V74.55z
		 M73.64,56.73H51.62V42.34h22.02V56.73z M96.78,87.67c0,2.47-2.01,4.48-4.49,4.48h-15.4V77.8h19.89V87.67z M96.78,74.55H76.89
		V59.98h19.89V74.55z M96.78,56.73H76.89V42.34h19.89V56.73z M96.78,39.09L96.78,39.09H75.27h0c0,0,0,0,0,0c0,0,0,0,0,0c0,0,0,0,0,0
		c0,0,0,0,0,0H50h0c0,0,0,0,0,0c0,0,0,0,0,0c0,0,0,0,0,0c0,0,0,0,0,0H24.73h0c0,0,0,0,0,0c0,0,0,0,0,0c0,0,0,0,0,0c0,0,0,0,0,0H8.62
		h-5.4V22.46c0-2.47,2.01-4.49,4.49-4.49h4.74v0h0.66c-0.23,0-0.45,0.03-0.66,0.07v2.57c0,4.13,3.36,7.5,7.5,7.5
		c4.13,0,7.5-3.36,7.5-7.5v-2.64v0H42.5v0v2.64c0,4.13,3.36,7.5,7.5,7.5c4.13,0,7.5-3.36,7.5-7.5v-2.64v0h15.06v0v2.64
		c0,4.13,3.36,7.5,7.5,7.5c4.13,0,7.5-3.36,7.5-7.5v-2.64v0h4.74c2.47,0,4.49,2.01,4.49,4.49V39.09z"/>
	<path class="st3" d="M83.12,53.94c0.26,0.45,0.73,0.75,1.25,0.8c0.05,0,0.1,0.01,0.15,0.01c0.47,0,0.91-0.2,1.22-0.56l6.42-7.34
		c0.59-0.68,0.52-1.7-0.15-2.29c-0.68-0.59-1.7-0.52-2.29,0.15l-4.93,5.64l-1.73-2.95c-0.45-0.77-1.45-1.03-2.22-0.58
		c-0.77,0.45-1.03,1.45-0.58,2.22L83.12,53.94z"/>
</g>
</svg>
