<svg xmlns="http://www.w3.org/2000/svg" width="21.666" height="19.016" viewBox="0 0 21.666 19.016">
    <defs>
        <clipPath id="clip-path">
            <path fill="none" d="M0 0H21.666V19.016H0z"/>
        </clipPath>
        <style>
        </style>
    </defs>
    <g id="Group_98" transform="translate(-44 -844.984)">
        <path id="heart-2" fill="#b49757" d="M7.794 16.124a.509.509 0 0 0 .726 0l6.522-6.608A4.418 4.418 0 0 0 11.962 2a5.135 5.135 0 0 0-3.8 2.026A5.125 5.125 0 0 0 4.353 2a4.417 4.417 0 0 0-3.08 7.515z" transform="translate(46.677 847.724)"/>
        <g id="heart-shape" transform="translate(44 842.492)">
            <g id="Repeat_Grid_1">
                <path id="Path_421" fill="#010002" d="M1.617 12.3a.243.243 0 0 0 .035.044l8.936 9.073a.335.335 0 0 0 .237.105h.006a.333.333 0 0 0 .233-.094l8.874-9.017s.041-.036.063-.058a.172.172 0 0 0 .036-.043 5.793 5.793 0 1 0-9.205-6.884A5.793 5.793 0 1 0 1.617 12.3zm4.178-9.139a5.114 5.114 0 0 1 4.729 3.151.335.335 0 0 0 .617 0 5.125 5.125 0 1 1 8.383 5.566.282.282 0 0 0-.024.028l-8.657 8.8-8.659-8.774a.309.309 0 0 0-.044-.056 5.122 5.122 0 0 1 3.655-8.715z"/>
            </g>
        </g>
    </g>
</svg>
