<svg id="Layer_1" data-name="Layer 1" xmlns="http://www.w3.org/2000/svg" viewBox="0 0 100 100"><defs><style>.cls-1{fill:none;}.cls-2{fill:#b29656;}.cls-3{fill:#010101;}</style></defs><path class="cls-1" d="M60.81,38.33a9,9,0,0,0,9-9V16.09h-18V29.32A9,9,0,0,0,60.81,38.33Z"/><path class="cls-1" d="M8.56,16.09V29.32a9,9,0,1,0,18,0V16.09Z"/><path class="cls-1" d="M82.43,38.33a9,9,0,0,0,9-9V16.09h-18V29.32A9,9,0,0,0,82.43,38.33Z"/><path class="cls-1" d="M39.19,38.33a9,9,0,0,0,9-9V16.09h-18V29.32A9,9,0,0,0,39.19,38.33Z"/><path class="cls-2" d="M37.62,44.92a1.79,1.79,0,0,1,1.72-1.79H20.13a2,2,0,0,0-2,2V83.65H37.62ZM29.56,62.64a2.85,2.85,0,1,1,2.85-2.85A2.85,2.85,0,0,1,29.56,62.64Z"/><rect class="cls-3" x="50.25" y="52.22" width="12.73" height="3.24" rx="1.62" transform="translate(-21.48 55.8) rotate(-45)"/><rect class="cls-3" x="52.22" y="59.76" width="23.88" height="3.24" rx="1.62" transform="translate(-24.61 63.35) rotate(-45)"/><rect class="cls-3" x="66.43" y="67.31" width="10.56" height="3.24" rx="1.62" transform="translate(-27.73 70.89) rotate(-45)"/><path class="cls-3" d="M93.24,12.49H6.76A1.81,1.81,0,0,0,5,14.29v15a12.6,12.6,0,0,0,23.42,6.46,12.58,12.58,0,0,0,21.62,0,12.58,12.58,0,0,0,21.62,0A12.6,12.6,0,0,0,95,29.32v-15A1.81,1.81,0,0,0,93.24,12.49ZM17.57,38.33a9,9,0,0,1-9-9V16.09h18V29.32A9,9,0,0,1,17.57,38.33Zm21.62,0a9,9,0,0,1-9-9V16.09h18V29.32A9,9,0,0,1,39.19,38.33Zm21.62,0a9,9,0,0,1-9-9V16.09h18V29.32A9,9,0,0,1,60.81,38.33Zm30.63-9a9,9,0,1,1-18,0V16.09h18Z"/><path class="cls-3" d="M41.22,45.09v-.17a1.79,1.79,0,0,0-1.8-1.8h-.08A2,2,0,0,1,41.22,45.09Z"/><path class="cls-3" d="M29.56,56.94a2.85,2.85,0,1,0,2.85,2.85A2.85,2.85,0,0,0,29.56,56.94Z"/><path class="cls-3" d="M98.41,83.91H90.23v-39a1.81,1.81,0,0,0-3.61,0V83.65H41.22V45.09a2,2,0,0,0-1.88-2,1.79,1.79,0,0,0-1.72,1.79V83.65H13.37V44.92a1.8,1.8,0,1,0-3.6,0v39H1.59a1.81,1.81,0,0,0,0,3.6H98.41a1.81,1.81,0,0,0,0-3.6Z"/></svg>