<?xml version="1.0" encoding="utf-8"?>
<!-- Generator: Adobe Illustrator 24.1.0, SVG Export Plug-In . SVG Version: 6.00 Build 0)  -->
<svg version="1.1" id="Layer_1" xmlns="http://www.w3.org/2000/svg" xmlns:xlink="http://www.w3.org/1999/xlink" x="0px" y="0px"
	 viewBox="0 0 100 100" style="enable-background:new 0 0 100 100;" xml:space="preserve">
<style type="text/css">
	.st0{fill:none;}
	.st1{fill:#AE955E;}
	.st2{fill:#010101;}
</style>
<g>
	<path class="st0" d="M14.6,82.2h15.1c0.69,0,1.25-0.56,1.25-1.25v-16c0-0.68-0.57-1.25-1.25-1.25H14.6c-0.68,0-1.25,0.57-1.25,1.25
		v16C13.35,81.64,13.91,82.2,14.6,82.2z"/>
	<path class="st0" d="M59.04,27.18l3.06,0l13.56-13.59c0.34-0.34,0.93-0.55,1.58-0.55c0.19,0,0.37,0.02,0.55,0.06l-1.81-1.82
		c-0.37-0.37-1.03-0.6-1.72-0.6c-0.69,0-1.33,0.22-1.7,0.59L57.59,26.28c-0.11,0.11-0.11,0.18-0.07,0.27
		C57.61,26.78,58.04,27.18,59.04,27.18z"/>
	<path class="st0" d="M65.49,28.36v52.46c0,0.76,0.62,1.38,1.38,1.38h2.22V28.36L65.49,28.36z"/>
	<path class="st0" d="M40.76,82.2h14.83c0.76,0,1.38-0.62,1.38-1.38v-32.2c0-0.76-0.62-1.38-1.38-1.38H40.76
		c-0.76,0-1.38,0.62-1.38,1.38v32.2C39.38,81.58,40,82.2,40.76,82.2z"/>
	<path class="st1" d="M75.66,13.58L62.1,27.17l3.39,0v1.19l3.6,0V82.2H81.7c0.76,0,1.38-0.62,1.38-1.38V27.16h6.44
		c0.84,0,1.33-0.37,1.47-0.56c0.06-0.08,0.08-0.13,0.08-0.14c0,0,0,0,0,0c0,0-0.04-0.11-0.22-0.29L77.79,13.09
		c-0.18-0.03-0.36-0.06-0.55-0.06C76.6,13.03,76,13.24,75.66,13.58z"/>
	<path class="st2" d="M14.6,85.8h15.1c2.67,0,4.84-2.17,4.84-4.84v-16c0-2.67-2.17-4.84-4.84-4.84H14.6c-2.67,0-4.84,2.17-4.84,4.84
		v16C9.76,83.62,11.93,85.8,14.6,85.8z M13.35,64.95c0-0.68,0.57-1.25,1.25-1.25h15.1c0.68,0,1.25,0.57,1.25,1.25v16
		c0,0.69-0.56,1.25-1.25,1.25H14.6c-0.69,0-1.25-0.56-1.25-1.25V64.95z"/>
	<path class="st2" d="M40.76,85.8h14.83c2.74,0,4.98-2.23,4.98-4.97v-32.2c0-2.74-2.23-4.98-4.98-4.98H40.76
		c-2.74,0-4.98,2.23-4.98,4.98v32.2C35.79,83.56,38.02,85.8,40.76,85.8z M39.38,48.62c0-0.76,0.62-1.38,1.38-1.38h14.83
		c0.76,0,1.38,0.62,1.38,1.38v32.2c0,0.76-0.62,1.38-1.38,1.38H40.76c-0.76,0-1.38-0.62-1.38-1.38V48.62z"/>
	<path class="st2" d="M93.39,23.62L78.53,8.73c-1.05-1.05-2.6-1.65-4.26-1.65h0c-1.65,0-3.2,0.6-4.24,1.65L55.04,23.74
		c-1.13,1.13-1.45,2.73-0.85,4.19c0.73,1.76,2.58,2.84,4.85,2.84l2.84,0v50.05c0,2.74,2.23,4.97,4.98,4.97H81.7
		c2.74,0,4.98-2.23,4.98-4.97V30.75h2.84c1.81,0,3.45-0.76,4.38-2.04C95.08,27.08,94.89,25.13,93.39,23.62z M65.49,80.82V28.36
		v-1.19l-3.39,0l-3.06,0c-1,0-1.43-0.39-1.53-0.63c-0.04-0.09-0.04-0.16,0.07-0.27l14.97-15.01c0.37-0.37,1.01-0.59,1.7-0.59
		c0.69,0,1.35,0.23,1.72,0.6l1.81,1.82l13.05,13.07c0.18,0.18,0.22,0.29,0.22,0.29c0,0,0,0,0,0c0,0.02-0.03,0.07-0.08,0.14
		c-0.14,0.19-0.63,0.56-1.47,0.56h-6.44v53.66c0,0.76-0.62,1.38-1.38,1.38H69.08h-2.22C66.11,82.2,65.49,81.58,65.49,80.82z"/>
	<path class="st2" d="M98.2,89.32H1.8c-0.99,0-1.8,0.81-1.8,1.8l0,0c0,0.99,0.81,1.8,1.8,1.8H98.2c0.99,0,1.8-0.81,1.8-1.8v0
		C99.99,90.12,99.19,89.32,98.2,89.32z"/>
</g>
</svg>
