<?xml version="1.0" encoding="utf-8"?>
<!-- Generator: Adobe Illustrator 24.1.0, SVG Export Plug-In . SVG Version: 6.00 Build 0)  -->
<svg version="1.1" id="Layer_1" xmlns="http://www.w3.org/2000/svg" xmlns:xlink="http://www.w3.org/1999/xlink" x="0px" y="0px"
	 viewBox="0 0 100 100" style="enable-background:new 0 0 100 100;" xml:space="preserve">
<style type="text/css">
	.st0{fill:none;}
	.st1{fill:#AE955E;}
	.st2{fill:#010101;}
</style>
<g>
	<path class="st0" d="M57.17,20.22c4.08-7.55,9.1-10.13,13-10.13c0.92,0,1.77,0.14,2.53,0.4c2.22,0.74,3.57,2.37,3.5,4.13
		c0.49-0.71,0.78-1.41,0.88-2.1c0.33-2.24-1.33-4.38-4.14-5.32c-0.91-0.3-1.92-0.47-3.01-0.47c-4.63,0-10.6,3.07-15.46,12.04
		c-0.22,0.4-0.69,2.07-1,3.2c1.11-0.06,2.17-0.13,3.19-0.22C56.85,21.07,57.05,20.43,57.17,20.22z"/>
	<path class="st0" d="M7.19,28.27c-0.95,0-1.88,0.4-2.53,1.1c-0.56,0.6-0.85,1.35-0.8,2.11l0.86,13.36
		c0.12,1.96,1.56,3.44,3.33,3.44h40.14V28.27H7.19z"/>
	<path class="st0" d="M83.39,96.38c1.77,0,3.19-1.47,3.33-3.42l1.69-41.05H51.81v44.47H83.39z"/>
	<path class="st0" d="M23.64,13.99c-0.51-2.97,1.72-5.9,5.3-6.97c0.9-0.27,1.87-0.41,2.91-0.41c2.03,0,4.29,0.57,6.62,1.87
		c-3.95-3.44-7.9-4.85-11.29-4.85c-1.17,0-2.26,0.16-3.28,0.47c-4.04,1.2-6.55,4.5-5.97,7.84c0.63,3.62,4.91,7.45,14.44,9.25
		C26.75,19.4,24.1,16.63,23.64,13.99z"/>
	<path class="st0" d="M91.95,48.28c1.77,0,3.2-1.48,3.33-3.44l0.86-13.36c0.05-0.76-0.24-1.51-0.8-2.11c-0.65-0.7-1.58-1.1-2.53-1.1
		h-41v20.01H91.95z"/>
	<path class="st0" d="M11.61,51.91l2.53,41.03c0.12,1.93,1.58,3.44,3.33,3.44h30.72V51.91H11.61z"/>
	<path class="st1" d="M48.26,22.19c-3.03-6.35-6.41-10.77-9.79-13.71c-2.33-1.3-4.59-1.87-6.62-1.87c-1.04,0-2.01,0.15-2.91,0.41
		c-3.59,1.07-5.82,4-5.3,6.97c0.46,2.64,3.11,5.41,8.74,7.2C36.6,21.99,41.85,22.39,48.26,22.19z"/>
	<path class="st1" d="M72.7,10.49c-0.76-0.26-1.62-0.4-2.53-0.4c-3.89,0-8.91,2.58-13,10.13c-0.11,0.21-0.32,0.85-0.51,1.54
		c11.48-1.02,17.43-4.07,19.54-7.13C76.27,12.87,74.92,11.23,72.7,10.49z"/>
	<path class="st2" d="M97.98,26.89c-1.34-1.42-3.22-2.24-5.17-2.24h-30.6c8.18-1.37,17.39-4.49,18.45-11.59
		c0.59-3.98-2.11-7.8-6.58-9.29C67.98,1.74,58.34,4,51.27,17.06c-0.21,0.39-0.42,0.96-0.66,1.72C46.99,11.75,42.7,6.59,37.82,3.4
		C32.91,0.2,27.6-0.78,22.87,0.63c-5.82,1.73-9.4,6.75-8.51,11.93c0.44,2.57,2.95,9.31,16.67,12.09H7.19
		c-1.95,0-3.84,0.82-5.17,2.24c-1.26,1.34-1.88,3.05-1.77,4.82L1.1,45.07c0.25,3.87,3.19,6.79,6.87,6.83l2.55,41.26
		C10.76,97,13.81,100,17.47,100H50h33.39c3.65,0,6.7-3,6.94-6.83l0-0.04l1.7-41.22c3.67-0.04,6.62-2.96,6.86-6.83l0.86-13.36
		C99.86,29.94,99.24,28.23,97.98,26.89z M48.19,96.38H17.47c-1.75,0-3.21-1.51-3.33-3.44l-2.53-41.03h36.58V96.38z M48.19,48.28
		H8.05c-1.77,0-3.2-1.48-3.33-3.44L3.86,31.48c-0.05-0.76,0.23-1.51,0.8-2.11c0.66-0.7,1.58-1.1,2.53-1.1h41V48.28z M32.38,21.19
		c-9.53-1.8-13.82-5.63-14.44-9.25C17.36,8.6,19.87,5.3,23.9,4.1c1.01-0.3,2.11-0.47,3.28-0.47c3.39,0,7.34,1.41,11.29,4.85
		c3.38,2.94,6.76,7.36,9.79,13.71C41.85,22.39,36.6,21.99,32.38,21.19z M54.46,18.78C59.32,9.81,65.29,6.74,69.92,6.74
		c1.09,0,2.11,0.17,3.01,0.47c2.81,0.94,4.48,3.07,4.14,5.32c-0.1,0.68-0.39,1.39-0.88,2.1c-2.12,3.06-8.06,6.11-19.54,7.13
		c-1.02,0.09-2.08,0.17-3.19,0.22C53.77,20.85,54.24,19.18,54.46,18.78z M86.72,92.95c-0.13,1.95-1.56,3.42-3.33,3.42H51.81V51.91
		h36.59L86.72,92.95z M95.28,44.84c-0.12,1.96-1.56,3.44-3.33,3.44H51.81V28.27h41c0.95,0,1.88,0.4,2.53,1.1
		c0.56,0.6,0.85,1.35,0.8,2.11L95.28,44.84z"/>
</g>
</svg>
