<?xml version="1.0" encoding="utf-8"?>
<!-- Generator: Adobe Illustrator 24.1.0, SVG Export Plug-In . SVG Version: 6.00 Build 0)  -->
<svg version="1.1" id="Layer_1" xmlns="http://www.w3.org/2000/svg" xmlns:xlink="http://www.w3.org/1999/xlink" x="0px" y="0px"
	 viewBox="0 0 100 100" style="enable-background:new 0 0 100 100;" xml:space="preserve">
<style type="text/css">
	.st0{fill:none;}
	.st1{fill:#AE955E;}
	.st2{fill:#010101;}
</style>
<g>
	<rect x="3.1" y="58.53" class="st0" width="39.51" height="11.77"/>
	<rect x="3.1" y="29.99" class="st0" width="39.51" height="6.6"/>
	<path class="st0" d="M9.59,88.27h24.99V79.5c0-0.86,0.69-1.55,1.55-1.55H53.2c0.86,0,1.55,0.69,1.55,1.55v8.77h23.99V73.4H9.59
		V88.27z M62.87,77.95h5.66c0.86,0,1.55,0.69,1.55,1.55s-0.69,1.55-1.55,1.55h-5.66c-0.86,0-1.55-0.69-1.55-1.55
		S62.01,77.95,62.87,77.95z M20.8,77.95h5.66c0.86,0,1.55,0.69,1.55,1.55s-0.69,1.55-1.55,1.55H20.8c-0.86,0-1.55-0.69-1.55-1.55
		S19.94,77.95,20.8,77.95z"/>
	<rect x="37.68" y="81.06" class="st0" width="13.97" height="7.22"/>
	<path class="st1" d="M77.7,7.39c-5.64,0-10.69,2.52-14.11,6.47c-2.83,3.27-4.55,7.52-4.55,12.18c0,10.05,7.96,18.22,17.91,18.62
		c3.37-0.18,6.52-1.17,9.27-2.78c1.1-0.65,2.14-1.4,3.1-2.23c3.96-3.45,6.59-8.39,7.01-13.95C96.15,15.56,87.88,7.39,77.7,7.39z
		 M75.84,12.39c1.04,0,1.89,0.85,1.89,1.89c0,0.51-0.21,0.98-0.54,1.32c-0.34,0.35-0.82,0.57-1.35,0.57c-0.91,0-1.66-0.64-1.85-1.49
		c-0.03-0.13-0.04-0.26-0.04-0.4C73.95,13.24,74.79,12.39,75.84,12.39z M77.73,37.07h-3.78V17.8h3.78V37.07z"/>
	<path class="st0" d="M51.7,24.15c0-2.79,0.48-5.46,1.35-7.95c-2.57,1-5.03,2.31-7.33,3.91V70.3h40.51V45.96
		c-3.14,1.5-6.66,2.34-10.37,2.34C62.53,48.3,51.7,37.47,51.7,24.15z"/>
	<rect x="3.1" y="91.38" class="st0" width="83.12" height="5.52"/>
	<path class="st2" d="M20.8,81.06h5.66c0.86,0,1.55-0.69,1.55-1.55s-0.69-1.55-1.55-1.55H20.8c-0.86,0-1.55,0.69-1.55,1.55
		S19.94,81.06,20.8,81.06z"/>
	<path class="st2" d="M62.87,81.06h5.66c0.86,0,1.55-0.69,1.55-1.55s-0.69-1.55-1.55-1.55h-5.66c-0.86,0-1.55,0.69-1.55,1.55
		S62.01,81.06,62.87,81.06z"/>
	<path class="st2" d="M25.95,43.35l-0.17-0.17c-0.52-0.52-1.36-0.52-1.87,0l-1.33,1.33l-4.84,4.84c-0.52,0.52-0.52,1.36,0,1.87
		l0.17,0.17c0.52,0.52,1.36,0.52,1.87,0l6.17-6.17c0.2-0.2,0.3-0.46,0.35-0.72C26.37,44.1,26.27,43.67,25.95,43.35z"/>
	<path class="st2" d="M33,43.35l-0.17-0.17c-0.52-0.52-1.36-0.52-1.87,0l-1.33,1.33l-4.84,4.84c-0.52,0.52-0.52,1.36,0,1.87
		l0.17,0.17c0.52,0.52,1.36,0.52,1.87,0L33,45.23c0.2-0.2,0.3-0.46,0.35-0.72C33.42,44.1,33.32,43.67,33,43.35z"/>
	<path class="st2" d="M75.85,0c-9.02,0-16.89,4.97-21.04,12.31c-4.11,1.24-8.01,3.16-11.56,5.74c-0.4,0.29-0.64,0.76-0.64,1.26v7.58
		H1.55C0.69,26.88,0,27.58,0,28.44v9.7c0,0.86,0.69,1.55,1.55,1.55h4.93v15.74H1.55C0.69,55.43,0,56.12,0,56.98v14.87
		c0,0.86,0.69,1.55,1.55,1.55h4.93v14.87H1.55C0.69,88.27,0,88.97,0,89.83v8.62C0,99.31,0.69,100,1.55,100h86.22
		c0.86,0,1.55-0.69,1.55-1.55v-8.62c0-0.86-0.69-1.55-1.55-1.55h-5.93V73.4h5.93c0.86,0,1.55-0.69,1.55-1.55V44.18
		C95.76,39.84,100,32.48,100,24.15C100,10.83,89.17,0,75.85,0z M75.85,3.6c11.33,0,20.55,9.22,20.55,20.55
		c0,0.52-0.03,1.04-0.06,1.55c-0.42,5.55-3.04,10.49-7.01,13.95c-0.96,0.84-2,1.59-3.1,2.23c-2.75,1.61-5.9,2.6-9.27,2.78
		c-0.37,0.02-0.73,0.04-1.1,0.04c-11.33,0-20.55-9.22-20.55-20.55c0-3.38,0.82-6.56,2.27-9.37c0.67-1.3,1.47-2.52,2.39-3.64
		C63.73,6.54,69.45,3.6,75.85,3.6z M78.74,73.4v14.87H54.75V79.5c0-0.86-0.69-1.55-1.55-1.55H36.13c-0.86,0-1.55,0.69-1.55,1.55
		v8.77H9.59V73.4H78.74z M51.65,81.06v7.22H37.68v-7.22H51.65z M42.61,55.43h-6.57h-6.8h-3.74h-4.5h-3.74h-4.48h-3.2V39.69h33.02
		V55.43z M3.1,36.59v-6.6h39.51v6.6H3.1z M3.1,70.3V58.53h39.51V70.3H3.1z M86.22,91.38v5.52H3.1v-5.52H86.22z M86.22,70.3H45.72
		V20.1c2.31-1.6,4.76-2.9,7.33-3.91c-0.87,2.49-1.35,5.17-1.35,7.95c0,13.32,10.83,24.15,24.15,24.15c3.71,0,7.23-0.84,10.37-2.34
		V70.3z"/>
	<rect x="73.95" y="17.8" class="st2" width="3.78" height="19.27"/>
	<path class="st2" d="M75.84,12.39c-1.04,0-1.89,0.85-1.89,1.89c0,0.14,0.02,0.27,0.04,0.4c0.18,0.85,0.94,1.49,1.85,1.49
		c0.53,0,1.01-0.22,1.35-0.57c0.33-0.34,0.54-0.8,0.54-1.32C77.73,13.24,76.88,12.39,75.84,12.39z"/>
</g>
</svg>
