<svg xmlns="http://www.w3.org/2000/svg" id="floorplan" width="18.967" height="23.426" viewBox="0 0 18.967 23.426">
    <defs>
        <style>
            .cls-1{fill:#b19455}
        </style>
    </defs>
    <path id="Path_200" d="M34.251 65.369H20.144a1.252 1.252 0 0 1-1.244-1.244v-5.681a1.252 1.252 0 0 1 1.244-1.244h3.38l2.7 3.5 2.512-3.5h5.493a1.252 1.252 0 0 1 1.244 1.244v5.7a1.2 1.2 0 0 1-1.222 1.225z" class="cls-1" transform="translate(-16.834 -43.797)"/>
    <path id="Path_201" fill="#1a161a" d="M27.541 13.057h-5.024a25.93 25.93 0 0 0 1.69-3.474 11.144 11.144 0 0 0 .822-3.85 6.118 6.118 0 0 0-.681-2.958 4.653 4.653 0 0 0-1.6-1.714A6.118 6.118 0 0 0 19.583.1a6.2 6.2 0 0 0-3.192.728c-1.526.915-2.277 2.629-2.277 5.094a11.976 11.976 0 0 0 .822 4.155 21.223 21.223 0 0 0 1.432 2.958h-4.719a1.548 1.548 0 0 0-1.549 1.548v7.394a1.548 1.548 0 0 0 1.549 1.549h15.868a1.548 1.548 0 0 0 1.549-1.549v-7.371a1.528 1.528 0 0 0-1.525-1.549zm1.033 1.549v4.765H24.7v-5.8h2.817a1.047 1.047 0 0 1 1.056 1.035zM15.428 9.912a11.051 11.051 0 0 1-.8-3.967c0-2.277.681-3.85 2.042-4.648a5.939 5.939 0 0 1 5.821.211 4.762 4.762 0 0 1 2.019 4.249c0 1.9-.892 4.389-2.559 7.23a38.086 38.086 0 0 1-2.394 3.568 24.06 24.06 0 0 1-2.371-3.145c-.07-.094-.117-.211-.188-.305v-.023h-.023a19.642 19.642 0 0 1-1.547-3.17zm1.338 3.756a24.684 24.684 0 0 0 2.652 3.451l.211.211.188-.235a35.6 35.6 0 0 0 2.418-3.521h1.972v5.821h-9.365v-5.821h1.878a.178.178 0 0 0 .046.093zm7.418 6.244v3.145h-9.342v-3.146zm-12.535-6.338H14.3v5.821h-3.684v-4.789a1.042 1.042 0 0 1 1.033-1.032zM10.616 22v-2.112h3.709v3.145h-2.676A1.012 1.012 0 0 1 10.616 22zm16.924 1.056h-2.816v-3.145H28.6v2.113a1.079 1.079 0 0 1-1.059 1.033z" transform="translate(-10.1 -.1)"/>
    <circle id="Ellipse_4" cx="2.746" cy="2.746" r="2.746" class="cls-1" transform="translate(6.666 3.427)"/>
</svg>
