<svg xmlns="http://www.w3.org/2000/svg" id="History-01" width="19.76" height="20" viewBox="0 0 19.76 20">
    <defs>
        <style>
            .cls-2{fill:#010101}
        </style>
    </defs>
    <path id="Path_421" fill="#b29656" d="M23.192 16.49a6.7 6.7 0 1 0 6.7 6.7 6.7 6.7 0 0 0-6.7-6.7zm.912 7.638v.006a.479.479 0 0 1-.138.344l-3.2 3.2a.477.477 0 0 1-.674-.678l3.06-3.06v-5.86a.476.476 0 1 1 .952 0z" transform="translate(-13.312 -13.192)"/>
    <path id="Path_422" d="M1.633 6.976l2.762-1.29c.526-.246.066-1.024-.458-.778l-1.516.708a9.211 9.211 0 0 1 6.367-4.588A9.077 9.077 0 0 1 19.454 9.96a.452.452 0 0 0 .9.006A9.981 9.981 0 0 0 8.462.172a10.011 10.011 0 0 0-6.781 4.916c-.06-.508-.118-1.018-.181-1.526a.462.462 0 0 0-.448-.454.451.451 0 0 0-.452.448q.178 1.515.353 3.028a.459.459 0 0 0 .68.392z" class="cls-2" transform="translate(-.598 .002)"/>
    <path id="Path_423" d="M19.325 51.416l-2.762 1.29c-.526.246-.066 1.024.458.778l1.516-.708a9.212 9.212 0 0 1-6.366 4.588A9.078 9.078 0 0 1 1.5 48.432a.452.452 0 0 0-.9-.006 9.978 9.978 0 0 0 11.9 9.794 10.005 10.005 0 0 0 6.777-4.92l.178 1.526a.462.462 0 0 0 .448.454.451.451 0 0 0 .454-.448l-.352-3.028a.459.459 0 0 0-.68-.388z" class="cls-2" transform="translate(-.6 -38.394)"/>
    <path id="Path_424" d="M37.478 22.07a.476.476 0 0 0-.476.476v5.86l-3.06 3.06a.477.477 0 1 0 .674.674l3.2-3.2a.475.475 0 0 0 .138-.344v-6.05a.475.475 0 0 0-.476-.476z" class="cls-2" transform="translate(-27.162 -17.656)"/>
</svg>
