<?xml version="1.0" encoding="utf-8"?>
<!-- Generator: Adobe Illustrator 25.4.1, SVG Export Plug-In . SVG Version: 6.00 Build 0)  -->
<svg version="1.1" id="Layer_1" xmlns="http://www.w3.org/2000/svg" xmlns:xlink="http://www.w3.org/1999/xlink" x="0px" y="0px"
	 viewBox="0 0 100 100" style="enable-background:new 0 0 100 100;" xml:space="preserve">
<style type="text/css">
	.st0{fill:none;}
	.st1{fill:#AE955E;}
	.st2{fill:none;stroke:#000000;stroke-width:3.1942;stroke-linecap:round;stroke-miterlimit:10;}
</style>
<g>
	<g>
		<path class="st0" d="M64.86,87.66H18.99H9.89c0.79,4.56,4.77,8.04,9.55,8.04H69.1C66.82,93.67,65.27,90.84,64.86,87.66z"/>
		<polygon class="st0" points="71.12,9.65 68.6,7.12 68.6,23.62 85.1,23.62 		"/>
		<path d="M87.43,86.01c0,5.34-4.35,9.69-9.69,9.69c-5.34,0-9.69-4.35-9.69-9.69c0-0.91-0.74-1.65-1.65-1.65H20.64V4.79H65.3v20.48
			c0,0.91,0.74,1.65,1.65,1.65h20.48v54.63c1.15,0.51,2.26-2.48,3.3-1.79V25.27c0-0.01,0-0.02,0-0.03c0-0.2-0.04-0.39-0.11-0.57
			c-0.01-0.02-0.02-0.05-0.03-0.07c-0.03-0.07-0.06-0.13-0.1-0.2c-0.01-0.02-0.03-0.05-0.04-0.07c-0.06-0.08-0.12-0.16-0.19-0.23
			L68.12,1.98c-0.07-0.07-0.15-0.13-0.23-0.19c-0.02-0.02-0.05-0.03-0.07-0.04c-0.06-0.04-0.13-0.07-0.19-0.1
			c-0.02-0.01-0.05-0.02-0.08-0.03c-0.09-0.04-0.18-0.06-0.28-0.08c0,0,0,0,0,0c-0.09-0.02-0.19-0.03-0.29-0.03
			c-0.01,0-0.02,0-0.03,0H18.99c-0.91,0-1.65,0.74-1.65,1.65v81.22H8.48c-0.06,0-0.13,0-0.19,0.01c-0.06-0.01-0.12-0.01-0.19-0.01
			c-0.91,0-1.65,0.74-1.65,1.65C6.45,93.17,12.28,99,19.44,99h58.3c7.16,0,12.99-5.83,12.99-12.99v-6.26
			c-0.49-1.07-1.66,0.89-3.3,1.79V86.01z M68.6,7.12l2.52,2.52L85.1,23.62H68.6V7.12z M19.44,95.7c-4.78,0-8.76-3.48-9.55-8.04h9.09
			h45.87c0.41,3.18,1.96,6,4.24,8.04H19.44z"/>
	</g>
	<g>
		<circle class="st1" cx="53.15" cy="53" r="14.24"/>
		<g id="XMLID_00000172403402972840342470000017134472254393170309_">
			
				<ellipse id="XMLID_00000180342465835877749280000015802501558722687884_" transform="matrix(0.228 -0.9737 0.9737 0.228 -10.8944 88.3147)" class="st2" cx="50.25" cy="51.03" rx="16.71" ry="16.71"/>
			
				<line id="XMLID_00000157292974912421366630000000247142346969067956_" class="st2" x1="63.51" y1="61.04" x2="76.85" y2="69.99"/>
		</g>
	</g>
</g>
</svg>
