<svg xmlns="http://www.w3.org/2000/svg" width="25.078" height="25.039" viewBox="0 0 25.078 25.039">
    <defs>
        <style>
            .cls-1{fill:#ae955e}
        </style>
    </defs>
    <g id="star" transform="translate(-.85 -.5)">
        <g id="Group_95" transform="translate(3.878 2.396)">
            <path id="Path_601" d="M57.28 85.061l-.48.253 4.247 2.351a1.121 1.121 0 0 0 1.441-.3l-4.146-2.275a.955.955 0 0 0-1.062-.029z" class="cls-1" transform="translate(-45.684 -65.468)"/>
            <path id="Path_602" d="M82.421 31.908a2.225 2.225 0 0 0-.379-.126L78.3 31.2a1.118 1.118 0 0 0 .379.126z" class="cls-1" transform="translate(-61.748 -25.335)"/>
            <path id="Path_603" d="M29.91 28.907l-1.087-6.623a1.216 1.216 0 0 1 .329-1.087l4.6-4.677a1.254 1.254 0 0 0-.253-1.947l-3.767-.581a2.225 2.225 0 0 1-.379-.126l-2.6-.4a1.18 1.18 0 0 1-.885-.657L23.59 8l-2.528 5.334a1.18 1.18 0 0 1-.885.657l-6.345.961a1.234 1.234 0 0 0-.657 2.073l4.6 4.677a1.216 1.216 0 0 1 .329 1.087l-1.087 6.623v.051l4.4-2.427a1.179 1.179 0 0 1 1.087 0l1.416.784.48-.253a1.179 1.179 0 0 1 1.087 0l4.146 2.275a1.08 1.08 0 0 0 .277-.935z" class="cls-1" transform="translate(-12.827 -8)"/>
        </g>
        <path id="Path_604" d="M6.626 25.527a1.585 1.585 0 0 1-1.542-1.9l1.087-6.623a.864.864 0 0 0-.228-.733L1.318 11.6a1.667 1.667 0 0 1-.38-1.7A1.63 1.63 0 0 1 2.2 8.817l6.345-.961a.777.777 0 0 0 .581-.43l2.86-6.016A1.583 1.583 0 0 1 13.4.5a1.583 1.583 0 0 1 1.416.91l2.831 6.017a.737.737 0 0 0 .581.43l6.345.961A1.63 1.63 0 0 1 25.839 9.9a1.667 1.667 0 0 1-.379 1.7l-4.626 4.7a.84.84 0 0 0-.228.733l1.112 6.6a1.67 1.67 0 0 1-.657 1.618 1.5 1.5 0 0 1-1.618.1l-5.713-3.135a.661.661 0 0 0-.683 0L7.36 25.351a1.565 1.565 0 0 1-.734.176zm6.75-24.219a.742.742 0 0 0-.683.455L9.862 7.781a1.542 1.542 0 0 1-1.188.885l-6.345.986a.807.807 0 0 0-.607.531.875.875 0 0 0 .177.86l4.6 4.677a1.73 1.73 0 0 1 .455 1.416l-1.086 6.622a.779.779 0 0 0 .329.809.68.68 0 0 0 .758.051l5.688-3.135a1.512 1.512 0 0 1 1.466 0l5.713 3.16a.68.68 0 0 0 .758-.051.8.8 0 0 0 .329-.809l-1.086-6.623a1.6 1.6 0 0 1 .455-1.416l4.6-4.677a.893.893 0 0 0 .2-.86.807.807 0 0 0-.607-.531l-6.345-.961a1.583 1.583 0 0 1-1.188-.885l-2.879-6.066a.742.742 0 0 0-.683-.455z"/>
    </g>
</svg>
