<?xml version="1.0" encoding="utf-8"?>
<!-- Generator: Adobe Illustrator 24.1.0, SVG Export Plug-In . SVG Version: 6.00 Build 0)  -->
<svg version="1.1" id="Layer_1" xmlns="http://www.w3.org/2000/svg" xmlns:xlink="http://www.w3.org/1999/xlink" x="0px" y="0px"
	 viewBox="0 0 100 100" style="enable-background:new 0 0 100 100;" xml:space="preserve">
<style type="text/css">
	.st0{fill:none;}
	.st1{fill:#AE955E;}
	.st2{fill:#010101;}
</style>
<g>
	<path class="st0" d="M96.47,49.25c0.01,0.32,0.01,0.64,0.01,0.96C96.48,49.89,96.48,49.57,96.47,49.25z"/>
	<path class="st0" d="M21.54,81.05c0.57-0.17,1.16-0.27,1.75-0.3c1.29-0.07,2.59,0.18,3.76,0.73c6.98,3.3,14.77,4.81,22.53,4.37
		c12.4-0.71,23.79-6.2,32.06-15.47c9.61-10.77,13.28-24.8,11.24-38.06c2.19,5.23,3.38,10.79,3.57,16.37
		c-0.32-11.47-4.84-22.85-13.57-31.58C74.1,8.32,62.41,3.48,49.99,3.48c-12.43,0-24.11,4.84-32.9,13.63
		C2.6,31.59-0.68,54.26,9.11,72.24c0.91,1.67,1.18,3.62,0.75,5.48L6.09,93.9l0.08-0.02l2.07-8.92L21.54,81.05z M50.39,78.6
		c-1.44,0-2.61-1.17-2.61-2.61c0-1.44,1.17-2.61,2.61-2.61c1.44,0,2.61,1.17,2.61,2.61C52.99,77.43,51.83,78.6,50.39,78.6z
		 M50,14.67c10.72,0,19.44,8.72,19.44,19.44c0,10.14-7.8,18.48-17.71,19.37V67.2h-3.48V50.08H50c8.8,0,15.97-7.16,15.97-15.97
		c0-8.8-7.16-15.97-15.97-15.97s-15.97,7.16-15.97,15.97h-3.48C30.56,23.39,39.28,14.67,50,14.67z"/>
	<path class="st1" d="M24.03,89.93c1.29,0,2.58,0.33,3.72,0.95c6.78,3.69,14.47,5.64,22.25,5.64c12.42,0,24.1-4.84,32.89-13.62
		c9.02-9.02,13.55-20.85,13.6-32.69c0-0.32-0.01-0.64-0.01-0.96c0-0.19-0.01-0.38-0.01-0.56c-0.2-5.58-1.38-11.13-3.57-16.37
		c2.03,13.26-1.64,27.29-11.24,38.06c-8.27,9.27-19.65,14.77-32.06,15.47c-7.76,0.44-15.55-1.07-22.53-4.37
		c-1.17-0.55-2.47-0.81-3.76-0.73c-0.59,0.03-1.18,0.14-1.75,0.3l-13.29,3.9l-2.07,8.92l16.1-3.74C22.85,90,23.44,89.93,24.03,89.93
		z"/>
	<path class="st2" d="M96.46,48.69c0.01,0.19,0.01,0.38,0.01,0.56C96.47,49.06,96.46,48.88,96.46,48.69z"/>
	<path d="M85.34,14.64C75.9,5.2,63.34,0,49.99,0C36.63,0,24.08,5.2,14.63,14.65C-0.94,30.21-4.47,54.58,6.05,73.9
		c0.5,0.92,0.65,2,0.41,3.03L1.44,98.55l21.62-5.03c1.02-0.24,2.11-0.09,3.03,0.41c7.29,3.97,15.55,6.07,23.9,6.07H50
		c13.35,0,25.91-5.2,35.35-14.64C104.84,65.86,104.84,34.14,85.34,14.64z M9.85,77.71c0.43-1.86,0.17-3.8-0.75-5.48
		C-0.68,54.26,2.6,31.59,17.09,17.1c8.79-8.79,20.47-13.63,32.9-13.63c12.43,0,24.11,4.84,32.9,13.63
		c8.74,8.74,13.25,20.11,13.57,31.58c0.01,0.19,0.01,0.38,0.01,0.56c0.01,0.32,0.01,0.64,0.01,0.96
		c-0.05,11.84-4.58,23.67-13.6,32.69C74.1,91.68,62.42,96.52,50,96.52c-7.77,0-15.47-1.95-22.25-5.64
		c-1.14-0.62-2.42-0.95-3.72-0.95c-0.59,0-1.18,0.07-1.76,0.2l-16.1,3.74L6.09,93.9L9.85,77.71z"/>
	<path d="M50,18.14c8.8,0,15.97,7.16,15.97,15.97c0,8.8-7.16,15.97-15.97,15.97h-1.74V67.2h3.48V53.48
		c9.91-0.88,17.71-9.23,17.71-19.37c0-10.72-8.72-19.44-19.44-19.44s-19.44,8.72-19.44,19.44h3.48C34.03,25.31,41.2,18.14,50,18.14z
		"/>
	<path d="M50.39,73.38c-1.44,0-2.61,1.17-2.61,2.61c0,1.44,1.17,2.61,2.61,2.61c1.44,0,2.61-1.17,2.61-2.61
		C52.99,74.55,51.83,73.38,50.39,73.38z"/>
</g>
</svg>
