<?xml version="1.0" encoding="utf-8"?>
<!-- Generator: Adobe Illustrator 24.1.0, SVG Export Plug-In . SVG Version: 6.00 Build 0)  -->
<svg version="1.1" id="Layer_1" xmlns="http://www.w3.org/2000/svg" xmlns:xlink="http://www.w3.org/1999/xlink" x="0px" y="0px"
	 viewBox="0 0 100 100" style="enable-background:new 0 0 100 100;" xml:space="preserve">
<style type="text/css">
	.st0{fill:none;}
	.st1{fill:#AE955E;}
	.st2{fill:#010101;}
</style>
<g>
	<path class="st0" d="M96.44,52.08c-0.01,0.19-0.02,0.37-0.03,0.56C96.42,52.46,96.43,52.27,96.44,52.08z"/>
	<path class="st0" d="M96.3,54.14c-0.02,0.21-0.04,0.42-0.06,0.63C96.26,54.56,96.28,54.35,96.3,54.14z"/>
	<path class="st0" d="M96.48,49.54c0,0.2,0.01,0.39,0.01,0.59C96.49,49.93,96.48,49.74,96.48,49.54z"/>
	<path class="st0" d="M96.05,56.37c-0.02,0.14-0.03,0.27-0.05,0.41C96.01,56.65,96.03,56.51,96.05,56.37z"/>
	<path class="st0" d="M95.65,58.82c-0.02,0.1-0.04,0.2-0.06,0.3C95.61,59.02,95.63,58.92,95.65,58.82z"/>
	<path class="st0" d="M94.63,63.05c-0.03,0.09-0.05,0.19-0.08,0.28C94.58,63.24,94.6,63.14,94.63,63.05z"/>
	<path class="st0" d="M95.21,60.85c-0.04,0.16-0.08,0.32-0.12,0.48C95.13,61.17,95.17,61.01,95.21,60.85z"/>
	<path class="st0" d="M96.4,47.34c0.02,0.27,0.03,0.53,0.04,0.8C96.43,47.87,96.42,47.6,96.4,47.34z"/>
	<path class="st0" d="M95.53,40.59c0.06,0.3,0.12,0.61,0.18,0.91C95.65,41.2,95.59,40.9,95.53,40.59z"/>
	<path class="st0" d="M93.67,34.04c0.12,0.32,0.23,0.64,0.34,0.96C93.9,34.68,93.79,34.36,93.67,34.04z"/>
	<path class="st0" d="M92.94,32.16c0.13,0.31,0.25,0.63,0.38,0.95C93.2,32.79,93.07,32.47,92.94,32.16z"/>
	<path class="st0" d="M94.34,36.03c0.14,0.43,0.27,0.87,0.39,1.31C94.61,36.9,94.48,36.46,94.34,36.03z"/>
	<path class="st0" d="M84.65,81.02c-0.06,0.07-0.13,0.15-0.19,0.22C84.52,81.17,84.59,81.1,84.65,81.02z"/>
	<path class="st0" d="M95.08,38.62c0.08,0.3,0.15,0.61,0.22,0.92C95.23,39.23,95.16,38.93,95.08,38.62z"/>
	<path class="st0" d="M95.91,42.7c0.04,0.25,0.09,0.51,0.12,0.76C95.99,43.21,95.95,42.96,95.91,42.7z"/>
	<path class="st0" d="M93.15,67.36c-0.05,0.12-0.09,0.23-0.14,0.35C93.05,67.59,93.1,67.47,93.15,67.36z"/>
	<path class="st0" d="M96.25,45.31c0.03,0.26,0.05,0.52,0.07,0.78C96.29,45.83,96.27,45.57,96.25,45.31z"/>
	<path class="st0" d="M93.89,65.39c0,0.01-0.01,0.03-0.01,0.04C93.88,65.42,93.88,65.4,93.89,65.39z"/>
	<path class="st0" d="M21.54,80.74c0.57-0.17,1.16-0.27,1.75-0.3c1.29-0.07,2.59,0.18,3.76,0.73c6.98,3.3,14.77,4.81,22.53,4.37
		c12.4-0.71,23.79-6.2,32.06-15.47c9.6-10.76,13.27-24.79,11.25-38.04c-2.27-5.43-5.59-10.51-10-14.92
		C74.1,8.32,62.41,3.48,49.99,3.48c-12.43,0-24.11,4.84-32.9,13.63C2.6,31.59-0.68,54.26,9.11,72.24c0.91,1.67,1.18,3.62,0.75,5.48
		L6.09,93.9l0.01,0l2.15-9.25L21.54,80.74z M48.26,50.01V12.86h3.48v37.15V65.4h-3.48V50.01z M50.39,71.58
		c1.44,0,2.61,1.17,2.61,2.61c0,1.44-1.17,2.61-2.61,2.61c-1.44,0-2.61-1.17-2.61-2.61C47.78,72.74,48.94,71.58,50.39,71.58z"/>
	<path class="st0" d="M90.12,73.53c-0.05,0.09-0.11,0.18-0.16,0.27C90.02,73.71,90.07,73.62,90.12,73.53z"/>
	<path class="st0" d="M85.95,79.51c0.06-0.08,0.13-0.16,0.19-0.24C86.08,79.35,86.02,79.43,85.95,79.51z"/>
	<path class="st0" d="M88.92,75.48c-0.04,0.06-0.08,0.13-0.12,0.19C88.83,75.61,88.87,75.54,88.92,75.48z"/>
	<path class="st0" d="M24.04,89.93C24.04,89.93,24.04,89.93,24.04,89.93c1.29,0,2.57,0.33,3.71,0.95
		c6.78,3.69,14.47,5.64,22.24,5.64c0,0,0,0,0,0c-7.77,0-15.46-1.95-22.24-5.64C26.62,90.26,25.33,89.93,24.04,89.93z"/>
	<path class="st0" d="M92.24,69.46c-0.03,0.07-0.06,0.13-0.09,0.2C92.18,69.59,92.21,69.53,92.24,69.46z"/>
	<path class="st1" d="M88.79,75.67c0.04-0.06,0.08-0.13,0.12-0.19c0.36-0.55,0.71-1.11,1.05-1.68c0.05-0.09,0.11-0.18,0.16-0.27
		c0.74-1.27,1.42-2.56,2.03-3.88c0.03-0.07,0.06-0.13,0.09-0.2c0.27-0.58,0.52-1.17,0.76-1.76c0.05-0.12,0.09-0.23,0.14-0.35
		c0.26-0.64,0.5-1.28,0.73-1.93c0-0.01,0.01-0.03,0.01-0.04c0.24-0.68,0.46-1.37,0.66-2.06c0.03-0.09,0.05-0.19,0.08-0.28
		c0.17-0.57,0.32-1.15,0.46-1.72c0.04-0.16,0.08-0.32,0.12-0.48c0.14-0.58,0.26-1.15,0.38-1.73c0.02-0.1,0.04-0.2,0.06-0.3
		c0.13-0.68,0.24-1.36,0.34-2.04c0.02-0.14,0.04-0.27,0.05-0.41c0.07-0.53,0.14-1.07,0.19-1.6c0.02-0.21,0.04-0.42,0.06-0.63
		c0.04-0.5,0.08-1,0.11-1.49c0.01-0.19,0.02-0.37,0.03-0.56c0.03-0.65,0.04-1.3,0.05-1.95c0-0.2-0.01-0.39-0.01-0.59
		c0-0.47-0.01-0.94-0.03-1.41c-0.01-0.27-0.02-0.53-0.04-0.8c-0.02-0.42-0.05-0.83-0.09-1.25c-0.02-0.26-0.04-0.52-0.07-0.78
		c-0.06-0.62-0.13-1.23-0.22-1.84c-0.04-0.25-0.08-0.51-0.12-0.76c-0.06-0.4-0.13-0.8-0.2-1.2c-0.06-0.31-0.12-0.61-0.18-0.91
		c-0.07-0.35-0.15-0.7-0.23-1.05c-0.07-0.31-0.14-0.61-0.22-0.92c-0.11-0.43-0.23-0.86-0.35-1.29c-0.12-0.44-0.25-0.87-0.39-1.31
		c-0.11-0.35-0.22-0.69-0.33-1.04c-0.11-0.32-0.22-0.64-0.34-0.96c-0.11-0.31-0.23-0.62-0.35-0.93c-0.12-0.32-0.25-0.63-0.38-0.95
		c-0.02-0.04-0.04-0.09-0.06-0.13c2.03,13.25-1.65,27.28-11.25,38.04c-8.27,9.27-19.65,14.77-32.06,15.47
		c-7.76,0.44-15.55-1.07-22.53-4.37c-1.17-0.55-2.47-0.81-3.76-0.73c-0.59,0.03-1.18,0.14-1.75,0.3l-13.29,3.9L6.1,93.9l16.18-3.76
		c0.58-0.13,1.17-0.2,1.76-0.2c0,0,0,0,0,0c0,0,0,0,0,0c1.29,0,2.58,0.33,3.72,0.95c6.78,3.69,14.47,5.64,22.24,5.64
		c12.42,0,24.1-4.84,32.88-13.62c0.54-0.54,1.07-1.09,1.57-1.66c0.07-0.07,0.13-0.15,0.19-0.22c0.45-0.5,0.88-1,1.3-1.51
		c0.06-0.08,0.13-0.16,0.19-0.24C87.09,78.11,87.98,76.9,88.79,75.67z"/>
	<path d="M85.34,14.64C75.9,5.2,63.34,0,49.99,0C36.63,0,24.08,5.2,14.63,14.65C-0.94,30.21-4.47,54.58,6.05,73.9
		c0.5,0.92,0.65,2,0.41,3.03L1.44,98.55l21.62-5.03c1.02-0.24,2.11-0.09,3.03,0.41c7.29,3.97,15.55,6.07,23.9,6.07h0
		c13.35,0,25.91-5.2,35.35-14.64C104.84,65.86,104.84,34.14,85.34,14.64z M84.65,81.02c-0.06,0.07-0.13,0.15-0.19,0.22
		c-0.51,0.56-1.03,1.12-1.57,1.66C74.11,91.68,62.43,96.52,50,96.52c0,0,0,0,0,0c0,0,0,0,0,0c-7.77,0-15.47-1.95-22.24-5.64
		c-1.14-0.62-2.42-0.95-3.71-0.95c-0.59,0-1.18,0.07-1.76,0.2L6.1,93.9l0,0l-0.01,0l3.76-16.18c0.43-1.86,0.17-3.8-0.75-5.48
		C-0.68,54.26,2.6,31.59,17.09,17.1c8.79-8.79,20.47-13.63,32.9-13.63c12.43,0,24.11,4.84,32.9,13.63c4.41,4.41,7.74,9.49,10,14.92
		c0-0.01,0-0.01,0-0.02c0.02,0.05,0.04,0.1,0.06,0.15c0.13,0.31,0.25,0.63,0.38,0.95c0.12,0.31,0.24,0.62,0.35,0.93
		c0.12,0.32,0.23,0.64,0.34,0.96c0.12,0.34,0.22,0.69,0.33,1.04c0.14,0.43,0.27,0.87,0.39,1.31c0.12,0.43,0.24,0.86,0.35,1.29
		c0.08,0.3,0.15,0.61,0.22,0.92c0.08,0.35,0.16,0.7,0.23,1.05c0.06,0.3,0.12,0.61,0.18,0.91c0.07,0.4,0.14,0.8,0.2,1.2
		c0.04,0.25,0.09,0.51,0.12,0.76c0.09,0.61,0.16,1.23,0.22,1.84c0.03,0.26,0.05,0.52,0.07,0.78c0.03,0.42,0.07,0.83,0.09,1.25
		c0.02,0.27,0.03,0.53,0.04,0.8c0.02,0.47,0.03,0.94,0.03,1.41c0,0.2,0.01,0.39,0.01,0.59c0,0.65-0.02,1.3-0.05,1.95
		c-0.01,0.19-0.02,0.37-0.03,0.56c-0.03,0.5-0.06,1-0.11,1.49c-0.02,0.21-0.04,0.42-0.06,0.63c-0.05,0.54-0.12,1.07-0.19,1.6
		c-0.02,0.14-0.03,0.27-0.05,0.41c-0.1,0.68-0.21,1.36-0.34,2.04c-0.02,0.1-0.04,0.2-0.06,0.3c-0.11,0.58-0.24,1.16-0.38,1.73
		c-0.04,0.16-0.08,0.32-0.12,0.48c-0.14,0.58-0.3,1.15-0.46,1.72c-0.03,0.09-0.05,0.19-0.08,0.28c-0.21,0.69-0.43,1.38-0.66,2.06
		c0,0.01-0.01,0.03-0.01,0.04c-0.23,0.65-0.47,1.29-0.73,1.93c-0.05,0.12-0.09,0.23-0.14,0.35c-0.24,0.59-0.49,1.18-0.76,1.76
		c-0.03,0.07-0.06,0.13-0.09,0.2c-0.61,1.32-1.29,2.61-2.03,3.88c-0.05,0.09-0.11,0.18-0.16,0.27c-0.34,0.57-0.69,1.12-1.05,1.68
		c-0.04,0.06-0.08,0.13-0.12,0.19c-0.82,1.23-1.7,2.44-2.65,3.6c-0.06,0.08-0.13,0.16-0.19,0.24C85.53,80.02,85.1,80.53,84.65,81.02
		z"/>
	<path class="st2" d="M96.03,43.46c0.09,0.61,0.16,1.23,0.22,1.84C96.19,44.69,96.11,44.08,96.03,43.46z"/>
	<path class="st2" d="M95.3,39.54c0.08,0.35,0.16,0.7,0.23,1.05C95.45,40.24,95.38,39.89,95.3,39.54z"/>
	<path class="st2" d="M50,96.52C50,96.52,50,96.52,50,96.52c12.43,0,24.11-4.84,32.89-13.62c0.54-0.54,1.06-1.1,1.57-1.66
		c-0.51,0.56-1.03,1.11-1.57,1.66C74.1,91.68,62.42,96.52,50,96.52z"/>
	<path class="st2" d="M95.71,41.51c0.07,0.4,0.14,0.8,0.2,1.2C95.84,42.3,95.78,41.91,95.71,41.51z"/>
	<path class="st2" d="M22.27,90.13L6.1,93.9l0,0L22.27,90.13c0.58-0.13,1.17-0.2,1.76-0.2c0,0,0,0,0,0
		C23.44,89.93,22.85,90,22.27,90.13z"/>
	<path class="st2" d="M92.88,32.01c0,0.01,0,0.01,0,0.02c0.02,0.04,0.04,0.09,0.06,0.13C92.92,32.11,92.91,32.06,92.88,32.01z"/>
	<path class="st2" d="M94.73,37.34c0.12,0.43,0.24,0.86,0.35,1.29C94.97,38.19,94.85,37.76,94.73,37.34z"/>
	<path class="st2" d="M85.95,79.51c-0.42,0.51-0.85,1.02-1.3,1.51C85.1,80.53,85.53,80.02,85.95,79.51z"/>
	<path class="st2" d="M94.01,35c0.12,0.34,0.22,0.69,0.33,1.04C94.24,35.68,94.13,35.34,94.01,35z"/>
	<path class="st2" d="M93.32,33.1c0.12,0.31,0.24,0.62,0.35,0.93C93.56,33.73,93.44,33.41,93.32,33.1z"/>
	<path class="st2" d="M94.55,63.33c-0.21,0.69-0.43,1.38-0.66,2.06C94.12,64.71,94.35,64.02,94.55,63.33z"/>
	<path class="st2" d="M92.15,69.66c-0.61,1.32-1.29,2.61-2.03,3.88C90.86,72.27,91.54,70.98,92.15,69.66z"/>
	<path class="st2" d="M95.59,59.12c-0.11,0.58-0.24,1.16-0.38,1.73C95.35,60.28,95.47,59.7,95.59,59.12z"/>
	<path class="st2" d="M95.99,56.78c-0.1,0.68-0.21,1.36-0.34,2.04C95.78,58.14,95.89,57.46,95.99,56.78z"/>
	<path class="st2" d="M93.87,65.43c-0.23,0.65-0.47,1.29-0.73,1.93C93.4,66.72,93.65,66.08,93.87,65.43z"/>
	<path class="st2" d="M93.01,67.7c-0.24,0.59-0.49,1.18-0.76,1.76C92.51,68.88,92.76,68.29,93.01,67.7z"/>
	<path class="st2" d="M95.09,61.33c-0.14,0.58-0.3,1.15-0.46,1.72C94.8,62.48,94.95,61.9,95.09,61.33z"/>
	<path class="st2" d="M89.96,73.8c-0.34,0.57-0.69,1.12-1.05,1.68C89.28,74.92,89.63,74.37,89.96,73.8z"/>
	<path class="st2" d="M96.49,50.13c0,0.65-0.02,1.3-0.05,1.95C96.47,51.43,96.48,50.78,96.49,50.13z"/>
	<path class="st2" d="M96.32,46.09c0.03,0.42,0.07,0.83,0.09,1.25C96.38,46.92,96.35,46.5,96.32,46.09z"/>
	<path class="st2" d="M96.44,48.13c0.02,0.47,0.03,0.94,0.03,1.41C96.47,49.07,96.46,48.6,96.44,48.13z"/>
	<path class="st2" d="M96.41,52.64c-0.03,0.5-0.06,1-0.11,1.49C96.34,53.64,96.38,53.14,96.41,52.64z"/>
	<path class="st2" d="M88.79,75.67c-0.82,1.23-1.7,2.44-2.65,3.6C87.09,78.11,87.98,76.9,88.79,75.67z"/>
	<path class="st2" d="M96.24,54.77c-0.05,0.54-0.12,1.07-0.19,1.6C96.12,55.84,96.18,55.31,96.24,54.77z"/>
	<polygon class="st2" points="51.74,50.01 51.74,12.86 48.26,12.86 48.26,50.01 48.26,65.4 51.74,65.4 	"/>
	<circle class="st2" cx="50.39" cy="74.19" r="2.61"/>
</g>
</svg>
