<?xml version="1.0" encoding="utf-8"?>
<!-- Generator: Adobe Illustrator 24.1.0, SVG Export Plug-In . SVG Version: 6.00 Build 0)  -->
<svg version="1.1" id="Layer_1" xmlns="http://www.w3.org/2000/svg" xmlns:xlink="http://www.w3.org/1999/xlink" x="0px" y="0px"
	 viewBox="0 0 100 100" style="enable-background:new 0 0 100 100;" xml:space="preserve">
<style type="text/css">
	.st0{fill:none;}
	.st1{fill:#AE955E;}
</style>
<g>
	<path class="st0" d="M57.23,79.32V29.7c5.55-4.12,16.57-9.8,30.93-7.03v-5.88c-5.96-0.92-11.98-0.77-17.89,0.44
		c-6.55,1.34-12.9,4.04-18.46,7.81v57.21C53.57,81.17,55.38,80.2,57.23,79.32z"/>
	<path class="st0" d="M91.12,78.18c-0.41,0.34-0.96,0.48-1.48,0.39c-6.45-1.18-12.97-1.12-19.38,0.19c-4.89,1-9.54,2.69-13.9,5.04
		h40.02V22.74h-4.61v54.05C91.78,77.33,91.54,77.84,91.12,78.18z"/>
	<path class="st0" d="M10.36,78.57c-0.53,0.1-1.07-0.05-1.48-0.39c-0.41-0.34-0.65-0.85-0.65-1.39V22.74H3.62V83.8h40.02
		c-4.36-2.35-9.01-4.04-13.9-5.04C23.33,77.45,16.81,77.39,10.36,78.57z"/>
	<path class="st0" d="M29.73,17.23c-5.92-1.21-11.93-1.36-17.89-0.44v57.87c2.57-0.37,5.15-0.55,7.73-0.55
		c3.65,0,7.28,0.37,10.89,1.1c6.31,1.29,12.26,3.66,17.73,7.04V25.05C42.64,21.27,36.28,18.57,29.73,17.23z"/>
	<path class="st1" d="M57.23,29.7v49.62c3.91-1.85,8.02-3.23,12.31-4.11c6.16-1.26,12.41-1.44,18.62-0.55V22.67
		C73.81,19.9,62.79,25.58,57.23,29.7z"/>
	<path d="M98.19,19.13h-6.42v-3.86c0-0.87-0.62-1.62-1.48-1.78c-6.91-1.27-13.89-1.2-20.75,0.2c-6.92,1.41-13.65,4.24-19.54,8.2
		c-0.15-0.1-0.31-0.19-0.46-0.29c-5.78-3.8-12.34-6.53-19.08-7.9c-6.86-1.4-13.84-1.47-20.75-0.2c-0.86,0.16-1.48,0.91-1.48,1.78
		v3.86H1.81c-1,0-1.81,0.81-1.81,1.81v64.67c0,1,0.81,1.81,1.81,1.81h47.73h48.65c1,0,1.81-0.81,1.81-1.81V20.94
		C100,19.94,99.19,19.13,98.19,19.13z M3.62,83.8V22.74h4.61v54.05c0,0.54,0.24,1.05,0.65,1.39c0.41,0.34,0.96,0.49,1.48,0.39
		c6.45-1.18,12.97-1.12,19.38,0.19c4.89,1,9.54,2.69,13.9,5.04H3.62z M48.19,82.26c-5.47-3.38-11.42-5.75-17.73-7.04
		c-3.61-0.74-7.24-1.1-10.89-1.1c-2.58,0-5.16,0.18-7.73,0.55V16.79c5.97-0.92,11.98-0.77,17.89,0.44
		c6.55,1.34,12.9,4.04,18.46,7.81V82.26z M51.81,25.05c5.55-3.77,11.91-6.48,18.46-7.81c5.92-1.21,11.93-1.36,17.89-0.44v5.88v51.99
		c-6.21-0.89-12.46-0.7-18.62,0.55c-4.28,0.87-8.4,2.26-12.31,4.11c-1.85,0.88-3.67,1.85-5.43,2.93V25.05z M96.38,83.8H56.36
		c4.36-2.35,9.01-4.04,13.9-5.04c6.4-1.31,12.92-1.37,19.38-0.19c0.53,0.09,1.07-0.05,1.48-0.39c0.41-0.34,0.65-0.85,0.65-1.39
		V22.74h4.61V83.8z"/>
</g>
</svg>
