<svg xmlns="http://www.w3.org/2000/svg" width="18.754" height="16.754" viewBox="0 0 18.754 16.754">
    <g>
        <g>
            <path d="M16.745 2.009h-2.01V.67a.67.67 0 1 0-1.34 0v1.34H5.358V.67a.67.67 0 1 0-1.34 0v1.34H2.009A2.009 2.009 0 0 0 0 4.019v10.726a2.009 2.009 0 0 0 2.009 2.009h14.736a2.009 2.009 0 0 0 2.009-2.009V4.019a2.009 2.009 0 0 0-2.009-2.01zm.67 12.735a.67.67 0 0 1-.67.67H2.009a.67.67 0 0 1-.67-.67V8.037h16.075zm0-8.047H1.34V4.019a.67.67 0 0 1 .67-.67h2.009v1.34a.67.67 0 0 0 1.34 0v-1.34H13.4v1.34a.67.67 0 1 0 1.34 0v-1.34h2.009a.67.67 0 0 1 .67.67V6.7z"/>
        </g>
    </g>
    <g>
        <g>
            <path d="M87.342 238.933H86a.67.67 0 1 0 0 1.34h1.34a.67.67 0 1 0 0-1.34z" transform="translate(3.349 9.377) translate(-85.333 -239.933)"/>
        </g>
    </g>
    <g>
        <g>
            <path d="M206.809 238.933h-1.34a.67.67 0 1 0 0 1.34h1.34a.67.67 0 1 0 0-1.34z" transform="translate(8.037 9.377) translate(-204.8 -239.933)"/>
        </g>
    </g>
    <g>
        <g>
            <path d="M326.276 238.933h-1.34a.67.67 0 1 0 0 1.34h1.34a.67.67 0 1 0 0-1.34z" transform="translate(12.726 9.377) translate(-324.267 -239.933)"/>
        </g>
    </g>
    <g>
        <g>
            <path d="M87.342 307.2H86a.67.67 0 0 0 0 1.34h1.34a.67.67 0 0 0 0-1.34z" transform="translate(3.349 12.056) translate(-85.333 -308.2)"/>
        </g>
    </g>
    <g>
        <g>
            <path d="M206.809 307.2h-1.34a.67.67 0 1 0 0 1.34h1.34a.67.67 0 0 0 0-1.34z" transform="translate(8.037 12.056) translate(-204.8 -308.2)"/>
        </g>
    </g>
    <g>
        <g>
            <path d="M326.276 307.2h-1.34a.67.67 0 0 0 0 1.34h1.34a.67.67 0 0 0 0-1.34z" transform="translate(12.726 12.056) translate(-324.267 -308.2)"/>
        </g>
    </g>
    <g>
        <g>
            <path d="M87.342 375.467H86a.67.67 0 1 0 0 1.34h1.34a.67.67 0 1 0 0-1.34z" transform="translate(3.349 14.735) translate(-85.333 -376.467)"/>
        </g>
    </g>
    <g>
        <g>
            <path d="M206.809 375.467h-1.34a.67.67 0 1 0 0 1.34h1.34a.67.67 0 1 0 0-1.34z" transform="translate(8.037 14.735) translate(-204.8 -376.467)"/>
        </g>
    </g>
    <g>
        <g>
            <path d="M326.276 375.467h-1.34a.67.67 0 1 0 0 1.34h1.34a.67.67 0 1 0 0-1.34z" transform="translate(12.726 14.735) translate(-324.267 -376.467)"/>
        </g>
    </g>
</svg>
