<?xml version="1.0" encoding="utf-8"?>
<!-- Generator: Adobe Illustrator 24.1.0, SVG Export Plug-In . SVG Version: 6.00 Build 0)  -->
<svg version="1.1" id="Layer_1" xmlns="http://www.w3.org/2000/svg" xmlns:xlink="http://www.w3.org/1999/xlink" x="0px" y="0px"
	 viewBox="0 0 100 100" style="enable-background:new 0 0 100 100;" xml:space="preserve">
<style type="text/css">
	.st0{fill:#AE955E;}
	.st1{fill:#010101;}
</style>
<g>
	<g>
		<g>
			<g>
				<g>
					<g>
						<path d="M49.99,99.99c-0.48,0-0.96-0.07-1.43-0.21C5.89,86.88,5.65,33.22,6.6,17.09c0.16-2.72,2.39-4.85,5.09-4.85
							c0.09,0,0.19,0,0.29,0.01c0.92,0.05,1.87,0.08,2.82,0.08c15.53,0,26.78-7.03,32.1-11.23c0.9-0.71,1.97-1.08,3.11-1.08
							c1.13,0,2.21,0.37,3.11,1.08c4.28,3.37,16,11.22,32.24,11.22c0.9,0,1.81-0.02,2.71-0.07l0.02,0c2.83,0,5.16,2.13,5.32,4.85
							c0.95,16.14,0.72,69.78-41.96,82.69C50.97,99.92,50.48,99.99,49.99,99.99z M11.67,16.52c-0.26,0-0.51,0.1-0.71,0.27
							c-0.21,0.19-0.33,0.45-0.34,0.73c-0.84,19.68,1.3,66.7,39.17,78.15c0.1,0.03,0.2,0.04,0.3,0.04c0.1,0,0.2-0.02,0.3-0.05
							C89.8,83.7,90.01,32.83,89.14,17.52c-0.03-0.56-0.49-0.99-1.04-0.99l-0.05,0c-0.87,0.04-1.76,0.06-2.63,0.06
							c-17.49,0-30.14-8.38-34.77-11.99C50.45,4.46,50.22,4.39,50,4.39s-0.45,0.07-0.64,0.22c-4.63,3.6-17.31,11.98-34.94,11.98
							c-0.89,0-1.8-0.02-2.69-0.06L11.67,16.52z"/>
					</g>
				</g>
			</g>
		</g>
	</g>
	<path class="st0" d="M38.75,45.81c-1.44,0-2.61,1.17-2.61,2.61v23.26c0,1.22,0.99,2.22,2.22,2.22h27.8c1.22,0,2.22-0.99,2.22-2.22
		V48.42c0-1.44-1.17-2.61-2.61-2.61H38.75z"/>
	<g>
		<g>
			<path d="M39.3,29.73c0.26-5.68,4.96-10.22,10.7-10.22c5.74,0,10.44,4.54,10.7,10.22c0.01,0.13,0.01,4.34,0.01,6.31h4.17
				c0-1.97,0-6.19-0.01-6.31C64.61,21.76,58.04,15.34,50,15.34s-14.61,6.41-14.87,14.39c0,0.12-0.01,4.18-0.01,6.31h4.17
				C39.29,33.92,39.3,29.85,39.3,29.73z"/>
			<path class="st1" d="M65.85,77.51h-31.7c-3.38,0-6.13-2.75-6.13-6.13V44.85c0-3.63,2.95-6.58,6.58-6.58h30.8
				c3.63,0,6.58,2.95,6.58,6.58v26.52C71.99,74.76,69.24,77.51,65.85,77.51z M34.6,41.88c-1.64,0-2.98,1.34-2.98,2.98v26.52
				c0,1.39,1.13,2.53,2.53,2.53h31.7c1.39,0,2.53-1.13,2.53-2.53V44.85c0-1.64-1.34-2.98-2.98-2.98H34.6z"/>
		</g>
		<path class="st1" d="M51.55,58.14v6.33h-3.09v-6.33c-1.25-0.58-2.12-1.85-2.12-3.33c0-2.03,1.64-3.67,3.67-3.67
			c2.03,0,3.67,1.64,3.67,3.67C53.67,56.29,52.8,57.56,51.55,58.14z"/>
	</g>
</g>
</svg>
