<?xml version="1.0" encoding="utf-8"?>
<!-- Generator: Adobe Illustrator 24.1.0, SVG Export Plug-In . SVG Version: 6.00 Build 0)  -->
<svg version="1.1" id="Layer_1" xmlns="http://www.w3.org/2000/svg" xmlns:xlink="http://www.w3.org/1999/xlink" x="0px" y="0px"
	 viewBox="0 0 100 100" style="enable-background:new 0 0 100 100;" xml:space="preserve">
<style type="text/css">
	.st0{fill:none;}
	.st1{fill:#B29656;}
</style>
<g>
	<path class="st0" d="M83.2,72.41V42.57c0-0.54,0.44-0.98,0.98-0.98l5.96,0c0.06,0,0.12,0,0.17-0.01l0.19,0
		c0.04,0,0.08,0.01,0.14,0.01l0.11,0.01c2.05,0.07,3.88,1.03,5.14,2.5c-0.95-3.11-3.82-5.45-7.2-5.56l-0.12-0.01
		c-0.06,0-0.11,0-0.15-0.01l-0.21,0c-0.05,0.01-0.11,0.01-0.18,0.01l-6.53,0c-0.59,0-1.07,0.48-1.07,1.07v32.7
		c0,0.58,0.49,1.07,1.07,1.07h2.69C83.65,73.39,83.2,72.94,83.2,72.41z"/>
	<path class="st0" d="M18.36,38.54l-7.23,0.02c-4.18,0.23-7.41,3.65-7.41,7.77V65.6c0,4.12,3.23,7.53,7.35,7.76l0.23,0.02h7.06
		c0.58,0,1.07-0.49,1.07-1.07v-32.7C19.43,39.03,18.94,38.54,18.36,38.54z"/>
	<path class="st0" d="M79.81,29.17h4.32c-4.86-14.59-18.58-24.6-34.13-24.6c-15.55,0-29.26,10-34.13,24.6h4.32
		C24.91,16.84,36.73,8.64,50.01,8.64C63.28,8.64,75.1,16.84,79.81,29.17z"/>
	<path class="st1" d="M89.02,73.35c4.09-0.27,7.28-3.69,7.27-7.79l-0.07-19.27c0-0.76-0.12-1.49-0.33-2.19
		c-1.26-1.47-3.1-2.43-5.14-2.5l-0.11-0.01c-0.06,0-0.1,0-0.14-0.01l-0.19,0c-0.04,0.01-0.1,0.01-0.17,0.01l-5.96,0
		c-0.54,0-0.98,0.44-0.98,0.98v29.83c0,0.53,0.45,0.98,0.98,0.98h4.52c0.05,0,0.1-0.01,0.16-0.02L89.02,73.35z"/>
	<path d="M18.36,34.93h-7.13c-0.14,0-0.27,0.01-0.37,0.03C4.83,35.29,0.1,40.29,0.1,46.33V65.6c0,6.04,4.73,11.03,10.72,11.37
		c0.14,0.02,0.28,0.03,0.42,0.03h7.13c2.58,0,4.68-2.1,4.68-4.68v-32.7C23.04,37.03,20.94,34.93,18.36,34.93z M19.43,72.31
		c0,0.58-0.49,1.07-1.07,1.07h-7.06l-0.23-0.02c-4.12-0.23-7.35-3.64-7.35-7.76V46.33c0-4.12,3.23-7.53,7.41-7.77l7.23-0.02
		c0.58,0,1.07,0.49,1.07,1.07V72.31z"/>
	<path d="M99.83,46.27c-0.02-6.1-4.78-11.05-10.92-11.34c-0.01,0-0.01,0-0.02,0l-0.03,0l-0.2-0.01c-0.09-0.01-0.17-0.01-0.26-0.01
		H88.2c-0.09,0-0.18,0.01-0.22,0.01h-6.49c-2.58,0-4.68,2.1-4.68,4.68v32.7c0,2.58,2.1,4.68,4.68,4.68h7.21
		c0.22,0,0.42-0.02,0.64-0.05c5.95-0.44,10.58-5.43,10.56-11.4L99.83,46.27z M84.18,73.39h-2.69c-0.58,0-1.07-0.49-1.07-1.07v-32.7
		c0-0.59,0.48-1.07,1.07-1.07l6.53,0c0.07,0,0.13-0.01,0.18-0.01l0.21,0c0.04,0,0.08,0.01,0.15,0.01l0.12,0.01
		c3.38,0.11,6.25,2.45,7.2,5.56c0.21,0.7,0.33,1.43,0.33,2.19l0.07,19.27c0.02,4.09-3.18,7.51-7.27,7.79l-0.16,0.02
		c-0.06,0.01-0.11,0.02-0.16,0.02H84.18z"/>
	<path d="M76.83,31.55c0.25,0.74,0.94,1.23,1.71,1.23h8.01c0.56,0,1.09-0.26,1.43-0.7c0.34-0.44,0.46-1.02,0.32-1.56
		c-4.56-17.4-20.31-29.56-38.3-29.56c-17.99,0-33.73,12.15-38.3,29.56c-0.14,0.54-0.02,1.12,0.32,1.56c0.34,0.44,0.87,0.7,1.43,0.7
		h8.01c0.78,0,1.46-0.49,1.71-1.23c3.88-11.54,14.66-19.3,26.83-19.3C62.17,12.25,72.95,20.01,76.83,31.55z M20.2,29.17h-4.32
		c4.86-14.59,18.58-24.6,34.13-24.6c15.55,0,29.26,10,34.13,24.6h-4.32C75.1,16.84,63.28,8.64,50.01,8.64
		C36.73,8.64,24.91,16.84,20.2,29.17z"/>
	<path d="M64.14,92.32h-4.85c-1.55-1.69-5.09-2.88-9.2-2.88c-0.02,0-0.03,0-0.04,0c-0.01,0-0.02,0-0.02,0c-2.65,0-4.8,2.15-4.8,4.8
		c0,2.65,2.15,4.8,4.8,4.8c0.01,0,0.01,0,0.02,0c0.01,0,0.03,0,0.04,0c4.12,0,7.65-1.19,9.2-2.88h4.85c10.67,0,17.8-5.43,20.5-15.19
		h-3.96C78.68,87.22,74.01,92.32,64.14,92.32z"/>
</g>
</svg>
