<svg xmlns="http://www.w3.org/2000/svg" id="Component_30_11" width="78.331" height="42.603" viewBox="0 0 78.331 42.603">
    <defs>
        <style>
            .cls-1{fill:#b39656}.cls-2{fill:#0c0c0c}.cls-3{fill:#05135d}
        </style>
    </defs>
    <path id="Path_444" d="M795.839 475.495v9.3h2.133v-9.3h2.9v-1.825h-7.932v1.825z" class="cls-1" transform="translate(-770.423 -457.961)"/>
    <path id="Path_445" d="M880.617 475.495v9.3h2.133v-9.3h2.9v-1.825h-7.93v1.825z" class="cls-1" transform="translate(-845.551 -457.961)"/>
    <path id="Path_446" d="M697.606 484.793h2.243l-4.484-11.123H693.4l-4.5 11.123h2.2l.942-2.5h4.623zm-1.639-4.326h-3.228l1.614-4.286z" class="cls-1" transform="translate(-678.228 -457.961)"/>
    <path id="Path_447" d="M963.945 484.793h2.244L961.7 473.67h-1.964l-4.5 11.123h2.2l.942-2.5H963zm-1.638-4.326h-3.223l1.614-4.286z" class="cls-1" transform="translate(-914.245 -457.961)"/>
    <path id="Path_448" d="M1195.708 484.793h2.243l-4.486-11.123h-1.965l-4.5 11.123h2.2l.942-2.5h4.623zm-1.639-4.326h-3.228l1.613-4.286z" class="cls-1" transform="translate(-1119.62 -457.961)"/>
    <path id="Path_449" d="M1085.16 473.67v7.648l-5.431-7.648h-1.97v11.123h2.06v-7.648l5.431 7.648h1.969V473.67z" class="cls-1" transform="translate(-1022.817 -457.961)"/>
    <path id="Path_450" d="M615.435 473.67h-4.365v11.123h2.015v-4h2.35a3.951 3.951 0 0 0 2.868-1.051 3.577 3.577 0 0 0 1-2.567c0-2.1-1.552-3.508-3.863-3.508m-2.35 1.822h2.247a1.737 1.737 0 1 1 0 3.458h-2.247z" class="cls-1" transform="translate(-609.258 -457.961)"/>
    <path id="Path_451" d="M605.3 345.1l.064-.1-1.675-1.2-.071.114a3 3 0 0 1-1.173 1.075 3.633 3.633 0 0 1-1.664.369 3.3 3.3 0 0 1-1.375-.283 3.226 3.226 0 0 1-1.077-.787 3.644 3.644 0 0 1-.712-1.209 4.773 4.773 0 0 1 0-3.092 3.687 3.687 0 0 1 .718-1.217 3.386 3.386 0 0 1 1.086-.8 3.187 3.187 0 0 1 1.359-.29 3.473 3.473 0 0 1 1.619.369 3.027 3.027 0 0 1 1.16 1.067l.071.114.107-.076 1.457-1.045.1-.071-.067-.1a4.921 4.921 0 0 0-1.849-1.668 5.864 5.864 0 0 0-4.8-.127 5.6 5.6 0 0 0-1.791 1.233 5.741 5.741 0 0 0-1.2 1.855 6.1 6.1 0 0 0-.437 2.3 6.313 6.313 0 0 0 .42 2.326 5.6 5.6 0 0 0 1.167 1.843 5.251 5.251 0 0 0 1.778 1.206 5.807 5.807 0 0 0 2.247.431 6.018 6.018 0 0 0 2.666-.578 4.538 4.538 0 0 0 1.872-1.659" class="cls-2" transform="translate(-595.157 -335.689)"/>
    <path id="Path_452" d="M719.9 349.1v-1.825h-4.356v-2.957h3.9V342.5h-3.9v-2.7h4.208v-1.82h-6.222v11.12z" class="cls-2" transform="translate(-700.053 -337.719)"/>
    <path id="Path_453" d="M911.427 339.8v9.3h2.134v-9.3h2.9v-1.82h-7.931v1.82z" class="cls-2" transform="translate(-872.853 -337.719)"/>
    <path id="Path_454" d="M1010.593 349.113h2.26l-2.287-4.241a3.5 3.5 0 0 0 2.383-3.373c0-2.1-1.553-3.509-3.864-3.509h-4.365v11.123h2.015v-4h1.75zm.288-7.571a1.687 1.687 0 0 1-1.9 1.729h-2.247v-3.459h2.247a1.686 1.686 0 0 1 1.9 1.728" class="cls-2" transform="translate(-958.092 -337.728)"/>
    <path id="Path_455" d="M1107.17 349.121h2.244L1104.928 338h-1.958l-4.5 11.123h2.2l.941-2.5h4.623zm-1.639-4.326h-3.231l1.614-4.29z" class="cls-2" transform="translate(-1041.169 -337.737)"/>
    <path id="Path_456" d="M1221.784 347.269v-9.3h-2.134v11.124h7.234v-1.825z" class="cls-2" transform="translate(-1148.553 -337.71)"/>
    <path id="Path_457" d="M806.341 337.98v7.648l-5.431-7.648h-1.97v11.12H801v-7.648l5.429 7.648h1.971v-11.12z" class="cls-2" transform="translate(-775.74 -337.719)"/>
    <path id="Path_458" d="M699.2 619.162v1.777h-6.41V609.8h6.264v1.778h-4.3v2.77h3.985v1.777h-3.985v3.036z" class="cls-3" transform="translate(-681.675 -578.593)"/>
    <path id="Path_459" d="M973.132 619.162v1.777h-6.412V609.8h6.264v1.778h-4.294v2.77h3.984v1.777h-3.984v3.036z" class="cls-3" transform="translate(-924.418 -578.593)"/>
    <path id="Path_460" d="M781.5 613.313c0-2.095-1.549-3.5-3.857-3.5h-4.363v11.137h1.971v-4.021h1.81l2.126 4.021h2.208l-2.3-4.256a3.494 3.494 0 0 0 2.4-3.378m-6.253-1.726h2.292a1.778 1.778 0 1 1 0 3.541h-2.292z" class="cls-3" transform="translate(-753.001 -578.602)"/>
    <path id="Path_461" d="M865.456 609.8l-4.447 11.139h-1.938L854.64 609.8h2.193l.025.063 3.2 8.486 3.252-8.549z" class="cls-3" transform="translate(-825.098 -578.593)"/>
    <path id="Path_462" d="M612.085 615.83a3.244 3.244 0 0 1-.274 1.341 3.2 3.2 0 0 1-.755 1.051 3.516 3.516 0 0 1-1.138.693 4.071 4.071 0 0 1-1.452.25 3.9 3.9 0 0 1-2.48-.881 3.415 3.415 0 0 1-.8-.965 3.01 3.01 0 0 1-.37-1.216l-.011-.1h2.089l.017.074a1.567 1.567 0 0 0 .557.911 1.64 1.64 0 0 0 1.025.32 1.521 1.521 0 0 0 1.1-.4 1.407 1.407 0 0 0 .414-1.07 1.461 1.461 0 0 0-.082-.512 1.013 1.013 0 0 0-.286-.4 2.544 2.544 0 0 0-.591-.378c-.258-.126-.592-.27-.99-.425a9.031 9.031 0 0 1-1.356-.633 3.991 3.991 0 0 1-.932-.737 2.64 2.64 0 0 1-.536-.882 3.144 3.144 0 0 1-.167-1.053 3.209 3.209 0 0 1 2.041-3.053 3.607 3.607 0 0 1 1.352-.25 3.668 3.668 0 0 1 1.275.22 3.4 3.4 0 0 1 1.048.617 3.271 3.271 0 0 1 .747.937 3.343 3.343 0 0 1 .367 1.194l.013.107h-2.143l-.013-.08a1.274 1.274 0 0 0-1.31-1.139 1.244 1.244 0 0 0-1.293 1.194v.079a1.665 1.665 0 0 0 .077.539.967.967 0 0 0 .277.411 2.493 2.493 0 0 0 .577.384 9.077 9.077 0 0 0 .959.41 9.08 9.08 0 0 1 1.4.658 4.015 4.015 0 0 1 .946.758 2.627 2.627 0 0 1 .536.921 3.5 3.5 0 0 1 .169 1.109" class="cls-3" transform="translate(-603.702 -576.563)"/>
</svg>
