<svg xmlns="http://www.w3.org/2000/svg" width="30" height="30" viewBox="0 0 30 30">
    <defs>
        <clipPath id="clip-path">
            <path id="Rectangle_28" fill="none" stroke="#707070" d="M0 0H30V30H0z" transform="translate(370 319)"/>
        </clipPath>
        <style>
            .cls-4{fill:#010101}
        </style>
    </defs>
    <g id="Mask_Group_1" clip-path="url(#clip-path)" transform="translate(-370 -319)">
        <g id="Group_133" transform="translate(370.311 313.377)">
            <g id="Group_133-2" transform="translate(22.466 23.794)">
                <circle id="Ellipse_58" cx="3.152" cy="3.152" r="3.152" fill="#af965f"/>
            </g>
            <g id="Group_134" transform="translate(20.275 21.981)">
                <path id="Path_634" d="M72.861 63.153a.585.585 0 1 1 0-1.17 3.372 3.372 0 1 0-3.372-3.372.585.585 0 0 1-1.17 0 4.541 4.541 0 1 1 4.541 4.541z" class="cls-4" transform="translate(-68.32 -54.07)"/>
            </g>
            <g id="Group_135" transform="translate(18.579 25.078)">
                <path id="Path_635" d="M64.8 67.526a.585.585 0 0 1-.413-.171l-1.7-1.7a.585.585 0 1 1 .827-.827l1.286 1.286 1.28-1.282a.585.585 0 1 1 .828.826l-1.693 1.7a.584.584 0 0 1-.413.172z" class="cls-4" transform="translate(-62.519 -64.66)"/>
            </g>
            <g id="Group_136" transform="translate(9.003 14.668)">
                <path id="Path_636" d="M43.169 30.23H30.355a.585.585 0 0 1 0-1.17h12.814a.585.585 0 1 1 0 1.17z" class="cls-4" transform="translate(-29.77 -29.06)"/>
            </g>
            <g id="Group_137" transform="translate(9.003 19.455)">
                <path id="Path_637" d="M43.169 46.6H30.355a.585.585 0 0 1 0-1.17h12.814a.585.585 0 0 1 0 1.17z" class="cls-4" transform="translate(-29.77 -45.43)"/>
            </g>
            <g id="Group_138" transform="translate(9.003 24.517)">
                <path id="Path_638" d="M37.253 63.91h-6.9a.585.585 0 1 1 0-1.17h6.9a.585.585 0 1 1 0 1.17z" class="cls-4" transform="translate(-29.77 -62.74)"/>
            </g>
            <g id="Group_139" transform="translate(6.318 11.668)">
                <path id="Path_639" d="M40.34 39.629H21.175a.585.585 0 0 1-.585-.585V19.385a.585.585 0 0 1 1.17 0V38.46h18.58a.585.585 0 1 1 0 1.17z" class="cls-4" transform="translate(-20.59 -18.8)"/>
            </g>
            <g id="Group_140" transform="translate(3.368 8.72)">
                <path id="Path_640" d="M33.2 21.683a.585.585 0 0 1-.585-.585v-8.354a2.851 2.851 0 0 0-2.85-2.854h-18.68a.585.585 0 1 1 0-1.17h18.681a4.021 4.021 0 0 1 4.02 4.017V21.1a.585.585 0 0 1-.586.583z" class="cls-4" transform="translate(-10.5 -8.72)"/>
            </g>
            <g id="Group_141" transform="translate(0.42 8.81)">
                <path id="Path_641" d="M6.9 13.056H1a.585.585 0 0 1-.585-.6 3.535 3.535 0 0 1 7.067 0 .585.585 0 0 1-.585.6zm-5.216-1.17h4.537A2.369 2.369 0 0 0 3.879 10.2a2.372 2.372 0 0 0-2.192 1.686z" class="cls-4" transform="translate(-0.42 -9.028)"/>
            </g>
        </g>
    </g>
</svg>
