<svg xmlns="http://www.w3.org/2000/svg" width="21.859" height="14.87" viewBox="0 0 21.859 14.87">
    <defs>
        <style>
            .cls-2{fill:#010101}
        </style>
    </defs>
    <g id="Group_118" transform="translate(-1.22 -16.65)">
        <g id="Group_118-2" transform="translate(3.518 19.06)">
            <path id="Path_619" fill="#b29656" d="M23.074 33.232A5.772 5.772 0 1 1 17.3 27.46a5.772 5.772 0 0 1 5.772 5.772" transform="translate(-11.53 -27.46)"/>
        </g>
        <g id="Group_119" transform="translate(1.22 16.65)">
            <path id="Path_620" d="M8.655 31.52a7.435 7.435 0 1 1 7.435-7.435 7.443 7.443 0 0 1-7.435 7.435zm0-13.978a6.543 6.543 0 1 0 6.545 6.543 6.551 6.551 0 0 0-6.545-6.543z" class="cls-2" transform="translate(-1.22 -16.65)"/>
        </g>
        <g id="Group_120" transform="translate(6.385 19.471)">
            <path id="Path_621" d="M24.39 29.3h2.57a2.778 2.778 0 0 1 1.911.669 2.388 2.388 0 0 1 .711 1.759 2.211 2.211 0 0 1-1.224 2.035A2.312 2.312 0 0 1 29.832 36a2.466 2.466 0 0 1-.749 1.835 2.876 2.876 0 0 1-2.006.7H24.39zm2.521 4.1a1.544 1.544 0 0 0 1.71-1.612 1.564 1.564 0 0 0-1.71-1.634h-1.585V33.4zm.125 4.28a1.661 1.661 0 0 0 1.835-1.748 1.625 1.625 0 0 0-1.835-1.685h-1.71v3.433z" class="cls-2" transform="translate(-24.39 -29.302)"/>
        </g>
        <g id="Group_121" transform="translate(8.238 17.584)">
            <path id="Path_622" d="M33.3 20.84h-.2a.394.394 0 0 0-.395.395v1.714a.394.394 0 0 0 .395.395h.2a.4.4 0 0 0 .4-.395v-1.714a.4.4 0 0 0-.4-.395" class="cls-2" transform="translate(-32.7 -20.84)"/>
        </g>
        <g id="Group_122" transform="translate(8.238 28.082)">
            <path id="Path_623" d="M33.3 67.93h-.2a.4.4 0 0 0-.395.4v1.712a.394.394 0 0 0 .395.395h.2a.4.4 0 0 0 .4-.395v-1.715a.4.4 0 0 0-.4-.4" class="cls-2" transform="translate(-32.7 -67.93)"/>
        </g>
        <g id="Group_123" transform="translate(16.554 28.515)">
            <path id="Path_624" d="M75.649 70.762h-5.2a.446.446 0 1 1 0-.892h5.2a.446.446 0 1 1 0 .892z" class="cls-2" transform="translate(-70 -69.87)"/>
        </g>
        <g id="Group_124" transform="translate(20.239 26.618)">
            <path id="Path_625" d="M87.076 66.049a.446.446 0 0 1-.315-.761l1.533-1.533-1.633-1.633a.446.446 0 1 1 .63-.63l1.948 1.948a.446.446 0 0 1 0 .63l-1.848 1.848a.445.445 0 0 1-.315.131z" class="cls-2" transform="translate(-86.53 -61.36)"/>
        </g>
    </g>
</svg>
