<svg xmlns="http://www.w3.org/2000/svg" width="30" height="30" viewBox="0 0 30 30">
    <defs>
        <clipPath id="clip-path">
            <path id="Rectangle_30" fill="none" stroke="#707070" d="M0 0H30V30H0z" transform="translate(620 319)"/>
        </clipPath>
        <style>
            .cls-3{fill:#af965f}.cls-4{fill:#010101}
        </style>
    </defs>
    <g id="Mask_Group_3" clip-path="url(#clip-path)" transform="translate(-620 -319)">
        <g id="Group_146" transform="translate(619.817 311.093)">
            <g id="Group_146-2" transform="translate(4.976 28.6)">
                <circle id="Ellipse_59" cx="1.101" cy="1.101" r="1.101" class="cls-3" transform="translate(0 0)"/>
            </g>
            <g id="Group_147" transform="translate(11.054 22.468)">
                <circle id="Ellipse_60" cx="1.246" cy="1.246" r="1.246" class="cls-3" transform="translate(0 0)"/>
            </g>
            <g id="Group_148" transform="translate(18.755 25.885)">
                <circle id="Ellipse_61" cx="1.101" cy="1.101" r="1.101" class="cls-3" transform="translate(0 0)"/>
            </g>
            <g id="Group_149" transform="translate(23.578 17.86)">
                <circle id="Ellipse_62" cx="1.917" cy="1.917" r="1.917" class="cls-3" transform="translate(0 0)"/>
            </g>
            <g id="Group_150" transform="translate(1.35 13.35)">
                <path id="Path_646" d="M28.45 33.781H3.872a2.525 2.525 0 0 1-2.522-2.523V13.916a.566.566 0 0 1 1.132 0v17.342a1.392 1.392 0 0 0 1.39 1.39H28.45a.566.566 0 1 1 0 1.132z" class="cls-4" transform="translate(-1.35 -13.35)"/>
            </g>
            <g id="Group_151" transform="translate(3.459 26.919)">
                <path id="Path_647" d="M11.025 65.73a2.225 2.225 0 1 1 2.225-2.225 2.228 2.228 0 0 1-2.225 2.225zm0-3.318a1.093 1.093 0 1 0 1.093 1.093 1.094 1.094 0 0 0-1.093-1.093z" class="cls-4" transform="translate(-8.8 -61.28)"/>
            </g>
            <g id="Group_152" transform="translate(9.792 20.889)">
                <path id="Path_648" d="M33.4 44.43a2.225 2.225 0 1 1 2.225-2.225A2.228 2.228 0 0 1 33.4 44.43zm0-3.318a1.093 1.093 0 1 0 1.093 1.093 1.094 1.094 0 0 0-1.093-1.093z" class="cls-4" transform="translate(-31.17 -39.98)"/>
            </g>
            <g id="Group_153" transform="translate(17.331 24.207)">
                <path id="Path_649" d="M60.025 56.15a2.225 2.225 0 1 1 2.225-2.225 2.228 2.228 0 0 1-2.225 2.225zm0-3.318a1.093 1.093 0 1 0 1.093 1.093 1.094 1.094 0 0 0-1.093-1.093z" class="cls-4" transform="translate(-57.8 -51.7)"/>
            </g>
            <g id="Group_154" transform="translate(21.854 16.065)">
                <path id="Path_650" d="M76.908 29.2a3.128 3.128 0 1 1 3.128-3.128 3.132 3.132 0 0 1-3.128 3.128zm0-5.124a2 2 0 1 0 2 2 2 2 0 0 0-2-2.004z" class="cls-4" transform="translate(-73.78 -22.94)"/>
            </g>
            <g id="Group_155" transform="translate(6.174 23.604)">
                <path id="Path_651" d="M18.957 54.4a.566.566 0 0 1-.385-.982l4-3.7a.566.566 0 0 1 .769.831l-4 3.7a.564.564 0 0 1-.384.151z" class="cls-4" transform="translate(-18.39 -49.57)"/>
            </g>
            <g id="Group_156" transform="translate(13.11 22.697)">
                <path id="Path_652" d="M48.13 49.534a.563.563 0 0 1-.225-.047l-4.675-2.033a.566.566 0 1 1 .452-1.038l4.674 2.033a.566.566 0 0 1-.226 1.086z" class="cls-4" transform="translate(-42.89 -46.368)"/>
            </g>
            <g id="Group_157" transform="translate(19.941 20.696)">
                <path id="Path_653" d="M67.585 44.243a.566.566 0 0 1-.447-.914l2.967-3.81a.566.566 0 0 1 .893.7l-2.967 3.81a.566.566 0 0 1-.446.214z" class="cls-4" transform="translate(-67.019 -39.3)"/>
            </g>
        </g>
    </g>
</svg>
