<svg xmlns="http://www.w3.org/2000/svg" id="Vector_Smart_Object" width="47" height="39" viewBox="0 0 47 39">
    <defs>
        <clipPath id="clip-path">
            <path id="Rectangle_3" fill="none" d="M0 0H47V39H0z"/>
        </clipPath>
        <style>
            .cls-4{fill:#070606}.cls-5{fill:#0b090a}
        </style>
    </defs>
    <path id="Path_1" fill="#a98432" d="M42.686 2.5l-18.4 18.325-.616 3.446 5.088.2L46.15 5.636z"/>
    <g id="Group_3">
        <g id="Group_2" clip-path="url(#clip-path)">
            <path id="Path_2" d="M10.828 25.742a2.578 2.578 0 0 0 1.4-2.363 2.8 2.8 0 0 0-.813-2.044 3.014 3.014 0 0 0-1.868-.756v.2a.5.5 0 0 1-.494.5h-.147a.5.5 0 0 1-.494-.5v-.21H6.3v10.71h2.112v-.21a.5.5 0 0 1 .494-.5h.143a.5.5 0 0 1 .494.5v.2a3.191 3.191 0 0 0 2.111-.805 2.9 2.9 0 0 0 .854-2.131 2.682 2.682 0 0 0-1.681-2.594m-3.462-4.186h1.81a1.886 1.886 0 1 1 0 3.769h-1.81zm1.952 8.74H7.365v-3.986h1.952a1.868 1.868 0 0 1 2.095 1.956 1.907 1.907 0 0 1-2.095 2.029" class="cls-4"/>
            <path id="Path_3" d="M9.544 20.579v-1.7a.5.5 0 0 0-.494-.5h-.144a.5.5 0 0 0-.494.5v1.692h.82q.159 0 .312.012" class="cls-4"/>
            <path id="Path_4" d="M8.906 21.28h.144a.5.5 0 0 0 .494-.5v-.2c-.1-.008-.206-.012-.312-.012h-.82v.211a.5.5 0 0 0 .494.5" class="cls-4"/>
            <path id="Path_5" d="M8.412 31.279v1.692a.5.5 0 0 0 .494.5h.144a.5.5 0 0 0 .494-.5v-1.7c-.057 0-.112.007-.169.007z" class="cls-4"/>
            <path id="Path_6" d="M9.05 30.566h-.144a.5.5 0 0 0-.494.5v.211h.962c.057 0 .113 0 .169-.007v-.2a.5.5 0 0 0-.494-.5" class="cls-4"/>
            <path id="Path_7" d="M39.649 17.07v18.18a2.24 2.24 0 0 1-2.17 2.25H3.642a2.24 2.24 0 0 1-2.169-2.25V17.07a2.19 2.19 0 0 1 2.169-2.205H26.6l1.486-1.5H3.642A3.676 3.676 0 0 0 0 17.07v18.18A3.7 3.7 0 0 0 3.642 39h33.837a3.7 3.7 0 0 0 3.642-3.749V17.07a3.714 3.714 0 0 0-1.947-3.276l-1.124 1.151a2.2 2.2 0 0 1 1.6 2.125" class="cls-4"/>
            <path id="Path_8" d="M24.416 23.418V19.2l4.289-4.33H26.6l-3.448 3.48a.76.76 0 0 0-.219.535v5.335a.762.762 0 0 0 .233.55.735.735 0 0 0 .508.2h.045l4.558-.281a.734.734 0 0 0 .481-.221l9.292-9.525a2.12 2.12 0 0 0-.571-.08h-1.44L27.9 23.2z" class="cls-5"/>
            <path id="Path_9" d="M46.783 4.928L42.155.221a.732.732 0 0 0-1.047 0L28.085 13.366h2.106l6.732-6.8 3.677 3.628-3.1 3.173a3.567 3.567 0 0 1 1.673.427l7.61-7.8a.763.763 0 0 0 0-1.065m-5.142 4.2l-3.666-3.621 3.654-3.688 3.582 3.644z" class="cls-5"/>
            <path id="Path_10" d="M28.7 14.865l1.486-1.5h-2.102l-1.486 1.5z" class="cls-5"/>
            <path id="Path_11" d="M36.039 14.865h1.44a2.118 2.118 0 0 1 .571.08l1.124-1.152a3.572 3.572 0 0 0-1.673-.427z" class="cls-5"/>
            <path id="Rectangle_1" d="M0 0H14.259V1.642H0z" class="cls-5" transform="translate(22.352 28.946)"/>
            <path id="Rectangle_2" d="M0 0H14.259V1.642H0z" class="cls-5" transform="translate(18.182 32.503)"/>
        </g>
    </g>
</svg>
