<?xml version="1.0" encoding="utf-8"?>
<!-- Generator: Adobe Illustrator 24.1.0, SVG Export Plug-In . SVG Version: 6.00 Build 0)  -->
<svg version="1.1" id="Layer_1" xmlns="http://www.w3.org/2000/svg" xmlns:xlink="http://www.w3.org/1999/xlink" x="0px" y="0px"
	 viewBox="0 0 100 100" style="enable-background:new 0 0 100 100;" xml:space="preserve">
<style type="text/css">
	.st0{fill:none;}
	.st1{fill:#010101;}
	.st2{fill:#AE955E;}
</style>
<g>
	<path class="st0" d="M17.3,54.36v-8.71c2.71-0.79,4.86-2.92,5.68-5.61h-4.41h-0.09c-0.82,2.7-2.97,4.82-5.68,5.61v8.71
		c2.71,0.79,4.86,2.92,5.68,5.61h0.17h4.33C22.16,57.27,20.01,55.15,17.3,54.36z"/>
	<path class="st0" d="M3.39,30.62c0,12.92,0,25.84,0,38.77c15.17,0,30.34,0,45.51,0c15.91,0,31.81,0,47.72,0
		c0-12.92,0-25.84,0-38.77c-15.17,0-30.34,0-45.51,0C35.2,30.62,19.29,30.62,3.39,30.62z M81.11,36.57h4.92v1.02h0.06
		c0,1.73,1.41,3.13,3.13,3.13v0.11h1.11v2.93v12.88v2.52h-1.11v0.11c-1.73,0-3.13,1.4-3.13,3.13h-0.06v1.02h-5H51.73h-3.8H18.65h-5
		v-1.02h-0.06c0-1.73-1.4-3.13-3.13-3.13v-0.11H9.35v-2.52V43.76v-2.93h1.11v-0.11c1.73,0,3.13-1.4,3.13-3.13h0.06v-1.02h4.92h29.37
		h3.8H81.11z"/>
	<path class="st1" d="M97.39,27.23c-16.79,0-31.71,0-48.5,0c-16.04,0-30.21,0-46.25,0C1.22,27.23,0,28.4,0,29.84
		c0,14.67,0,25.61,0,40.29c0,1.42,1.17,2.65,2.61,2.65c16.79,0,31.71,0,48.5,0c16.04,0,30.21,0,46.25,0c0.75,0,1.33-0.25,1.75-0.65
		c0.53-0.42,0.9-1.07,0.9-1.96c0-14.67,0-25.61,0-40.29C100,28.45,98.83,27.23,97.39,27.23z M96.61,69.38c-15.91,0-31.81,0-47.72,0
		c-15.17,0-30.34,0-45.51,0c0-12.92,0-25.84,0-38.77c15.91,0,31.81,0,47.72,0c15.17,0,30.34,0,45.51,0
		C96.61,43.54,96.61,56.46,96.61,69.38z"/>
	<path class="st1" d="M18.56,36.57h-4.92v1.02h-0.06c0,1.73-1.4,3.13-3.13,3.13v0.11H9.35v2.93v12.88v2.52h1.11v0.11
		c1.73,0,3.13,1.4,3.13,3.13h0.06v1.02h5h29.29h3.8h29.29h5v-1.02h0.06c0-1.73,1.41-3.13,3.13-3.13v-0.11h1.11v-2.52V43.76v-2.93
		h-1.11v-0.11c-1.73,0-3.13-1.4-3.13-3.13h-0.06v-1.02h-4.92H51.73h-3.8H18.56z M81.11,40.03h0.09c0.82,2.7,2.97,4.82,5.68,5.61
		v8.71c-2.71,0.79-4.86,2.92-5.68,5.61h-0.17H51.73h-3.8H23.15h-0.17h-4.33h-0.17c-0.82-2.7-2.97-4.82-5.68-5.61v-8.71
		c2.71-0.79,4.86-2.92,5.68-5.61h0.09h4.41h0.09h24.87h3.8H81.11z"/>
	<path class="st2" d="M50,52.22c1.23,0,2.22-1,2.22-2.22s-1-2.22-2.22-2.22c-1.22,0-2.22,1-2.22,2.22S48.78,52.22,50,52.22z"/>
	<path class="st2" d="M23.06,40.03h-0.09c-0.82,2.7-2.97,4.82-5.68,5.61v8.71c2.71,0.79,4.86,2.92,5.68,5.61h0.17h24.79h3.8h29.29
		h0.17c0.82-2.7,2.97-4.82,5.68-5.61v-8.71c-2.71-0.79-4.86-2.92-5.68-5.61h-0.09H51.73h-3.8H23.06z M55.82,50
		c0,3.21-2.61,5.82-5.82,5.82c-3.21,0-5.82-2.61-5.82-5.82c0-3.21,2.61-5.82,5.82-5.82C53.21,44.18,55.82,46.79,55.82,50z"/>
	<path class="st1" d="M44.18,50c0,3.21,2.61,5.82,5.82,5.82c3.21,0,5.82-2.61,5.82-5.82c0-3.21-2.61-5.82-5.82-5.82
		C46.79,44.18,44.18,46.79,44.18,50z M50,47.78c1.23,0,2.22,1,2.22,2.22s-1,2.22-2.22,2.22c-1.22,0-2.22-1-2.22-2.22
		S48.78,47.78,50,47.78z"/>
</g>
</svg>
