<?xml version="1.0" encoding="utf-8"?>
<!-- Generator: Adobe Illustrator 24.1.0, SVG Export Plug-In . SVG Version: 6.00 Build 0)  -->
<svg version="1.1" id="Layer_1" xmlns="http://www.w3.org/2000/svg" xmlns:xlink="http://www.w3.org/1999/xlink" x="0px" y="0px"
	 viewBox="0 0 100 100" style="enable-background:new 0 0 100 100;" xml:space="preserve">
<style type="text/css">
	.st0{fill:none;}
	.st1{fill:#B29656;}
	.st2{fill:#010101;}
</style>
<g>
	<path class="st0" d="M44.27,32.68h5.04c3.79,0,6.18-2.21,6.18-5.82c0-3.65-2.39-5.91-6.18-5.91h-5.04c-0.38,0-0.69,0.31-0.69,0.69
		V32C43.58,32.38,43.89,32.68,44.27,32.68z"/>
	<path class="st0" d="M49.76,35.75h-5.49c-0.38,0-0.69,0.31-0.69,0.69v11.02c0,0.38,0.31,0.69,0.69,0.69h5.49
		c4.1,0,6.63-2.39,6.63-6.31C56.39,38.05,53.91,35.75,49.76,35.75z"/>
	<path class="st0" d="M96.14,12.32c0-2.03-1.77-3.75-3.86-3.75H7.6c-2.06,0-3.74,1.68-3.74,3.75v48.01h92.28V12.32z M57.15,48.69
		c-1.61,1.52-3.97,2.4-6.68,2.5v5.06c0,0.99-0.8,1.79-1.79,1.79s-1.79-0.8-1.79-1.79v-5.04h-6.01c-0.38,0-0.69-0.31-0.69-0.69V18.58
		c0-0.38,0.31-0.69,0.69-0.69h6.01v-5.04c0-0.99,0.8-1.79,1.79-1.79s1.79,0.8,1.79,1.79v5.07c2.41,0.18,4.44,1,5.91,2.35
		c1.62,1.53,2.57,3.79,2.57,6.36c0,2.86-1.15,5.08-3.42,6.71c-0.41,0.29-0.37,0.9,0.07,1.15c2.72,1.54,4.26,4.22,4.26,7.56
		C59.86,44.77,58.87,47.07,57.15,48.69z"/>
	<polygon class="st0" points="58.41,91.43 55.45,78.71 44.45,78.71 41.57,91.43 	"/>
	<path class="st0" d="M8.8,71v-6.81H3.86V71c0,2.13,1.68,3.86,3.74,3.86h4.74C10.39,74.86,8.8,73.13,8.8,71z"/>
	<path class="st1" d="M43,74.86h49.28c2.13,0,3.86-1.73,3.86-3.86v-6.81H8.8V71c0,2.13,1.59,3.86,3.54,3.86h30.47
		C42.88,74.86,42.94,74.85,43,74.86z M49.94,67.59h0.11c1.07,0,1.93,0.86,1.93,1.93c0,1.07-0.86,1.93-1.93,1.93
		s-1.99-0.86-1.99-1.93C48.07,68.45,48.88,67.59,49.94,67.59z"/>
	<polygon class="st2" points="12.35,74.86 12.35,74.86 42.82,74.86 42.82,74.86 	"/>
	<path class="st2" d="M96.14,71c0,2.13-1.73,3.86-3.86,3.86H43c0,0,0,0,0,0h49.49C94.5,74.86,96.14,73.13,96.14,71l0-6.81h0V71z"/>
	<rect x="96.14" y="62.26" class="st2" width="0" height="1.93"/>
	<path class="st2" d="M39.16,95.29c0.02,0,0.03,0,0.05,0h-0.08C39.14,95.29,39.15,95.29,39.16,95.29z"/>
	<path class="st2" d="M42.82,74.86H43C42.94,74.85,42.88,74.86,42.82,74.86z"/>
	<polygon class="st2" points="42.82,74.86 42.82,74.86 43,74.86 43,74.86 	"/>
	<path class="st2" d="M60.84,95.29c0.01,0,0.02,0,0.03,0h-0.06C60.82,95.29,60.83,95.29,60.84,95.29z"/>
	<path d="M92.28,4.71H7.6C3.41,4.71,0,8.12,0,12.32v49.94V71c0,4.26,3.41,7.72,7.6,7.72h32.89l-2.87,12.72h-3.79
		c-1.07,0-1.93,0.86-1.93,1.93s0.86,1.93,1.93,1.93h5.3h0.08h21.61h0.06h5.3c1.07,0,1.93-0.86,1.93-1.93s-0.86-1.93-1.93-1.93h-3.8
		l-2.96-12.72h32.87c4.26,0,7.72-3.46,7.72-7.72v-8.74V12.32C100,8.19,96.46,4.71,92.28,4.71z M3.86,12.32
		c0-2.07,1.68-3.75,3.74-3.75h84.68c2.09,0,3.86,1.72,3.86,3.75v48.01H3.86V12.32z M58.41,91.43H41.57l2.87-12.72h11L58.41,91.43z
		 M96.14,71c0,2.13-1.64,3.86-3.65,3.86H43h-0.18H12.35c0,0,0,0,0,0H7.6c-2.06,0-3.74-1.73-3.74-3.86v-6.81H8.8h87.34h0V71z"/>
	<path class="st2" d="M50.06,71.45c1.07,0,1.93-0.86,1.93-1.93c0-1.07-0.86-1.93-1.93-1.93h-0.11c-1.07,0-1.87,0.86-1.87,1.93
		C48.07,70.59,48.99,71.45,50.06,71.45z"/>
	<path d="M55.6,34.51c-0.44-0.25-0.47-0.86-0.07-1.15c2.27-1.63,3.42-3.86,3.42-6.71c0-2.57-0.95-4.82-2.57-6.36
		c-1.47-1.35-3.5-2.18-5.91-2.35v-5.07c0-0.99-0.8-1.79-1.79-1.79s-1.79,0.8-1.79,1.79v5.04h-6.01c-0.38,0-0.69,0.31-0.69,0.69
		v31.94c0,0.38,0.31,0.69,0.69,0.69h6.01v5.04c0,0.99,0.8,1.79,1.79,1.79s1.79-0.8,1.79-1.79V51.2c2.71-0.1,5.07-0.98,6.68-2.5
		c1.71-1.62,2.71-3.92,2.71-6.63C59.86,38.73,58.32,36.04,55.6,34.51z M43.58,21.65c0-0.38,0.31-0.69,0.69-0.69h5.04
		c3.79,0,6.18,2.25,6.18,5.91c0,3.61-2.39,5.82-6.18,5.82h-5.04c-0.38,0-0.69-0.31-0.69-0.69V21.65z M49.76,48.15h-5.49
		c-0.38,0-0.69-0.31-0.69-0.69V36.44c0-0.38,0.31-0.69,0.69-0.69h5.49c4.15,0,6.63,2.3,6.63,6.09
		C56.39,45.76,53.86,48.15,49.76,48.15z"/>
</g>
</svg>
