<?xml version="1.0" encoding="utf-8"?>
<!-- Generator: Adobe Illustrator 24.1.0, SVG Export Plug-In . SVG Version: 6.00 Build 0)  -->
<svg version="1.1" id="Layer_1" xmlns="http://www.w3.org/2000/svg" xmlns:xlink="http://www.w3.org/1999/xlink" x="0px" y="0px"
	 viewBox="0 0 100 100" style="enable-background:new 0 0 100 100;" xml:space="preserve">
<style type="text/css">
	.st0{fill:none;}
	.st1{fill:#B29656;}
	.st2{fill:#010101;}
</style>
<g>
	<path class="st0" d="M77.06,8.86c0-2.86-2.46-5.27-5.38-5.27H28.21c-2.91,0-5.27,2.37-5.27,5.27v73.68h54.11V8.86z M59.59,62.04
		c-1.78,1.69-4.4,2.66-7.39,2.77v5.6c0,1.09-0.89,1.98-1.98,1.98s-1.98-0.89-1.98-1.98v-5.58h-7.41V27.95h7.41v-5.58
		c0-1.09,0.89-1.98,1.98-1.98s1.98,0.89,1.98,1.98v5.62c2.67,0.2,4.92,1.11,6.55,2.6c1.8,1.7,2.85,4.19,2.85,7.04
		c0,3.59-1.65,6.29-4.89,8.14c3.74,1.55,5.89,4.79,5.89,8.93C62.58,57.7,61.48,60.24,59.59,62.04z"/>
	<path class="st0" d="M51.4,47.72h-6.84v13.73h6.84c4.54,0,7.34-2.65,7.34-6.99C58.74,50.26,55.99,47.72,51.4,47.72z"/>
	<path class="st0" d="M57.74,37.88c0-4.04-2.65-6.54-6.84-6.54h-6.34v12.98h6.34C55.1,44.32,57.74,41.88,57.74,37.88z"/>
	<path class="st0" d="M28.26,91.94v-5.55h-5.32v4.75c0,2.91,2.36,5.27,5.27,5.27h4.49C30.25,96.42,28.26,94.41,28.26,91.94z"/>
	<path class="st1" d="M28.26,91.94c0,2.48,1.99,4.48,4.44,4.48h38.97c2.92,0,5.38-2.42,5.38-5.27v-4.75h-48.8V91.94z M50.21,89.55
		c1.35,0,2.44,1.09,2.44,2.44c0,1.35-1.09,2.44-2.44,2.44c-1.35,0-2.44-1.09-2.44-2.44C47.78,90.64,48.87,89.55,50.21,89.55z"/>
	<path class="st2" d="M56.69,45.77c3.24-1.85,4.89-4.54,4.89-8.14c0-2.85-1.05-5.34-2.85-7.04c-1.63-1.5-3.88-2.41-6.55-2.6v-5.62
		c0-1.09-0.89-1.98-1.98-1.98s-1.98,0.89-1.98,1.98v5.58h-7.41v36.89h7.41v5.58c0,1.09,0.89,1.98,1.98,1.98s1.98-0.89,1.98-1.98
		v-5.6c3-0.12,5.61-1.09,7.39-2.77c1.9-1.8,3-4.34,3-7.34C62.58,50.56,60.44,47.32,56.69,45.77z M44.56,31.34h6.34
		c4.19,0,6.84,2.5,6.84,6.54c0,3.99-2.65,6.44-6.84,6.44h-6.34V31.34z M51.4,61.44h-6.84V47.72h6.84c4.59,0,7.34,2.55,7.34,6.74
		C58.74,58.8,55.94,61.44,51.4,61.44z"/>
	<path class="st2" d="M50.21,94.42c1.35,0,2.44-1.09,2.44-2.44c0-1.35-1.09-2.44-2.44-2.44c-1.35,0-2.44,1.09-2.44,2.44
		C47.78,93.33,48.87,94.42,50.21,94.42z"/>
	<path class="st2" d="M71.68,0H28.21c-4.88,0-8.86,3.97-8.86,8.86v75.61v6.68c0,4.89,3.97,8.86,8.86,8.86h43.46
		c4.94,0,8.96-3.97,8.96-8.86v-6.68V8.86C80.64,3.97,76.62,0,71.68,0z M77.06,91.14c0,2.86-2.46,5.27-5.38,5.27H32.7h-4.49
		c-2.91,0-5.27-2.37-5.27-5.27v-4.75h5.32h48.8V91.14z M77.06,82.53H22.94V8.86c0-2.91,2.36-5.27,5.27-5.27h43.46
		c2.92,0,5.38,2.42,5.38,5.27V82.53z"/>
</g>
</svg>
