<svg xmlns="http://www.w3.org/2000/svg" id="noti-section2" width="41.4" height="41.4" viewBox="0 0 41.4 41.4">
    <defs>
        <style>
            .cls-2{fill:#fff}
        </style>
    </defs>
    <g id="Group_61">
        <circle id="Ellipse_7" cx="20.7" cy="20.7" r="20.7" fill="#b19455"/>
    </g>
    <g id="Group_62" transform="translate(8.913 8.915)">
        <path id="Path_272" d="M40.7 38.347v-1.458a.5.5 0 0 0-.292-.417c-1.583-.541-1.583-.541-1.791-.333l-.333.333-9.121-9.121-.5-1.541a.416.416 0 0 0-.167-.208L25.2 23.394a.437.437 0 0 0-.541.042l-1.623 1.624a.437.437 0 0 0-.042.541l2.207 3.29a.416.416 0 0 0 .208.167l1.541.5 9.163 9.163-.458.458c-.208.208-.208.208.458 1.708a.4.4 0 0 0 .375.25h1.458l4.248 4.248a1.983 1.983 0 0 0 1.416.583 2.135 2.135 0 0 0 1.416-.583 1.937 1.937 0 0 0 0-2.791zm-13.328-9.5a.129.129 0 0 0-.083-.042l-1.5-.5-1.916-2.874 1.166-1.166 2.874 1.916.5 1.5c.042.083.042.125.125.167l9.2 9.2L36.7 38.1c-9.291-9.25-9.291-9.25-9.332-9.25zm9.371 11.412c-.125-.25-.25-.541-.333-.708l2.666-2.666c.208.083.5.167.791.25v.625l-2.457 2.5h-.666z" class="cls-2" transform="translate(-22.536 -22.563)"/>
        <path id="Path_273" d="M50.4 30.332l.625.625 2.5-2.5a1.031 1.031 0 0 0 .208-1.041 3.628 3.628 0 0 1 .791-3.873 3.88 3.88 0 0 1 3.5-1.083.09.09 0 0 1 .083.083.153.153 0 0 1-.042.125L56.231 24.5a.981.981 0 0 0 0 1.374l1.541 1.541a.981.981 0 0 0 1.374 0l1.833-1.833a.153.153 0 0 1 .125-.042.09.09 0 0 1 .083.083 4 4 0 0 1-1.083 3.5 3.628 3.628 0 0 1-3.873.791 1.051 1.051 0 0 0-1.041.208l-2.5 2.5.625.625 2.5-2.5a.153.153 0 0 1 .125-.042 4.4 4.4 0 0 0 4.748-1 4.754 4.754 0 0 0 1.333-4.248 1.017 1.017 0 0 0-.666-.75.994.994 0 0 0-1 .25l-1.833 1.833a.127.127 0 0 1-.167 0l-1.541-1.541a.127.127 0 0 1 0-.167l1.833-1.833a1.066 1.066 0 0 0 .25-1 1.092 1.092 0 0 0-.75-.666 4.754 4.754 0 0 0-4.247 1.335 4.414 4.414 0 0 0-1 4.748.153.153 0 0 1-.042.125z" class="cls-2" transform="translate(-38.571 -21.504)"/>
        <path id="Path_274" d="M24.957 61.079a1.237 1.237 0 1 1-1.749-1.749L31 51.541 30.372 51l-7.747 7.789A2.121 2.121 0 0 0 22 60.246a1.954 1.954 0 0 0 .625 1.458 2.121 2.121 0 0 0 1.458.625 1.954 1.954 0 0 0 1.457-.629l7.747-7.747-.625-.625z" class="cls-2" transform="translate(-22 -38.715)"/>
    </g>
</svg>
