<svg xmlns="http://www.w3.org/2000/svg" id="noti-section4" width="41.4" height="41.4" viewBox="0 0 41.4 41.4">
    <defs>
        <style>
            .cls-1{fill:#fff}
        </style>
    </defs>
    <path id="Path_276" d="M46.111 38.568l-1.541-2.624c0-.042-.042-.042-.042-.083a15.7 15.7 0 0 1-2.207-5.04v-3.582a6.044 6.044 0 0 0-6.04-6.039h-.167a6.044 6.044 0 0 0-6.039 6.039v3.582a14.844 14.844 0 0 1-2.207 5.04.145.145 0 0 0-.042.083l-1.5 2.582v.042a2.431 2.431 0 0 0 .083 2.082 1.044 1.044 0 0 0 .916.583h4.79a4.093 4.093 0 0 0 8.163 0h4.79a1.044 1.044 0 0 0 .916-.583 2.29 2.29 0 0 0 .127-2.082zm-13.079 2.666h1.5a3.035 3.035 0 0 0 2.124 2.874c-.125 0-.292.042-.417.042a3.278 3.278 0 0 1-3.207-2.916zm12.245-1.041c-.042.083-.125.167-.167.167H27.326c-.042 0-.125-.042-.167-.167a1.35 1.35 0 0 1-.042-1.208l1.5-2.541a16.238 16.238 0 0 0 2.374-5.414v-3.79a5.119 5.119 0 0 1 5.123-5.123h.167a5.119 5.119 0 0 1 5.119 5.122v3.79a15.51 15.51 0 0 0 2.374 5.414l1.5 2.541a1.361 1.361 0 0 1 .004 1.208z" class="cls-1" transform="translate(-15.498 -12.412)"/>
    <g id="Group_64">
        <circle id="Ellipse_9" cx="20.7" cy="20.7" r="20.7" fill="#b19455"/>
    </g>
    <path id="Path_277" d="M45.132 27.645a1.731 1.731 0 0 0-1.249-.541h-7.248c1.958-.333 4.123-1.083 4.373-2.749a2.076 2.076 0 0 0-1.583-2.207c-1.458-.5-3.748.042-5.414 3.165-.042.083-.083.208-.167.417a9.431 9.431 0 0 0-3.04-3.665 4.283 4.283 0 0 0-3.54-.666 2.647 2.647 0 0 0-2.041 2.832c.125.625.708 2.207 3.957 2.874h-5.623a1.806 1.806 0 0 0-1.249.541 1.5 1.5 0 0 0-.417 1.166l.208 3.165a1.654 1.654 0 0 0 1.625 1.623l.625 9.829a1.69 1.69 0 0 0 1.666 1.624h15.7a1.719 1.719 0 0 0 1.666-1.624l-.416-.042h.416l.417-9.829a1.654 1.654 0 0 0 1.624-1.624l.208-3.165a2.1 2.1 0 0 0-.498-1.124zM34.8 25.729c1.166-2.124 2.582-2.874 3.665-2.874a1.945 1.945 0 0 1 .708.125 1.245 1.245 0 0 1 1 1.249 1.283 1.283 0 0 1-.208.5 1.121 1.121 0 0 0-.833-1 2.458 2.458 0 0 0-.583-.083c-.916 0-2.124.625-3.082 2.416a1.259 1.259 0 0 0-.125.375 4.527 4.527 0 0 1-.75.042 2.349 2.349 0 0 1 .208-.75zM26.1 24.1a1.789 1.789 0 0 1 1.416-1.874 2.425 2.425 0 0 1 .791-.125 4.215 4.215 0 0 1 2.707 1.166 3.411 3.411 0 0 0-1.583-.458 4.1 4.1 0 0 0-.708.083 1.578 1.578 0 0 0-1.249 1.666c.125.625.75 1.291 2.082 1.708-2.292-.366-3.292-1.287-3.456-2.166zm-2.332 8.663a.827.827 0 0 1-.791-.833l-.208-3.165a.607.607 0 0 1 .208-.5.822.822 0 0 1 .583-.25h9.74v4.748zm1.416 10.621l-.584-9.742h8.7v10.579h-7.33a.892.892 0 0 1-.789-.833zm17.285 0a.858.858 0 0 1-.791.833h-7.5V33.6h8.7zM44.51 31.93a.858.858 0 0 1-.791.833h-9.541v-4.79h9.746a.756.756 0 0 1 .583.25.768.768 0 0 1 .208.5z" class="cls-1" transform="translate(-13.02 -12.442)"/>
</svg>
