<svg xmlns="http://www.w3.org/2000/svg" width="41.4" height="41.4" viewBox="0 0 41.4 41.4">
    <g>
        <circle cx="20.7" cy="20.7" r="20.7" fill="#b19455"/>
    </g>
    <path fill="#fff" d="M46.111 38.568l-1.541-2.624c0-.042-.042-.042-.042-.083a15.7 15.7 0 0 1-2.207-5.04v-3.582a6.044 6.044 0 0 0-6.04-6.039h-.167a6.044 6.044 0 0 0-6.039 6.039v3.582a14.844 14.844 0 0 1-2.207 5.04.145.145 0 0 0-.042.083l-1.5 2.582v.042a2.431 2.431 0 0 0 .083 2.082 1.044 1.044 0 0 0 .916.583h4.79a4.093 4.093 0 0 0 8.163 0h4.79a1.044 1.044 0 0 0 .916-.583 2.29 2.29 0 0 0 .127-2.082zm-13.079 2.666h1.5a3.035 3.035 0 0 0 2.124 2.874c-.125 0-.292.042-.417.042a3.278 3.278 0 0 1-3.207-2.916zm12.245-1.041c-.042.083-.125.167-.167.167H27.326c-.042 0-.125-.042-.167-.167a1.35 1.35 0 0 1-.042-1.208l1.5-2.541a16.238 16.238 0 0 0 2.374-5.414v-3.79a5.119 5.119 0 0 1 5.123-5.123h.167a5.119 5.119 0 0 1 5.119 5.122v3.79a15.51 15.51 0 0 0 2.374 5.414l1.5 2.541a1.361 1.361 0 0 1 .004 1.208z" transform="translate(-15.498 -12.412)"/>
</svg>
