<svg xmlns="http://www.w3.org/2000/svg" id="noti-section5" width="41.4" height="41.4" viewBox="0 0 41.4 41.4">
    <defs>
        <style>
            .cls-2{fill:#fff}
        </style>
    </defs>
    <g id="Group_65">
        <circle id="Ellipse_10" cx="20.7" cy="20.7" r="20.7" fill="#b19455"/>
    </g>
    <g id="Group_66" transform="translate(8.871 11.787)">
        <path id="Path_278" d="M53.549 49.325a.356.356 0 0 0-.541 0l-1.583 1.583a.383.383 0 1 0 .541.541l1.583-1.583a.437.437 0 0 0 0-.541z" class="cls-2" transform="translate(-39.055 -40.537)"/>
        <path id="Path_279" d="M53.966 55.423l3.457-3.457a.383.383 0 1 0-.541-.541l-3.457 3.457a.356.356 0 0 0 0 .541.39.39 0 0 0 .541 0z" class="cls-2" transform="translate(-40.222 -41.762)"/>
        <path id="Path_280" d="M60.966 60.116l1.249-1.249a.383.383 0 0 0-.541-.541l-1.249 1.249a.356.356 0 0 0 0 .541.437.437 0 0 0 .541 0z" class="cls-2" transform="translate(-44.306 -45.788)"/>
        <path id="Path_281" d="M27.6 35.4a3.044 3.044 0 0 0 2.582-1.458 3.016 3.016 0 0 0 5.165 0 3.016 3.016 0 0 0 5.165 0 3.044 3.044 0 0 0 2.581 1.458 2.986 2.986 0 0 0 3-3v-3.584a.417.417 0 0 0-.417-.416h-20.66a.417.417 0 0 0-.417.416V32.4a2.986 2.986 0 0 0 3.001 3zm17.576-3a2.124 2.124 0 0 1-4.248 0v-3.167h4.248zm-5.165 0a2.124 2.124 0 0 1-4.248 0v-3.167h4.29V32.4zm-5.123 0a2.124 2.124 0 0 1-4.248 0v-3.167h4.29V32.4zm-9.413-3.124h4.29V32.4a2.124 2.124 0 0 1-4.248 0v-3.125z" class="cls-2" transform="translate(-23.475 -28.4)"/>
        <path id="Path_282" d="M45.266 55.6h-1.958v-9.284a.417.417 0 0 0-.833 0v9.2H31.646v-9.2a.417.417 0 0 0-.416-.417c-.083 0-.125.042-.208.042a.709.709 0 0 0-.292-.042h-3.624a.924.924 0 0 0-.916.916v8.455a.528.528 0 0 0 .042.25h-1.167v-9.2a.417.417 0 0 0-.416-.416.448.448 0 0 0-.416.416v9.28h-1.958a.411.411 0 0 0-.375.416.385.385 0 0 0 .375.417h22.991a.419.419 0 0 0 0-.833z" class="cls-2" transform="translate(-21.9 -38.611)"/>
    </g>
</svg>
