<svg xmlns="http://www.w3.org/2000/svg" id="noti-section1" width="41.4" height="41.4" viewBox="0 0 41.4 41.4">
    <defs>
        <style>
            .cls-2{fill:#fff}
        </style>
    </defs>
    <g id="Group_59">
        <circle id="Ellipse_4" cx="20.7" cy="20.7" r="20.7" fill="#b19455"/>
    </g>
    <g id="Group_60" transform="translate(9.223 9.223)">
        <path id="Path_261" d="M45.478 40.946h-4.3V25.254a2.752 2.752 0 0 0-2.753-2.754H25.654a2.752 2.752 0 0 0-2.754 2.754v1.419a.374.374 0 0 0 .376.376h4.3v15.692a2.752 2.752 0 0 0 2.753 2.759h12.812a2.752 2.752 0 0 0 2.759-2.759v-1.419a.385.385 0 0 0-.422-.376zm-21.785-14.69v-1.043a1.959 1.959 0 0 1 1.961-1.961 1.42 1.42 0 0 1 .417.042 1.935 1.935 0 0 0-1.544 1.92v1.043zM30.329 44.7a1.959 1.959 0 0 1-1.961-1.961V25.254a2.815 2.815 0 0 0-.835-1.961h10.892a1.959 1.959 0 0 1 1.961 1.961v17.487a2.815 2.815 0 0 0 .835 1.961zm10.851-1.961V41.7h.835v1.043a1.935 1.935 0 0 0 1.544 1.92 1.287 1.287 0 0 1-.417.042 1.959 1.959 0 0 1-1.963-1.964z" class="cls-2" transform="translate(-22.9 -22.5)"/>
        <path id="Path_262" d="M42.359 40.7a.459.459 0 1 0 .459.459.438.438 0 0 0-.459-.459z" class="cls-2" transform="translate(-33.971 -33.104)"/>
        <path id="Path_263" d="M47.359 40.7a.459.459 0 1 0 .459.459.463.463 0 0 0-.459-.459z" class="cls-2" transform="translate(-36.884 -33.104)"/>
        <path id="Path_264" d="M52.259 40.7a.459.459 0 1 0 .459.459.463.463 0 0 0-.459-.459z" class="cls-2" transform="translate(-39.739 -33.104)"/>
        <path id="Path_265" d="M57.259 40.7a.459.459 0 1 0 .459.459.463.463 0 0 0-.459-.459z" class="cls-2" transform="translate(-42.652 -33.104)"/>
        <path id="Path_266" d="M42.359 48.9a.459.459 0 1 0 .459.459.438.438 0 0 0-.459-.459z" class="cls-2" transform="translate(-33.971 -37.882)"/>
        <path id="Path_267" d="M47.359 48.9a.459.459 0 1 0 .459.459.463.463 0 0 0-.459-.459z" class="cls-2" transform="translate(-36.884 -37.882)"/>
        <path id="Path_268" d="M52.259 48.9a.459.459 0 1 0 0 .918.438.438 0 0 0 .459-.459.463.463 0 0 0-.459-.459z" class="cls-2" transform="translate(-39.739 -37.882)"/>
        <path id="Path_269" d="M57.259 48.9a.459.459 0 1 0 .459.459.463.463 0 0 0-.459-.459z" class="cls-2" transform="translate(-42.652 -37.882)"/>
        <circle id="Ellipse_5" cx=".459" cy=".459" r=".459" class="cls-2" transform="translate(7.929 14.482)"/>
        <path id="Path_270" d="M47.359 57.1a.459.459 0 1 0 .459.459.463.463 0 0 0-.459-.459z" class="cls-2" transform="translate(-36.884 -42.66)"/>
        <circle id="Ellipse_6" cx=".459" cy=".459" r=".459" class="cls-2" transform="translate(12.061 14.482)"/>
        <path id="Path_271" d="M57.259 57.1a.459.459 0 1 0 .459.459.463.463 0 0 0-.459-.459z" class="cls-2" transform="translate(-42.652 -42.66)"/>
    </g>
</svg>
