<svg xmlns="http://www.w3.org/2000/svg" width="192" height="192" viewBox="0 0 192 192">
  <g id="safari-pinned-tab" transform="translate(0 0.324)">
    <rect id="Rectangle_1" data-name="Rectangle 1" width="192" height="192" rx="96" transform="translate(0 -0.324)"/>
    <path id="Path_1" data-name="Path 1" d="M115.657,107.238l.715-1.192L97.778,92.339l-.834,1.192A33.969,33.969,0,0,1,83.952,105.45,41.836,41.836,0,0,1,65.359,109.5,37.9,37.9,0,0,1,50.1,106.4a37.9,37.9,0,0,1-11.919-8.82,40.525,40.525,0,0,1-7.867-12.992,49.344,49.344,0,0,1-2.384-17.163,49.821,49.821,0,0,1,2.384-17.163A40.048,40.048,0,0,1,38.3,36.8a35.757,35.757,0,0,1,11.919-8.939A35.042,35.042,0,0,1,65.24,24.639a39.214,39.214,0,0,1,18,4.052A33.611,33.611,0,0,1,96.11,40.611l.834,1.192,1.192-.834,16.21-11.919,1.073-.715-.715-1.192A54.827,54.827,0,0,0,94.2,8.906,61.144,61.144,0,0,0,65.716,2.47,61.383,61.383,0,0,0,40.925,7.476a63.17,63.17,0,0,0-19.9,13.349,61.86,61.86,0,0,0-13.23,21.1A68.057,68.057,0,0,0,2.9,67.548,70.322,70.322,0,0,0,7.552,93.412a62.694,62.694,0,0,0,12.992,20.5,58.641,58.641,0,0,0,19.309,13.349,63.171,63.171,0,0,0,24.911,4.768,66.627,66.627,0,0,0,29.678-6.436,50.775,50.775,0,0,0,20.739-18.355" transform="translate(31.662 27.823)" fill="#fff"/>
  </g>
</svg>
