<svg xmlns="http://www.w3.org/2000/svg" width="110.933" height="97.289" viewBox="0 0 110.933 97.289">
    <g>
        <path d="M-33.507 379.507l28.5-8.76v38.983l-28.5-13.911z" transform="rotate(-25.97 -638.88 -405.29) translate(-195.913 -82.582)" style="isolation:isolate" fill="#ae965f"/>
        <g>
            <path d="M-186.183 302.408a14.977 14.977 0 0 0-6.847-12.56v-9.932a4.633 4.633 0 0 0-1.994-3.808 4.634 4.634 0 0 0-4.266-.529l-30.447 11.428a2.748 2.748 0 0 0-1-.191h-19.726a2.769 2.769 0 0 0-2.766 2.766v.852h-3.789a2.87 2.87 0 0 0-2.957 2.766v15.29a2.87 2.87 0 0 0 2.957 2.766h3.789v.859a2.769 2.769 0 0 0 2.766 2.766h3.126v20.679a2.769 2.769 0 0 0 2.766 2.766h7.032a2.769 2.769 0 0 0 2.766-2.766v-20.679h4.036a2.751 2.751 0 0 0 .858-.138l30.244 14.252a4.636 4.636 0 0 0 1.977.445 4.619 4.619 0 0 0 2.478-.724 4.61 4.61 0 0 0 2.151-3.912v-9.836a14.9 14.9 0 0 0 6.846-12.56zm-41.9-13.573l25.807-9.686v46.069l-25.861-12.186a2.746 2.746 0 0 0 .159-.916v-22.533a2.754 2.754 0 0 0-.101-.748zm-28.942 20.127c-.391 0-.664-.249-.664-.472V293.2c0-.223.273-.472.664-.472h3.789v16.234zm19.952 26.6a.473.473 0 0 1-.472.472h-7.032a.473.473 0 0 1-.472-.472v-20.681h7.977zm6.8-23.445a.473.473 0 0 1-.472.472h-19.726a.473.473 0 0 1-.472-.472v-22.534a.473.473 0 0 1 .472-.472h19.726a.473.473 0 0 1 .472.472zm34.943 12.69a2.3 2.3 0 0 1-1.086 1.975 2.3 2.3 0 0 1-2.249.141l-1.319-.621v-48.015l1.494-.561a2.308 2.308 0 0 1 2.153.267 2.308 2.308 0 0 1 1.007 1.922zm2.294-12.674v-19.442a12.678 12.678 0 0 1 4.554 9.716 12.616 12.616 0 0 1-4.548 9.723z" transform="rotate(-25.97 -638.88 -405.29) translate(-259.978 275.284) translate(259.978 -275.284)"/>
            <g>
                <path d="M328.164 463.3h-12.487a1.349 1.349 0 1 1 0-2.7h12.486a1.349 1.349 0 1 1 0 2.7z" transform="rotate(-25.97 -638.88 -405.29) translate(-259.978 275.284) translate(77.492 25.005) translate(-314.328 -460.604)"/>
            </g>
            <g>
                <path d="M291.051 304.4a1.349 1.349 0 0 1-.945-2.312l10.674-10.472a1.349 1.349 0 0 1 1.89 1.926L292 304.013a1.345 1.345 0 0 1-.949.387z" transform="rotate(-25.97 -638.88 -405.29) translate(-259.978 275.284) translate(74.169 2.151) translate(-289.702 -291.229)"/>
            </g>
            <g>
                <path d="M301.725 565.539a1.345 1.345 0 0 1-.945-.386l-10.674-10.472a1.349 1.349 0 0 1 1.89-1.926l10.674 10.472a1.349 1.349 0 0 1-.945 2.312z" transform="rotate(-25.97 -638.88 -405.29) translate(-259.978 275.284) translate(74.169 37.387) translate(-289.702 -552.368)"/>
            </g>
        </g>
    </g>
</svg>
