<svg xmlns="http://www.w3.org/2000/svg" id="Branch" width="41.046" height="29" viewBox="0 0 41.046 29">
    <defs>
        <style>
            .cls-1{fill:#b19455}.cls-2{fill:#231f20}
        </style>
    </defs>
    <path id="Rectangle_28" d="M0 0H9.859V7.26H0z" class="cls-1" transform="translate(22.936 16.542)"/>
    <path id="Rectangle_29" d="M0 0H36.879V9.735H0z" class="cls-1" transform="translate(3.754 .578)"/>
    <path id="Path_442" d="M41.068 23.549H1.178a.564.564 0 0 1-.578-.577v-9.694a.564.564 0 0 1 .578-.578h39.89a.564.564 0 0 1 .578.578v9.735a.556.556 0 0 1-.578.536zM1.755 22.435h38.777v-8.58H1.755v8.58z" class="cls-2" transform="translate(-.6 -12.7)"/>
    <path id="Path_443" d="M41.785 55.741H8.578A.564.564 0 0 1 8 55.163V37.178a.564.564 0 0 1 .578-.578h33.248a.564.564 0 0 1 .578.578v17.985a.627.627 0 0 1-.619.578zm-32.63-1.155h32.094V37.755H9.155z" class="cls-2" transform="translate(-4.947 -26.741)"/>
    <path id="Path_444" d="M28.689 60.911h-9.611a.564.564 0 0 1-.578-.578V45.978a.564.564 0 0 1 .578-.578h9.57a.564.564 0 0 1 .578.578v14.355a.556.556 0 0 1-.537.578zm-9.034-1.155h8.457v-13.2h-8.457z" class="cls-2" transform="translate(-11.116 -31.911)"/>
    <path id="Path_445" d="M61.712 56H49.378a.564.564 0 0 1-.578-.578V45.278a.564.564 0 0 1 .578-.578h12.334a.564.564 0 0 1 .578.578v10.147a.564.564 0 0 1-.578.575zm-11.757-1.152h11.179v-8.993H49.955z" class="cls-2" transform="translate(-28.917 -31.499)"/>
    <path id="Path_446" d="M40.858 81.355H3.278a.578.578 0 0 1 0-1.155h37.58a.578.578 0 1 1 0 1.155z" class="cls-2" transform="translate(-1.834 -52.355)"/>
</svg>
