<svg xmlns="http://www.w3.org/2000/svg" width="19" height="16" viewBox="0 0 19 16">
    <defs>
        <clipPath id="pb0tudjoca">
            <path fill="none" d="M0 0H19V16H0z"/>
        </clipPath>
    </defs>
    <g>
        <g clip-path="url(#pb0tudjoca)">
            <path d="M18.647 5.718H.353A.354.354 0 0 1 0 5.362V1.97a.354.354 0 0 1 .353-.356h18.294A.354.354 0 0 1 19 1.97v3.392a.354.354 0 0 1-.353.356M.705 5.006h17.59v-2.68H.705z"/>
            <path d="M4.926 9.146H.353A.354.354 0 0 1 0 8.79V5.362a.354.354 0 0 1 .353-.356h4.573a.354.354 0 0 1 .353.356V8.79a.354.354 0 0 1-.353.356M.705 8.433h3.869V5.718H.705z"/>
            <path d="M9.5 9.146H4.926a.354.354 0 0 1-.353-.356V5.362a.354.354 0 0 1 .353-.356H9.5a.354.354 0 0 1 .353.356V8.79a.354.354 0 0 1-.353.356m-4.221-.713h3.868V5.718H5.279z"/>
            <path d="M14.074 9.146H9.5a.354.354 0 0 1-.353-.356V5.362a.354.354 0 0 1 .353-.356h4.574a.354.354 0 0 1 .353.356V8.79a.354.354 0 0 1-.353.356m-4.221-.713h3.869V5.718H9.853z"/>
            <path d="M18.647 9.146h-4.573a.354.354 0 0 1-.353-.356V5.362a.354.354 0 0 1 .353-.356h4.574a.354.354 0 0 1 .352.356V8.79a.354.354 0 0 1-.353.356m-4.221-.712h3.869V5.718h-3.869z"/>
            <path d="M4.926 12.573H.353A.354.354 0 0 1 0 12.217V8.79a.354.354 0 0 1 .353-.356h4.573a.354.354 0 0 1 .353.356v3.427a.354.354 0 0 1-.353.356m-4.221-.712h3.869V9.146H.705z"/>
            <path d="M9.5 12.573H4.926a.354.354 0 0 1-.353-.356V8.79a.354.354 0 0 1 .353-.356H9.5a.354.354 0 0 1 .353.356v3.427a.354.354 0 0 1-.353.356m-4.221-.712h3.868V9.146H5.279z"/>
            <path d="M14.074 12.573H9.5a.354.354 0 0 1-.353-.356V8.79a.354.354 0 0 1 .353-.357h4.574a.354.354 0 0 1 .353.356v3.427a.354.354 0 0 1-.353.356m-4.221-.712h3.869V9.146H9.853z"/>
            <path d="M18.647 12.573h-4.573a.354.354 0 0 1-.353-.356V8.79a.354.354 0 0 1 .353-.356h4.574A.354.354 0 0 1 19 8.79v3.427a.354.354 0 0 1-.353.356m-4.221-.712h3.869V9.146h-3.869z"/>
            <path d="M4.926 16H.353A.354.354 0 0 1 0 15.644v-3.427a.354.354 0 0 1 .353-.356h4.573a.354.354 0 0 1 .353.356v3.427a.354.354 0 0 1-.353.356m-4.221-.712h3.869v-2.715H.705z"/>
            <path d="M9.5 16H4.926a.354.354 0 0 1-.353-.356v-3.427a.354.354 0 0 1 .353-.356H9.5a.354.354 0 0 1 .353.356v3.427A.354.354 0 0 1 9.5 16m-4.221-.712h3.868v-2.715H5.279z"/>
            <path d="M14.074 16H9.5a.354.354 0 0 1-.353-.356v-3.427a.354.354 0 0 1 .353-.356h4.574a.354.354 0 0 1 .353.356v3.427a.354.354 0 0 1-.353.356m-4.221-.712h3.869v-2.715H9.853z"/>
            <path d="M18.647 16h-4.573a.354.354 0 0 1-.353-.356v-3.427a.354.354 0 0 1 .353-.356h4.574a.354.354 0 0 1 .353.356v3.427a.354.354 0 0 1-.353.356m-4.221-.712h3.869v-2.715h-3.87z"/>
            <path d="M4.926 3.94a.354.354 0 0 1-.353-.356V.356a.353.353 0 1 1 .705 0v3.228a.354.354 0 0 1-.353.356"/>
            <path d="M14.074 3.94a.354.354 0 0 1-.353-.356V.356a.353.353 0 1 1 .705 0v3.228a.354.354 0 0 1-.353.356"/>
        </g>
    </g>
</svg>
