<svg xmlns="http://www.w3.org/2000/svg" id="Group_32" width="23" height="19" viewBox="0 0 23 19">
    <defs>
        <clipPath id="clip-path">
            <path id="Rectangle_41" fill="none" d="M0 0H23V19H0z"/>
        </clipPath>
        <style>
            .cls-3{fill:#ab8633}
        </style>
    </defs>
    <g id="Group_31" clip-path="url(#clip-path)">
        <path id="Path_131" d="M22.573 6.791H.427A.425.425 0 0 1 0 6.368V2.34a.425.425 0 0 1 .427-.423h22.146A.425.425 0 0 1 23 2.34v4.028a.425.425 0 0 1-.427.423M.853 5.945h21.294V2.762H.853z" class="cls-3"/>
        <path id="Path_132" d="M5.963 10.86H.427A.425.425 0 0 1 0 10.438v-4.07a.425.425 0 0 1 .427-.423h5.536a.425.425 0 0 1 .427.423v4.07a.425.425 0 0 1-.427.423m-5.11-.846h4.684V6.791H.853z" class="cls-3"/>
        <path id="Path_133" d="M11.5 10.86H5.963a.425.425 0 0 1-.427-.423V6.368a.425.425 0 0 1 .427-.423H11.5a.425.425 0 0 1 .427.423v4.07a.425.425 0 0 1-.427.423m-5.11-.846h4.683V6.791H6.39z" class="cls-3"/>
        <path id="Path_134" d="M17.037 10.86H11.5a.425.425 0 0 1-.427-.423V6.368a.425.425 0 0 1 .427-.423h5.537a.425.425 0 0 1 .427.423v4.07a.425.425 0 0 1-.427.423m-5.11-.846h4.683V6.791h-4.683z" class="cls-3"/>
        <path id="Path_135" d="M22.573 10.86h-5.536a.425.425 0 0 1-.427-.423V6.368a.425.425 0 0 1 .427-.423h5.537a.425.425 0 0 1 .426.423v4.07a.425.425 0 0 1-.427.423m-5.11-.846h4.683V6.791h-4.683z" class="cls-3"/>
        <path id="Path_136" d="M5.963 14.93H.427A.425.425 0 0 1 0 14.507v-4.07a.425.425 0 0 1 .427-.423h5.536a.425.425 0 0 1 .427.423v4.07a.425.425 0 0 1-.427.423m-5.11-.846h4.684V10.86H.853z" class="cls-3"/>
        <path id="Path_137" d="M11.5 14.93H5.963a.425.425 0 0 1-.427-.423v-4.07a.425.425 0 0 1 .427-.423H11.5a.425.425 0 0 1 .427.423v4.07a.425.425 0 0 1-.427.423m-5.11-.846h4.683V10.86H6.39z" class="cls-3"/>
        <path id="Path_138" d="M17.037 14.93H11.5a.425.425 0 0 1-.427-.423v-4.07a.425.425 0 0 1 .427-.423h5.537a.425.425 0 0 1 .427.423v4.07a.425.425 0 0 1-.427.423m-5.11-.846h4.683V10.86h-4.683z" class="cls-3"/>
        <path id="Path_139" d="M22.573 14.93h-5.536a.425.425 0 0 1-.427-.423v-4.07a.425.425 0 0 1 .427-.423h5.537a.425.425 0 0 1 .427.423v4.07a.425.425 0 0 1-.427.423m-5.11-.846h4.683V10.86h-4.684z" class="cls-3"/>
        <path id="Path_140" d="M5.963 19H.427A.425.425 0 0 1 0 18.577v-4.07a.425.425 0 0 1 .427-.423h5.536a.425.425 0 0 1 .427.423v4.07a.425.425 0 0 1-.427.423m-5.11-.846h4.684V14.93H.853z" class="cls-3"/>
        <path id="Path_141" d="M11.5 19H5.963a.425.425 0 0 1-.427-.423v-4.07a.425.425 0 0 1 .427-.423H11.5a.425.425 0 0 1 .427.423v4.07A.425.425 0 0 1 11.5 19m-5.11-.846h4.683V14.93H6.39z" class="cls-3"/>
        <path id="Path_142" d="M17.037 19H11.5a.425.425 0 0 1-.427-.423v-4.07a.425.425 0 0 1 .427-.423h5.537a.425.425 0 0 1 .427.423v4.07a.425.425 0 0 1-.427.423m-5.11-.846h4.683V14.93h-4.683z" class="cls-3"/>
        <path id="Path_143" d="M22.573 19h-5.536a.425.425 0 0 1-.427-.423v-4.07a.425.425 0 0 1 .427-.423h5.537a.425.425 0 0 1 .427.423v4.07a.425.425 0 0 1-.427.423m-5.11-.846h4.683V14.93h-4.684z" class="cls-3"/>
        <path id="Path_144" d="M5.963 4.679a.425.425 0 0 1-.427-.423V.423a.427.427 0 0 1 .853 0v3.833a.425.425 0 0 1-.427.423" class="cls-3"/>
        <path id="Path_145" d="M17.037 4.679a.425.425 0 0 1-.427-.423V.423a.427.427 0 0 1 .853 0v3.833a.425.425 0 0 1-.427.423" class="cls-3"/>
    </g>
</svg>
