<svg xmlns="http://www.w3.org/2000/svg" width="27" height="20.041" viewBox="0 0 27 20.041">
    <path fill="#fff" d="M46.031 30.765l-.749.617V29.4H20.793v1.63l-.485-.4-.308.62v15.5l1.542 1.277 23.432.044 1.057-1.365zM32.817 40.94l-.969-.617-10.262-8.633h23.3L33.83 40.808z" transform="translate(-19.56 -28.607)"/>
    <g>
        <path fill="#b19455" d="M23.277 32.9h21.8a1.478 1.478 0 0 1 1.277.7l-11.008 9.651-.044.044a1.649 1.649 0 0 1-2.29 0l-.044-.044L22 33.6a1.478 1.478 0 0 1 1.277-.7z" transform="translate(1.321 2.334) translate(-22 -32.9)"/>
    </g>
    <path d="M43.4 27.6H21.6a2.428 2.428 0 0 0-2.6 2.6v14.842a2.428 2.428 0 0 0 2.6 2.6h21.8a2.428 2.428 0 0 0 2.6-2.6V30.2a2.451 2.451 0 0 0-2.6-2.6zm-21.8 1.1h21.8a1.478 1.478 0 0 1 1.277.7l-11.01 9.652-.044.044a1.649 1.649 0 0 1-2.29 0l-.044-.044-10.968-9.646A1.478 1.478 0 0 1 21.6 28.7zm21.8 17.84H21.6a1.485 1.485 0 0 1-1.5-1.5V30.947l10.351 9.029a2.979 2.979 0 0 0 4.14 0l10.351-9.029v14.095A1.552 1.552 0 0 1 43.4 46.54z" transform="translate(-19 -27.6)"/>
</svg>
