<svg width="100" height="100" xmlns="http://www.w3.org/2000/svg" data-name="Layer 1">

 <g>
  <title>Layer 1</title>
  <path id="svg_3" fill="#b19455" d="m63.23,99l-53,0a6.12,6.12 0 0 1 -6.12,-6.11l0,-61.13a2,2 0 0 1 0.6,-1.44l18.36,-18.32a2,2 0 0 1 1.44,-0.6l38.72,0a6.12,6.12 0 0 1 6.11,6.11l0,75.4a6.12,6.12 0 0 1 -6.11,6.09zm-55,-66.4l0,60.29a2,2 0 0 0 2,2l53,0a2,2 0 0 0 2,-2l0,-75.4a2,2 0 0 0 -2,-2l-37.88,0l-17.12,17.11z" class="cls-1"/>
  <path id="svg_4" fill="#b19455" d="m75.45,92.89a2,2 0 0 1 -0.29,-4.06l14.27,-2c2.52,-0.34 2.43,-1.05 2.34,-1.8l-10.19,-77.46a2.5,2.5 0 0 0 -0.89,-1.85a3.72,3.72 0 0 0 -2.87,-0.48l-40.88,4.09a2,2 0 1 1 -0.41,-4l40.76,-4.13a7.62,7.62 0 0 1 5.88,1.28a6.5,6.5 0 0 1 2.46,4.61l10.18,77.38c0.26,2 -0.15,5.59 -5.82,6.36l-14.25,2l-0.29,0.06z" class="cls-1"/>
  <path id="svg_5" fill="#b19455" d="m20.43,33.8l-14.26,0a2,2 0 0 1 0,-4.08l14.26,0a2,2 0 0 0 2,-2l0,-14.3a2,2 0 1 1 4.08,0l0,14.26a6.13,6.13 0 0 1 -6.08,6.12z" class="cls-1"/>
 </g>
</svg>