<?xml version="1.0" encoding="utf-8"?>
<!-- Generator: Adobe Illustrator 24.1.0, SVG Export Plug-In . SVG Version: 6.00 Build 0)  -->
<svg version="1.1" id="Layer_1" xmlns="http://www.w3.org/2000/svg" xmlns:xlink="http://www.w3.org/1999/xlink" x="0px" y="0px"
	 viewBox="0 0 100 100" style="enable-background:new 0 0 100 100;" xml:space="preserve">
<style type="text/css">
	.st0{fill:none;}
	.st1{fill:#B29656;}
</style>
<g>
	<path class="st0" d="M43.26,23.7c0-4.25,3.45-7.7,7.7-7.7h10.71c-0.43-2.8-2.85-4.96-5.77-4.96H43.91c-3.22,0-5.85,2.62-5.85,5.85
		v28.87c0,0.9-0.65,1.65-1.5,1.81h6.7V23.7z"/>
	<path class="st1" d="M69.78,47.7c-0.02,0-0.18-0.09-0.66-0.09h-5.52c-1.02,0-1.85-0.83-1.85-1.85V16.89c0-0.3-0.03-0.6-0.07-0.89
		H50.95c-4.25,0-7.7,3.45-7.7,7.7v23.88h-6.7c-0.11,0.02-0.23,0.04-0.35,0.04h-5.52c-0.52,0-0.69,0.12-0.69,0.12
		c-0.05,0.13-0.02,1.16,1.37,2.94l4,5.08l0.32,0.41l10.9,13.87c0.91,1.16,2.09,1.8,3.3,1.8c1.22,0,2.39-0.64,3.3-1.8l15.22-19.37
		C69.81,48.9,69.85,47.88,69.78,47.7z"/>
	<path d="M73.11,46.08c-0.47-0.98-1.34-1.65-2.47-1.97c-0.47-0.13-0.97-0.21-1.52-0.21h-3.67V16.89c0-0.16-0.02-0.31-0.02-0.47
		C65.17,11.37,61,7.34,55.9,7.34H43.91c-5.26,0-9.55,4.28-9.55,9.55v27.02h-3.67c-1.87,0-3.32,0.79-3.99,2.17
		c-0.89,1.84-0.27,4.28,1.77,6.87l15.22,19.37c1.63,2.07,3.83,3.21,6.21,3.21c0.12,0,0.23-0.02,0.34-0.02
		c2.24-0.1,4.32-1.22,5.87-3.19l15.22-19.37c0.1-0.13,0.18-0.26,0.28-0.38C73.41,50.12,73.95,47.83,73.11,46.08z M68.43,50.67
		L53.2,70.03c-0.91,1.16-2.09,1.8-3.3,1.8c-1.22,0-2.39-0.64-3.3-1.8L35.7,56.16l-0.32-0.41l-4-5.08c-1.4-1.78-1.42-2.81-1.37-2.94
		c0,0,0.17-0.12,0.69-0.12h5.52c0.12,0,0.24-0.01,0.35-0.04c0.85-0.16,1.5-0.91,1.5-1.81V16.89c0-3.22,2.62-5.85,5.85-5.85H55.9
		c2.92,0,5.34,2.16,5.77,4.96c0.04,0.29,0.07,0.58,0.07,0.89v28.87c0,1.02,0.83,1.85,1.85,1.85h5.52c0.48,0,0.64,0.09,0.66,0.09
		C69.85,47.88,69.81,48.9,68.43,50.67z"/>
	<path d="M96.19,67.98v9.91c0,6.1-4.96,11.07-11.07,11.07H14.87c-6.1,0-11.07-4.96-11.07-11.07v-9.91h-3.7v9.91
		c0,8.14,6.62,14.76,14.76,14.76h70.25c8.14,0,14.76-6.62,14.76-14.76v-9.91H96.19z"/>
</g>
</svg>
