<svg xmlns="http://www.w3.org/2000/svg" width="32" height="40" viewBox="0 0 32 40">
    <defs>
        <clipPath id="vai0kr6kxa">
            <path fill="none" d="M0 0H32V40H0z"/>
        </clipPath>
    </defs>
    <g>
        <g>
            <g>
                <g clip-path="url(#vai0kr6kxa)" transform="translate(-344 -1693) translate(344 1693)">
                    <path fill="#070606" d="M31.79 11.546v-7.93A3.636 3.636 0 0 0 28.132 0H11.859a4.231 4.231 0 0 0-2.977 1.219L.872 9.138A2.931 2.931 0 0 0 0 11.219v25.165A3.637 3.637 0 0 0 3.658 40h24.474a3.636 3.636 0 0 0 3.658-3.616V20.742M10.115 2.02v5.793A2.2 2.2 0 0 1 7.9 10H2.043zm20.23 20.5v13.864a2.2 2.2 0 0 1-2.213 2.188H3.658a2.2 2.2 0 0 1-2.212-2.188V11.429H7.9a3.636 3.636 0 0 0 3.66-3.616V1.429h16.572a2.2 2.2 0 0 1 2.213 2.187v9.7"/>
                    <path fill="#a98432" d="M0 0H5.444V5.545H0z" transform="translate(20.541 5.583)"/>
                </g>
            </g>
        </g>
        <path d="M1.609.065a.794.794 0 0 0 .821-.821.815.815 0 0 0-.853-.821.8.8 0 0 0-.821.821.815.815 0 0 0 .853.821zm4.536.13a2.445 2.445 0 0 0 2.484-2.668v-5.508H7.247v5.519c0 .864-.421 1.393-1.112 1.393a1.081 1.081 0 0 1-1.08-1.015H3.672A2.413 2.413 0 0 0 6.145.194zM10.843 0h1.3v-2.84h.842a2.878 2.878 0 0 0 2-.7 2.486 2.486 0 0 0 .745-1.868 2.486 2.486 0 0 0-.745-1.868 2.878 2.878 0 0 0-2-.7h-2.142zm1.3-4v-2.83h.767a1.359 1.359 0 0 1 1.49 1.419A1.359 1.359 0 0 1 12.906-4zM21.265.194A3.706 3.706 0 0 0 24.073-.95a4.3 4.3 0 0 0 1.058-3.013v-.389h-3.6V-3.2h2.117a2.432 2.432 0 0 1-.767 1.534 2.4 2.4 0 0 1-1.62.583 2.661 2.661 0 0 1-1.961-.829A3.03 3.03 0 0 1 18.511-4a3.03 3.03 0 0 1 .789-2.08 2.652 2.652 0 0 1 1.965-.82A2.657 2.657 0 0 1 23.5-5.692l1.069-.767a3.762 3.762 0 0 0-3.294-1.717 4.137 4.137 0 0 0-2.992 1.2 4.234 4.234 0 0 0-1.21 3A4.111 4.111 0 0 0 18.274-1 4.181 4.181 0 0 0 21.265.194z" transform="translate(-344 -1693) translate(347.897 1720.275)"/>
    </g>
</svg>
