<svg xmlns="http://www.w3.org/2000/svg" width="32" height="40" viewBox="0 0 32 40">
    <defs>
        <clipPath id="pe09fbvgaa">
            <path fill="none" d="M0 0H32V40H0z"/>
        </clipPath>
    </defs>
    <g>
        <g>
            <g>
                <g clip-path="url(#pe09fbvgaa)" transform="translate(-344 -1751) translate(344 1751)">
                    <path fill="#070606" d="M31.79 11.546v-7.93A3.636 3.636 0 0 0 28.132 0H11.859a4.231 4.231 0 0 0-2.977 1.219L.872 9.138A2.931 2.931 0 0 0 0 11.219v25.165A3.637 3.637 0 0 0 3.658 40h24.474a3.636 3.636 0 0 0 3.658-3.616V20.742M10.115 2.02v5.793A2.2 2.2 0 0 1 7.9 10H2.043zm20.23 20.5v13.864a2.2 2.2 0 0 1-2.213 2.188H3.658a2.2 2.2 0 0 1-2.212-2.188V11.429H7.9a3.636 3.636 0 0 0 3.66-3.616V1.429h16.572a2.2 2.2 0 0 1 2.213 2.187v9.7"/>
                    <path fill="#a98432" d="M0 0H5.444V5.545H0z" transform="translate(20.541 5.583)"/>
                </g>
            </g>
        </g>
        <path d="M1.609.065a.794.794 0 0 0 .821-.821.815.815 0 0 0-.853-.821.8.8 0 0 0-.821.821.815.815 0 0 0 .853.821zM4.428 0h1.3v-2.84h.842a2.878 2.878 0 0 0 2-.7 2.486 2.486 0 0 0 .74-1.871 2.486 2.486 0 0 0-.745-1.868 2.878 2.878 0 0 0-2-.7H4.428zm1.3-4v-2.83h.767a1.359 1.359 0 0 1 1.49 1.415A1.359 1.359 0 0 1 6.491-4zm5.314 4H14a4.379 4.379 0 0 0 3.067-1.1A3.859 3.859 0 0 0 18.22-4a3.886 3.886 0 0 0-1.145-2.89 4.339 4.339 0 0 0-3.035-1.091h-3zm1.378-1.156v-5.67h1.544a2.779 2.779 0 0 1 2.052.767 2.894 2.894 0 0 1 .767 2.074 2.849 2.849 0 0 1-.767 2.063 2.823 2.823 0 0 1-2.052.767zM20.11 0h1.3v-3.4h2.75v-1.158h-2.754v-2.268h2.981v-1.155H20.11z" transform="translate(-344 -1751) translate(347.897 1777.875)"/>
    </g>
</svg>
