<?xml version="1.0" encoding="utf-8"?>
<!-- Generator: Adobe Illustrator 24.1.0, SVG Export Plug-In . SVG Version: 6.00 Build 0)  -->
<svg version="1.1" id="Layer_1" xmlns="http://www.w3.org/2000/svg" xmlns:xlink="http://www.w3.org/1999/xlink" x="0px" y="0px"
	 viewBox="0 0 100 100" style="enable-background:new 0 0 100 100;" xml:space="preserve">
<style type="text/css">
	.st0{fill:none;}
	.st1{fill:#B29656;}
</style>
<g>
	<g>
		<path class="st0" d="M72.17,13.08c0.71,0,1.41,0.07,2.09,0.19c-1.76-1.36-3.95-2.18-6.34-2.18c-2.87,0-5.47,1.17-7.35,3.05
			c-1.02,1.02-1.81,2.25-2.34,3.61c-0.45,1.16-0.71,2.42-0.71,3.74c0,1.32,0.26,2.58,0.71,3.74c0.36,0.94,0.86,1.81,1.47,2.6
			c-0.11-0.68-0.19-1.37-0.19-2.08C59.5,18.75,65.17,13.08,72.17,13.08z"/>
		<path class="st1" d="M78.31,21.49c0-1.32-0.26-2.58-0.71-3.74c-0.53-1.36-1.33-2.59-2.34-3.61c-0.31-0.31-0.66-0.6-1.01-0.87
			c-0.68-0.11-1.37-0.19-2.09-0.19c-6.99,0-12.66,5.67-12.66,12.66c0,0.71,0.07,1.4,0.19,2.08c0.27,0.35,0.56,0.7,0.87,1.01
			c1.88,1.88,4.48,3.05,7.35,3.05s5.47-1.17,7.35-3.05c1.02-1.02,1.81-2.25,2.34-3.61C78.05,24.06,78.31,22.81,78.31,21.49z"/>
		<path class="st0" d="M96.38,25.23v-7.48h-14.4c1.68,2.06,2.71,4.65,2.82,7.48H96.38z"/>
		<path class="st0" d="M54.43,17.75H3.62v7.48h50.81c-0.33-1.19-0.52-2.44-0.52-3.74C53.91,20.19,54.1,18.94,54.43,17.75z"/>
		<path d="M98.19,14.14H79.81c-2.47-3.99-6.87-6.66-11.9-6.66s-9.43,2.67-11.9,6.66H1.81c-1,0-1.8,0.81-1.8,1.8v11.09
			c0,1,0.81,1.8,1.8,1.8h54.2c1.65,2.67,4.18,4.74,7.17,5.83c1.48,0.53,3.07,0.83,4.73,0.83c5.03,0,9.43-2.67,11.9-6.66h4.62h13.76
			c1,0,1.8-0.81,1.8-1.8V15.94C99.99,14.95,99.18,14.14,98.19,14.14z M54.43,25.23H3.62v-7.48h50.81c-0.33,1.19-0.52,2.44-0.52,3.74
			C53.91,22.78,54.1,24.03,54.43,25.23z M77.6,25.23c-0.53,1.36-1.33,2.59-2.34,3.61c-1.88,1.88-4.48,3.05-7.35,3.05
			s-5.47-1.17-7.35-3.05c-0.32-0.32-0.6-0.66-0.87-1.01c-0.6-0.79-1.1-1.66-1.47-2.6c-0.45-1.16-0.71-2.42-0.71-3.74
			c0-1.32,0.26-2.58,0.71-3.74c0.53-1.36,1.33-2.59,2.34-3.61c1.88-1.88,4.48-3.05,7.35-3.05c2.39,0,4.58,0.82,6.34,2.18
			c0.35,0.27,0.69,0.56,1.01,0.87c1.02,1.02,1.81,2.25,2.34,3.61c0.45,1.16,0.71,2.42,0.71,3.74C78.31,22.81,78.05,24.06,77.6,25.23
			z M96.38,25.23H84.8H81.4c0.33-1.19,0.52-2.44,0.52-3.74c0-1.3-0.19-2.55-0.52-3.74h0.59h14.4V25.23z"/>
	</g>
	<g>
		<path class="st0" d="M59.55,82.03h-1.41c0.36,1.01,0.88,1.95,1.52,2.79c-0.09-0.62-0.16-1.24-0.16-1.88
			C59.5,82.62,59.53,82.33,59.55,82.03z"/>
		<path class="st0" d="M68.12,70.94h-7.31c-1.07,1.01-1.94,2.23-2.51,3.61h4.39C64.14,72.91,66,71.65,68.12,70.94z"/>
		<path class="st0" d="M54.49,74.55H3.62v7.48h50.75c-0.29-1.12-0.46-2.3-0.46-3.51C53.91,77.14,54.11,75.81,54.49,74.55z"/>
		<path class="st0" d="M96.38,82.03v-7.48H81.64c1.79,2.02,2.94,4.62,3.14,7.48H96.38z"/>
		<path class="st0" d="M62.69,74.55H58.3c-0.51,1.22-0.79,2.56-0.79,3.97c0,1.23,0.23,2.41,0.62,3.51h1.41
			C59.75,79.16,60.9,76.57,62.69,74.55z"/>
		<path class="st0" d="M72.17,70.27c0.79,0,1.57,0.08,2.32,0.22c-1.79-1.47-4.08-2.37-6.57-2.37c-2.75,0-5.24,1.08-7.1,2.82h7.31
			C69.39,70.51,70.75,70.27,72.17,70.27z"/>
		<path class="st1" d="M77.52,74.55c-0.57-1.38-1.43-2.6-2.51-3.61c-0.17-0.16-0.35-0.3-0.53-0.45c-0.75-0.14-1.53-0.22-2.32-0.22
			c-1.42,0-2.77,0.24-4.05,0.67c-2.12,0.71-3.98,1.97-5.43,3.61c-1.79,2.02-2.94,4.62-3.14,7.48c-0.02,0.3-0.05,0.6-0.05,0.9
			c0,0.64,0.06,1.27,0.16,1.88c0.22,0.29,0.45,0.56,0.7,0.82c1.9,2.01,4.58,3.28,7.55,3.28s5.66-1.26,7.55-3.28
			c0.97-1.03,1.73-2.25,2.22-3.61c0.4-1.1,0.62-2.28,0.62-3.51C78.31,77.11,78.03,75.77,77.52,74.55z"/>
		<path d="M98.19,70.94H79.67c-2.5-3.86-6.83-6.43-11.76-6.43s-9.27,2.57-11.76,6.43H1.81c-1,0-1.8,0.81-1.8,1.8v11.09
			c0,1,0.81,1.8,1.8,1.8h54.06c1.61,2.71,4.11,4.83,7.09,5.97c1.54,0.59,3.21,0.92,4.95,0.92c5.12,0,9.6-2.77,12.04-6.88h4.58h13.66
			c1,0,1.8-0.81,1.8-1.8V72.74C99.99,71.75,99.18,70.94,98.19,70.94z M54.37,82.03H3.62v-7.48h50.87c-0.37,1.26-0.58,2.59-0.58,3.97
			C53.91,79.73,54.08,80.9,54.37,82.03z M77.68,82.03c-0.49,1.36-1.25,2.58-2.22,3.61c-1.9,2.01-4.58,3.28-7.55,3.28
			s-5.66-1.26-7.55-3.28c-0.25-0.26-0.48-0.54-0.7-0.82c-0.64-0.84-1.16-1.77-1.52-2.79c-0.4-1.1-0.62-2.28-0.62-3.51
			c0-1.4,0.28-2.74,0.79-3.97c0.57-1.38,1.43-2.6,2.51-3.61c1.86-1.74,4.35-2.82,7.1-2.82c2.5,0,4.78,0.9,6.57,2.37
			c0.18,0.15,0.36,0.29,0.53,0.45c1.07,1.01,1.94,2.23,2.51,3.61c0.51,1.22,0.79,2.56,0.79,3.97
			C78.31,79.75,78.08,80.93,77.68,82.03z M96.38,82.03h-11.6h-3.33c0.29-1.12,0.46-2.3,0.46-3.51c0-1.38-0.21-2.71-0.58-3.97h0.3
			h14.74V82.03z"/>
	</g>
	<g>
		<path class="st0" d="M23.27,53.63h-0.95c0.26,0.62,0.58,1.21,0.95,1.76c-0.02-0.28-0.04-0.57-0.04-0.86
			C23.22,54.22,23.25,53.93,23.27,53.63z"/>
		<path class="st0" d="M31.84,42.54H24.4c-0.97,1.03-1.74,2.25-2.23,3.61h4.24C27.86,44.51,29.72,43.25,31.84,42.54z"/>
		<path class="st0" d="M26.41,46.15h-4.24c-0.4,1.11-0.63,2.29-0.63,3.54c0,1.4,0.28,2.73,0.78,3.94h0.95
			C23.47,50.76,24.62,48.17,26.41,46.15z"/>
		<path class="st0" d="M18.4,46.15H3.62v7.48H18.5c-0.37-1.25-0.57-2.57-0.57-3.94C17.93,48.46,18.1,47.28,18.4,46.15z"/>
		<path class="st0" d="M35.89,41.87c1.17,0,2.3,0.17,3.37,0.47c-1.88-1.88-4.46-3.05-7.32-3.05c-2.97,0-5.64,1.25-7.53,3.25h7.44
			C33.11,42.11,34.47,41.87,35.89,41.87z"/>
		<path class="st1" d="M41.7,46.15c-0.49-1.36-1.26-2.58-2.23-3.61c-0.07-0.07-0.14-0.13-0.21-0.2c-1.08-0.3-2.2-0.47-3.37-0.47
			c-1.42,0-2.77,0.24-4.05,0.67c-2.12,0.71-3.98,1.97-5.43,3.61c-1.79,2.02-2.94,4.62-3.14,7.48c-0.02,0.3-0.05,0.6-0.05,0.9
			c0,0.29,0.02,0.57,0.04,0.86c0.45,0.67,0.96,1.3,1.55,1.85c1.86,1.76,4.37,2.84,7.12,2.84c2.76,0,5.26-1.09,7.12-2.84
			c1.07-1.01,1.92-2.23,2.49-3.61c0.5-1.22,0.78-2.55,0.78-3.94C42.33,48.44,42.1,47.25,41.7,46.15z"/>
		<path d="M98.19,42.54H43.96c-2.45-4.1-6.91-6.86-12.03-6.86c-5.11,0-9.58,2.76-12.03,6.86H1.81c-1,0-1.8,0.81-1.8,1.8v11.09
			c0,1,0.81,1.8,1.8,1.8h18.35c1.41,2.19,3.4,3.96,5.76,5.09c1.82,0.87,3.86,1.36,6.01,1.36c4.94,0,9.28-2.58,11.78-6.45h4.54h49.94
			c1,0,1.8-0.81,1.8-1.8V44.34C99.99,43.35,99.18,42.54,98.19,42.54z M3.62,53.63v-7.48H18.4c-0.3,1.13-0.47,2.31-0.47,3.53
			c0,1.37,0.21,2.69,0.57,3.94H3.62z M41.55,53.63c-0.57,1.38-1.42,2.6-2.49,3.61c-1.86,1.76-4.37,2.84-7.12,2.84
			c-2.76,0-5.26-1.09-7.12-2.84c-0.59-0.55-1.1-1.18-1.55-1.85c-0.37-0.55-0.69-1.14-0.95-1.76c-0.5-1.22-0.78-2.55-0.78-3.94
			c0-1.24,0.23-2.43,0.63-3.53c0.49-1.36,1.26-2.58,2.23-3.61c1.9-2,4.57-3.25,7.53-3.25c2.86,0,5.44,1.17,7.32,3.05
			c0.07,0.07,0.15,0.13,0.21,0.2c0.97,1.03,1.74,2.25,2.23,3.61c0.4,1.11,0.63,2.29,0.63,3.53C42.33,51.08,42.05,52.41,41.55,53.63z
			 M96.38,53.63H48.5h-3.13c0.37-1.25,0.57-2.57,0.57-3.94c0-1.16-0.16-2.29-0.43-3.37c-0.01-0.06-0.02-0.11-0.04-0.17h50.91V53.63z
			"/>
	</g>
</g>
</svg>
