<svg xmlns="http://www.w3.org/2000/svg" id="Component_28_1" width="37.035" height="40.148" viewBox="0 0 37.035 40.148">
    <defs>
        <style>
            .cls-1{fill:#ae955e}.cls-2{fill:#231f20}
        </style>
    </defs>
    <path id="Rectangle_32" d="M0 0H9.784V6.186H0z" class="cls-1" transform="translate(20.499 30.162)"/>
    <path id="Path_467" d="M24.5 20.312h24.7v-3.639S47.344 13.6 37.276 13.6 24.5 16.551 24.5 16.551s.081 3.801 0 3.761z" class="cls-1" transform="translate(-16.212 -8.142)"/>
    <path id="Path_468" d="M40.832 60.123H8.326A.535.535 0 0 1 7.8 59.6V34.126a.535.535 0 0 1 .526-.526h32.506a.535.535 0 0 1 .526.526V59.6a.535.535 0 0 1-.526.523zM8.851 59.072h31.456V34.651H8.851z" class="cls-2" transform="translate(-6.264 -20.056)"/>
    <path id="Path_469" d="M29.344 81.112h-9.218a.535.535 0 0 1-.526-.526v-11.36a.535.535 0 0 1 .526-.526h9.218a.535.535 0 0 1 .526.526v11.361a.535.535 0 0 1-.526.525zm-8.693-1.051h8.167v-10.31h-8.167z" class="cls-2" transform="translate(-13.293 -40.964)"/>
    <path id="Path_470" d="M60.553 77.8H48.626a.535.535 0 0 1-.526-.526v-8.248a.535.535 0 0 1 .526-.526h11.927a.535.535 0 0 1 .526.526v8.248a.535.535 0 0 1-.526.526zm-11.4-1.051h10.874v-7.2H49.151z" class="cls-2" transform="translate(-30.27 -40.845)"/>
    <path id="Path_471" d="M24.035 46.842h-4.609a.535.535 0 0 1-.526-.526v-6.59a.535.535 0 0 1 .526-.526h4.609a.535.535 0 0 1 .526.526v6.55a.545.545 0 0 1-.526.566zm-4.084-1.052h3.558v-5.539h-3.558z" class="cls-2" transform="translate(-12.876 -23.391)"/>
    <path id="Path_472" d="M70.135 46.842h-4.609a.535.535 0 0 1-.526-.526v-6.59a.535.535 0 0 1 .526-.526h4.609a.535.535 0 0 1 .526.526v6.55a.545.545 0 0 1-.526.566zm-4.084-1.052h3.558v-5.539h-3.558z" class="cls-2" transform="translate(-40.337 -23.391)"/>
    <path id="Path_473" d="M40.105 97.851H4.526a.526.526 0 0 1 0-1.051h35.58a.526.526 0 1 1 0 1.051z" class="cls-2" transform="translate(-4 -57.703)"/>
    <path id="Path_474" d="M4.637 14.655a.439.439 0 0 1-.364-.162.49.49 0 0 1-.121-.526c.04-.606 0-4.811 0-7.439a.584.584 0 0 1 .081-.283C4.395 6 8.438.1 23.236.1c14.838 0 17.709 6.226 17.83 6.509a.364.364 0 0 1 .04.2v7.278a.535.535 0 0 1-.526.526l-35.943.04zm.526-1.055h34.852V6.973c-.4-.728-3.679-5.782-16.819-5.782-13.019 0-17.385 4.73-18.032 5.539 0 .526.04 2.062.04 3.6C5.2 12.027 5.2 13 5.163 13.6z" class="cls-2" transform="translate(-4.071 -.1)"/>
    <path id="Path_475" d="M13.538 16.687a.459.459 0 0 1-.323-.121.442.442 0 0 1-.162-.526c.04-.4 0-2.79 0-4.892a.459.459 0 0 1 .121-.323c.121-.162 3.4-4.124 15.283-4.124 11.968 0 14.313 4.245 14.394 4.407a.513.513 0 0 1 .04.243V16.2a.535.535 0 0 1-.526.526l-28.827-.04zm.526-1.051H41.8v-4.165c-.4-.566-3.154-3.76-13.383-3.76-10.108 0-13.706 2.951-14.353 3.639 0 2.304.036 3.558 0 4.285z" class="cls-2" transform="translate(-9.374 -4.032)"/>
    <path id="Path_476" d="M40.971 61.851H8.626a.526.526 0 1 1 0-1.051h32.345a.535.535 0 0 1 .526.526.51.51 0 0 1-.526.525z" class="cls-2" transform="translate(-6.442 -36.258)"/>
</svg>
