<svg xmlns="http://www.w3.org/2000/svg" width="55.362" height="55.362" viewBox="0 0 55.362 55.362">
    <defs>
        <style>
            .cls-1{fill:#b19455}
        </style>
    </defs>
    <g id="phone1" transform="translate(-.6 -.1)">
        <g id="Group_102" transform="translate(.6 .1)">
            <circle id="Ellipse_10" cx="27.681" cy="27.681" r="27.681" class="cls-1"/>
        </g>
        <path id="Path_466" fill="#fff" d="M35.338 20.9a1.854 1.854 0 0 0-1.838 1.838v28.517a1.854 1.854 0 0 0 1.838 1.838h15.094a1.854 1.854 0 0 0 1.838-1.838V22.738a1.854 1.854 0 0 0-1.838-1.838H35.338z" transform="translate(-14.576 -9.215)"/>
        <g id="Group_103" transform="translate(17.699 10.46)">
            <path id="Path_467" d="M52.172 75.909H38.359a1.557 1.557 0 0 1-1.559-1.56V72.4h16.932v1.949a1.594 1.594 0 0 1-1.56 1.56z" class="cls-1" transform="translate(-33.737 -42.491)"/>
            <circle id="Ellipse_11" cx=".835" cy=".835" r=".835" transform="translate(9.858 31.023)"/>
            <path id="Path_468" d="M49.4 18.7H34.363a3.09 3.09 0 0 0-3.063 3.063V50.28a3.09 3.09 0 0 0 3.063 3.063h15.094a3.1 3.1 0 0 0 3.119-3.063V21.763A3.151 3.151 0 0 0 49.4 18.7zm-15.037 1.225h15.094a1.854 1.854 0 0 1 1.838 1.838v25.509h-18.77V21.763a1.854 1.854 0 0 1 1.838-1.838zM49.4 52.118H34.363a1.854 1.854 0 0 1-1.838-1.838v-1.671h18.77v1.671a1.9 1.9 0 0 1-1.895 1.838z" transform="translate(-31.3 -18.7)"/>
            <path id="Path_469" d="M50.365 22.9h-3.008a.558.558 0 0 0-.557.557v.111a.558.558 0 0 0 .557.557h3.008a.558.558 0 0 0 .557-.557v-.111a.558.558 0 0 0-.557-.557z" transform="translate(-38.167 -20.561)"/>
        </g>
    </g>
</svg>
