<svg xmlns="http://www.w3.org/2000/svg" width="55" height="55" viewBox="0 0 55 55">
    <circle cx="27.5" cy="27.5" r="27.5" fill="#e1e2e1"/>
    <g>
        <path fill="#fff" d="M49.5 27.4H22.171a3.056 3.056 0 0 0-3.271 3.271V49.3a3.056 3.056 0 0 0 3.271 3.271H49.5a3.057 3.057 0 0 0 3.276-3.271V30.671A3.085 3.085 0 0 0 49.5 27.4zm-27.329 1.386H49.5a1.861 1.861 0 0 1 1.608.887L37.307 41.76l-.055.055a2.076 2.076 0 0 1-2.883 0l-.055-.055-13.751-12.087a1.861 1.861 0 0 1 1.608-.887zM49.5 51.185H22.171a1.87 1.87 0 0 1-1.885-1.885V31.614L33.26 42.98a3.75 3.75 0 0 0 5.212 0L51.39 31.614v17.631a1.883 1.883 0 0 1-1.89 1.94z" transform="translate(10.59 14.914) translate(-18.9 -27.4)"/>
    </g>
</svg>
