<svg xmlns="http://www.w3.org/2000/svg" id="phone2" width="55" height="55" viewBox="0 0 55 55">
    <defs>
        <style>
            .cls-2{fill:#fff}
        </style>
    </defs>
    <circle id="Ellipse_7" cx="27.5" cy="27.5" r="27.5" fill="#e1e2e1"/>
    <g id="Group_90" transform="translate(16.907 10.162)">
        <path id="Path_432" d="M49.418 18.7H34.366a3.093 3.093 0 0 0-3.066 3.066v28.543a3.093 3.093 0 0 0 3.066 3.066h15.108a3.105 3.105 0 0 0 3.126-3.066V21.766a3.154 3.154 0 0 0-3.182-3.066zm-15.052 1.226h15.108a1.856 1.856 0 0 1 1.84 1.84V47.3H32.526V21.766a1.856 1.856 0 0 1 1.84-1.84zm15.052 32.223H34.366a1.856 1.856 0 0 1-1.84-1.84v-1.672h18.787v1.672a1.905 1.905 0 0 1-1.895 1.84z" class="cls-2" transform="translate(-31.3 -18.7)"/>
        <path id="Path_433" d="M49.836 74.4a.836.836 0 1 0 .836.836.857.857 0 0 0-.836-.836z" class="cls-2" transform="translate(-39.133 -43.349)"/>
        <path id="Path_434" d="M47.257 24.126h3.01a.559.559 0 0 0 .557-.557v-.111a.559.559 0 0 0-.557-.557h-3.01a.559.559 0 0 0-.557.557v.111a.6.6 0 0 0 .557.557z" class="cls-2" transform="translate(-38.115 -20.559)"/>
    </g>
</svg>
