<svg xmlns="http://www.w3.org/2000/svg" width="55.362" height="55.362" viewBox="0 0 55.362 55.362">
    <defs>
        <style>
            .cls-1{fill:#b19455}
        </style>
    </defs>
    <g id="mail1" transform="translate(.1 -.6)">
        <circle id="Ellipse_9" cx="27.681" cy="27.681" r="27.681" class="cls-1" transform="translate(-.1 .6)"/>
        <g id="Group_101" transform="translate(10.538 15.638)">
            <path id="Path_463" fill="#fff" d="M52.916 31.127l-.947.78V29.4H21v2.061l-.613-.5-.39.78v19.603l1.949 1.615 29.63.056 1.337-1.727zM36.208 43.992l-1.225-.78L22.005 32.3h29.463L37.489 43.825z" transform="translate(-19.443 -28.397)"/>
            <g id="Group_100" transform="translate(1.671 2.952)">
                <path id="Path_464" d="M23.615 32.9h27.57a1.869 1.869 0 0 1 1.615.891l-13.924 12.2-.056.056a2.085 2.085 0 0 1-2.9 0l-.056-.056L22 33.791a1.869 1.869 0 0 1 1.615-.891z" class="cls-1" transform="translate(-22 -32.9)"/>
            </g>
            <path id="Path_465" d="M49.856 27.6h-27.57A3.07 3.07 0 0 0 19 30.886v18.77a3.07 3.07 0 0 0 3.286 3.286h27.57a3.07 3.07 0 0 0 3.286-3.286v-18.77a3.1 3.1 0 0 0-3.286-3.286zm-27.57 1.392h27.57a1.869 1.869 0 0 1 1.615.891l-13.924 12.2-.056.056a2.085 2.085 0 0 1-2.9 0l-.056-.056-13.868-12.2a1.869 1.869 0 0 1 1.619-.891zm27.57 22.557h-27.57a1.878 1.878 0 0 1-1.894-1.894V31.833l13.089 11.418a3.767 3.767 0 0 0 5.235 0l13.089-11.418v17.823a1.962 1.962 0 0 1-1.949 1.893z" transform="translate(-19 -27.6)"/>
        </g>
    </g>
</svg>
