<svg xmlns="http://www.w3.org/2000/svg" width="33.207" height="25.991" viewBox="0 0 33.207 25.991">
    <defs>
        <style>
            .cls-1{fill:#070606}.cls-2{fill:#ab8633}
        </style>
    </defs>
    <g id="Group_1" transform="translate(-1.9 -12)">
        <g id="Group_1-2" transform="translate(1.9 12)">
            <path id="Path_365" d="M30.251 12H4.123A2.218 2.218 0 0 0 1.9 14.223v18.912a2.218 2.218 0 0 0 2.223 2.223h26.128a2.218 2.218 0 0 0 2.223-2.223V14.223A2.241 2.241 0 0 0 30.251 12zm.821 16.586l-6.737-5.848-5.78 4.412-7.318-8.071-7.969 8.687V14.223a.847.847 0 0 1 .855-.855h26.128a.847.847 0 0 1 .855.855v14.363z" class="cls-1" transform="translate(-1.9 -12)"/>
            <path id="Path_366" d="M56.63 25.013a1.915 1.915 0 1 1-1.915-1.913 1.87 1.87 0 0 1 1.915 1.913z" class="cls-2" transform="translate(-35.393 -19.302)"/>
            <path id="Path_367" d="M39.174 20.068l-.1-.068v18.4a3.576 3.576 0 0 1-3.557 3.557H9.9l.068.1a2.263 2.263 0 0 0 2.018 1.2h24.042a4.339 4.339 0 0 0 4.343-4.07V22.052a2.211 2.211 0 0 0-1.197-1.984z" class="cls-1" transform="translate(-7.164 -17.264)"/>
        </g>
        <path id="Path_368" d="M5.9 41.452l7.968-8.652 7.318 8.071 5.78-4.412 6.734 5.848v4.309a1.373 1.373 0 0 1-1.4 1.4c-1.4 0-25.341-.034-25.341-.034a1.58 1.58 0 0 1-1.06-1.71z" class="cls-2" transform="translate(-2.632 -13.687)"/>
    </g>
</svg>
