<svg xmlns="http://www.w3.org/2000/svg" width="17.196" height="28" viewBox="0 0 17.196 28">
    <path fill="#fff" d="M34.986 20.9a1.5 1.5 0 0 0-1.486 1.486v23.048a1.5 1.5 0 0 0 1.486 1.486h12.2a1.5 1.5 0 0 0 1.486-1.486V22.386a1.5 1.5 0 0 0-1.487-1.486h-12.2z" transform="translate(-32.51 -19.91)"/>
    <g>
        <path fill="#b19455" d="M49.224 75.236H38.06a1.258 1.258 0 0 1-1.26-1.26V72.4h13.685v1.576a1.288 1.288 0 0 1-1.261 1.26z" transform="translate(-34.324 -48.226)"/>
        <circle cx=".675" cy=".675" r=".675" transform="translate(7.968 25.074)"/>
        <path d="M45.93 18.7H33.776a2.5 2.5 0 0 0-2.476 2.476v23.048a2.5 2.5 0 0 0 2.476 2.476h12.2a2.508 2.508 0 0 0 2.524-2.476V21.176a2.546 2.546 0 0 0-2.57-2.476zm-12.154.99h12.2a1.5 1.5 0 0 1 1.486 1.486v20.617H32.29V21.176a1.5 1.5 0 0 1 1.486-1.486zM45.93 45.71H33.776a1.5 1.5 0 0 1-1.486-1.486v-1.35h15.17v1.35a1.538 1.538 0 0 1-1.53 1.486z" transform="translate(-31.3 -18.7)"/>
        <path d="M49.681 22.9H47.25a.451.451 0 0 0-.45.45v.09a.451.451 0 0 0 .45.45h2.431a.451.451 0 0 0 .45-.45v-.09a.451.451 0 0 0-.45-.45z" transform="translate(-39.823 -21.009)"/>
    </g>
</svg>
