<svg id="Layer_4" data-name="Layer 4" xmlns="http://www.w3.org/2000/svg" viewBox="0 0 100 100"><defs><style>.cls-1{fill:#b39656;}</style></defs><g id="Map_Pin_Outlined" data-name="Map Pin Outlined"><path class="cls-1" d="M83.46,36.14a34.56,34.56,0,0,0-69.12,0A34.13,34.13,0,0,0,20,55h0l.16.24.06.09,9.71,14.41L38,81.7l3.17,4.69h0L48.9,97.82l7.72-11.43h0l6.71-9.94,3.83-5.66h0L68,69.6h0l9.64-14.31.06-.09.12-.18h0A34.12,34.12,0,0,0,83.46,36.14ZM72.77,51.7l-.12.19,0,0L63,66.14l-.11.17-.75,1.11-3.83,5.67L51.64,83l-2.74,4-2.74-4L43,78.33,34.92,66.41,25.17,51.92,25,51.71a28.2,28.2,0,0,1-4.68-15.57,28.55,28.55,0,0,1,57.1,0A28.14,28.14,0,0,1,72.77,51.7Z"/><path class="cls-1" d="M49,14.86A18.62,18.62,0,1,0,67.67,33.48,18.65,18.65,0,0,0,49,14.86Zm0,31.22a12.61,12.61,0,1,1,12.64-12.6A12.61,12.61,0,0,1,49,46.08Z"/></g></svg>