<svg id="Layer_1" data-name="Layer 1" xmlns="http://www.w3.org/2000/svg" viewBox="0 0 100 100"><defs><style>.cls-1{fill:#b19455;}</style></defs><path class="cls-1" d="M37.75,78.62A17.32,17.32,0,1,1,55.07,61.3,17.34,17.34,0,0,1,37.75,78.62Zm0-30.56A13.25,13.25,0,1,0,51,61.3,13.26,13.26,0,0,0,37.75,48.06Z"/><path class="cls-1" d="M16.36,86.77a2,2,0,0,1-1.44-3.47L26.57,71.64a2,2,0,1,1,2.74,3L17.8,86.18A2,2,0,0,1,16.36,86.77Z"/><path class="cls-1" d="M63.23,99h-53a6.12,6.12,0,0,1-6.12-6.11V31.76a2,2,0,0,1,.6-1.44L23.07,12a2,2,0,0,1,1.44-.6H63.23a6.12,6.12,0,0,1,6.11,6.11v75.4A6.12,6.12,0,0,1,63.23,99Zm-55-66.4V92.89a2,2,0,0,0,2,2h53a2,2,0,0,0,2-2V17.49a2,2,0,0,0-2-2H25.35Z"/><path class="cls-1" d="M75.45,92.89a2,2,0,0,1-.29-4.06l14.27-2c2.52-.34,2.43-1.05,2.34-1.8L81.58,7.57a2.5,2.5,0,0,0-.89-1.85,3.72,3.72,0,0,0-2.87-.48L36.94,9.33a2,2,0,1,1-.41-4L77.29,1.2a7.62,7.62,0,0,1,5.88,1.28,6.5,6.5,0,0,1,2.46,4.61L95.81,84.47c.26,2-.15,5.59-5.82,6.36l-14.25,2Z"/><path class="cls-1" d="M20.43,33.8H6.17a2,2,0,0,1,0-4.08H20.43a2,2,0,0,0,2-2V13.42a2,2,0,1,1,4.08,0V27.68A6.13,6.13,0,0,1,20.43,33.8Z"/></svg>