<svg xmlns="http://www.w3.org/2000/svg" width="62.947" height="62.566" viewBox="0 0 62.947 62.566">
    <defs>
        <style>
            .cls-1{fill:none}.cls-3{fill:#020202}
        </style>
    </defs>
    <g id="man2" transform="translate(0 -.9)">
        <path id="Path_21" d="M77.422 68.161a2.708 2.708 0 0 0-2.988-2.861H71.7v5.659h2.734a2.661 2.661 0 0 0 2.988-2.798z" class="cls-1" transform="translate(-26.111 -23.452)"/>
        <path id="Path_22" d="M77.868 79.525c0-1.844-1.208-2.925-3.179-2.925H71.7v5.977h2.988a2.875 2.875 0 0 0 3.18-3.052z" class="cls-1" transform="translate(-26.111 -27.568)"/>
        <path id="Path_23" d="M10.558 72.426v-2.989A17.041 17.041 0 0 1 27.6 52.4a16.655 16.655 0 0 1 10.3 3.5c.064-.127.191-.191.254-.318A19.819 19.819 0 0 0 3.5 68.738v3.688a2.117 2.117 0 0 0 2.1 2.1h6.04a2.556 2.556 0 0 1-1.082-2.1z" class="cls-1" transform="translate(-1.275 -17.48)"/>
        <path id="Path_24" d="M29.42 25.828c4.9 0 9.22-5.15 9.22-11.063 0-5.722-4.133-10.364-9.22-10.364S20.2 9.042 20.2 14.764c0 5.913 4.324 11.064 9.22 11.064z" class="cls-1" transform="translate(-7.356 -1.275)"/>
        <path id="Path_25" fill="#b19455" d="M38.126 67.98A14.969 14.969 0 0 1 41.941 58 17.009 17.009 0 0 0 14.6 71.54v2.988a2.556 2.556 0 0 0 1.081 2.1H40.8a15.619 15.619 0 0 1-2.674-8.648z" transform="translate(-5.317 -19.519)"/>
        <path id="Path_26" d="M28.145 26.778c6.231 0 11.445-6.1 11.445-13.289C39.59 6.559 34.44.9 28.145.9S16.7 6.559 16.7 13.489c0 7.249 5.214 13.289 11.445 13.289zm0-23.589c5.087 0 9.22 4.642 9.22 10.364 0 5.85-4.324 11.063-9.22 11.063s-9.22-5.214-9.22-11.127c0-5.658 4.133-10.3 9.22-10.3z" transform="translate(-6.082)"/>
        <path id="Path_27" d="M60.264 62.264L60.2 62.2l.064.064z" class="cls-3" transform="translate(-21.923 -22.323)"/>
        <path id="Path_28" d="M47.878 49.6a15.149 15.149 0 0 0-9.347 3.243A21.828 21.828 0 0 0 22.063 45.4 22.075 22.075 0 0 0 0 67.463v3.688a4.328 4.328 0 0 0 4.324 4.324h33.127A15.048 15.048 0 1 0 47.878 49.6zM4.324 73.249a2.117 2.117 0 0 1-2.1-2.1v-3.686a19.863 19.863 0 0 1 19.839-19.838 19.627 19.627 0 0 1 14.815 6.74c-.064.127-.191.191-.254.318a15 15 0 0 0-1.081 18.63H4.324zm43.554 4.2a12.738 12.738 0 0 1-6.994-2.1 15.972 15.972 0 0 1-2.035-1.59l-.509-.509a12.8 12.8 0 0 1-.127-17.167l-.064-.064.064.064a12.378 12.378 0 0 1 1.653-1.526 12.614 12.614 0 0 1 7.884-2.734 12.813 12.813 0 0 1 .127 25.624z" transform="translate(0 -16.205)"/>
        <path id="Path_29" d="M76.031 68.863a3.932 3.932 0 0 0 2.161-3.563 4.166 4.166 0 0 0-1.208-3.052 4.664 4.664 0 0 0-2.861-1.145V58.69a.89.89 0 1 0-1.78 0v2.416H69.1v16.087h3.243v2.416a.89.89 0 1 0 1.78 0v-2.416a4.937 4.937 0 0 0 3.243-1.208 4.325 4.325 0 0 0-1.335-7.121zm-5.277-6.231h2.734a2.834 2.834 0 1 1 0 5.659h-2.735zm2.988 13.1h-2.989v-5.978h2.988c1.971 0 3.179 1.081 3.179 2.925a2.875 2.875 0 0 1-3.178 3.051z" class="cls-3" transform="translate(-25.164 -20.721)"/>
    </g>
</svg>
