<svg xmlns="http://www.w3.org/2000/svg" width="45" height="65" viewBox="0 0 45 65">
    <defs>
        <style>
            .cls-3{fill:#010101}
        </style>
    </defs>
    <g id="Store_Management-01" transform="translate(-17)">
        <path id="Path_23" fill="none" d="M32.923 16.815h2.6V11.83h-2.6a.143.143 0 0 0-.143.143v4.7a.143.143 0 0 0 .143.142z" transform="translate(-4.987 -4.141)"/>
        <path id="Path_24" fill="#b29656" d="M56.5 8.88h-6.9a1.06 1.06 0 0 1-.722-.292.871.871 0 0 1-.13-.137 1.046 1.046 0 0 1-.162-.936 3.25 3.25 0 1 0-6.266 0 1.047 1.047 0 0 1-.163.936.871.871 0 0 1-.13.137 1.059 1.059 0 0 1-.722.292H37v4.985h19.5a.143.143 0 0 0 .143-.143v-4.7a.143.143 0 0 0-.143-.142zM45.45 5.344a.93.93 0 1 1-.93.93.93.93 0 0 1 .93-.93z" transform="translate(-5.827 -1.19)"/>
        <path id="Path_25" d="M59.456 13.79h-3.947v2.125h3.948a.382.382 0 0 1 .348.4V67.3a.383.383 0 0 1-.348.4H19.543a.383.383 0 0 1-.348-.4V16.319a.382.382 0 0 1 .348-.4h3.682V13.79h-3.682A2.553 2.553 0 0 0 17 16.319V67.3a2.547 2.547 0 0 0 2.543 2.522h39.913A2.547 2.547 0 0 0 62 67.3V16.319a2.553 2.553 0 0 0-2.543-2.529z" class="cls-3" transform="translate(0 -4.827)"/>
        <path id="Path_26" d="M30.645 47.167a1.072 1.072 0 0 0 .708.429h.15a1.059 1.059 0 0 0 .65-.227l5.147-4.043a1.059 1.059 0 0 0-1.3-1.67l-4.283 3.406-.65-.884a1.059 1.059 0 1 0-1.716 1.242z" class="cls-3" transform="translate(-3.764 -14.511)"/>
        <path id="Path_27" d="M30.654 68.117a1.047 1.047 0 0 0 .708.429h.149a1.059 1.059 0 0 0 .65-.227l5.148-4.043a1.06 1.06 0 0 0-1.3-1.671l-4.283 3.373-.65-.884a1.061 1.061 0 0 0-1.716 1.248z" class="cls-3" transform="translate(-3.773 -21.844)"/>
        <path id="Path_28" d="M55.8 5.564h-6.109v-.176a5.83 5.83 0 0 0-11.626 0v.175h-6.108a2.37 2.37 0 0 0-2.447 2.269v4.7a2.37 2.37 0 0 0 2.447 2.268H55.8a2.37 2.37 0 0 0 2.447-2.268v-4.7A2.37 2.37 0 0 0 55.8 5.564zm.154 6.968a.149.149 0 0 1-.154.143H31.957a.149.149 0 0 1-.154-.143v-4.7a.149.149 0 0 1 .154-.143H39.4a1.192 1.192 0 0 0 .778-.293.9.9 0 0 0 .14-.137.985.985 0 0 0 .175-.936A3.131 3.131 0 0 1 41.86 2.8a3.734 3.734 0 0 1 4.036 0 3.131 3.131 0 0 1 1.362 3.522.985.985 0 0 0 .175.936.9.9 0 0 0 .14.136 1.192 1.192 0 0 0 .778.292H55.8a.149.149 0 0 1 .154.143z" class="cls-3" transform="translate(-4.379)"/>
        <path id="Path_29" d="M49.5 6.39a.93.93 0 1 0 .929.93.93.93 0 0 0-.929-.93z" class="cls-3" transform="translate(-10 -2.236)"/>
        <rect id="Rectangle_1" width="15.658" height="2.125" class="cls-3" rx="1" transform="translate(37.933 29.783)"/>
        <rect id="Rectangle_2" width="15.658" height="2.125" class="cls-3" rx="1" transform="translate(37.933 43.803)"/>
    </g>
</svg>
