<svg xmlns="http://www.w3.org/2000/svg" width="58.925" height="55" viewBox="0 0 58.925 55">
    <defs>
        <style>
            .cls-1{fill:none}.cls-2{fill:#ae955e}.cls-3{fill:#010101}
        </style>
    </defs>
    <g id="Apply_E-invoice-01" transform="translate(0 -3.33)">
        <path id="Path_8" d="M26.912 50.415a1.84 1.84 0 0 1-1.544-1.249c-.566-1.809.548-5.333 3.535-9.11h-18.7a.981.981 0 1 1 0-1.962h20.268l3.164-3.93H10.206a.981.981 0 1 1 0-1.962h25.008l7.4-9.186V9.675A3.006 3.006 0 0 0 39.61 6.67H17.083v8.78a4.974 4.974 0 0 1-4.973 4.973H3.33v34.312a3.006 3.006 0 0 0 3.005 3.005H39.61a3.01 3.01 0 0 0 3.005-3.005V35.661c-3.288 4.083-6.163 7.654-7.4 9.186-3.1 3.853-6.388 5.745-8.303 5.568zm-2.958-37.853h11.784a.984.984 0 0 1 0 1.968H23.954a.984.984 0 0 1 0-1.968zM10.206 26.309h25.532a.984.984 0 0 1 0 1.968H10.206a.984.984 0 1 1 0-1.968z" class="cls-1" transform="translate(-1.368 -1.372)"/>
        <path id="Path_9" d="M59.58 42.495l-1.18-.955-11.2 13.9c-2.911 3.612-3.565 6.5-3.388 7.366a4.169 4.169 0 0 0 1.656-.589 15.9 15.9 0 0 1 3.406-6.429z" class="cls-1" transform="translate(-17.985 -15.695)"/>
        <path id="Path_10" d="M51.46 58.592l11.2-13.9-1.9-1.532-10.714 13.293a15.818 15.818 0 0 0-3.406 6.429 16.831 16.831 0 0 0 4.82-4.29z" class="cls-2" transform="translate(-19.158 -16.36)"/>
        <path id="Path_11" d="M15.682 16.011V8.05L4.71 19.022h7.967a3.011 3.011 0 0 0 3.005-3.011z" class="cls-1" transform="translate(-1.935 -1.939)"/>
        <path id="Path_12" d="M83.535 17.242c-.035-.035-.065-.071-.106-.106a1.989 1.989 0 0 0-2.787.3L70.69 29.793l1.214.978 10.164-12.757a2.065 2.065 0 0 1 1.467-.772z" class="cls-1" transform="translate(-29.036 -5.492)"/>
        <path id="Path_13" d="M84.576 20.3a1.976 1.976 0 0 0-.194-2.681 2.054 2.054 0 0 0-1.467.772L72.75 31.149l1.874 1.508z" class="cls-2" transform="translate(-29.883 -5.87)"/>
        <path id="Path_14" d="M37.644 18.628h11.785a.984.984 0 0 0 0-1.968H37.644a.984.984 0 0 0 0 1.968z" class="cls-3" transform="translate(-15.058 -5.475)"/>
        <path id="Path_15" d="M14.314 41.958h25.532a.984.984 0 1 0 0-1.968H14.314a.984.984 0 1 0 0 1.968z" class="cls-3" transform="translate(-5.475 -15.058)"/>
        <path id="Path_16" d="M58.553 17.543a.993.993 0 0 0-1.4.147l-.625.778-1.544-1.249 1.243-1.544a3.964 3.964 0 1 0-6.171-4.975L43.2 19.2V8.3a4.974 4.974 0 0 0-4.97-4.97H16.122A5.721 5.721 0 0 0 12.074 5L1.184 15.893A4.075 4.075 0 0 0 0 18.756v34.6a4.974 4.974 0 0 0 4.973 4.974h33.269a4.974 4.974 0 0 0 4.973-4.973V31.849c3.883-4.82 8-9.929 10.542-13.087l1.532 1.261L45.967 31.6a.98.98 0 0 0 .147 1.391 1 1 0 0 0 1.4-.147l11.2-13.9a.994.994 0 0 0-.161-1.401zm-6.947-5.592a1.978 1.978 0 0 1 2.787-.3.9.9 0 0 1 .106.106 1.976 1.976 0 0 1 .194 2.681l-9.952 12.35-1.874-1.508-1.213-.98zM43.5 28.332l-11.2 13.9a16.831 16.831 0 0 1-4.82 4.29 4.169 4.169 0 0 1-1.656.589c-.177-.866.471-3.753 3.388-7.366l11.2-13.9 1.184.955zM13.747 6.111v7.967a3.006 3.006 0 0 1-3.005 3.005H2.775zm27.5 47.246a3.006 3.006 0 0 1-3.005 3.005H4.973a3.006 3.006 0 0 1-3.005-3.005V19.045h8.78a4.974 4.974 0 0 0 4.973-4.973V5.3h22.521a3.01 3.01 0 0 1 3.005 3v13.34l-7.4 9.186H8.839a.984.984 0 1 0 0 1.968h23.428l-3.164 3.93H8.839a.984.984 0 1 0 0 1.968h18.7C24.548 42.473 23.434 46 24 47.806a1.849 1.849 0 0 0 1.544 1.249c1.915.177 5.2-1.715 8.308-5.568 1.237-1.532 4.107-5.1 7.4-9.186v19.056z" class="cls-3"/>
    </g>
</svg>
