<svg xmlns="http://www.w3.org/2000/svg" width="54.089" height="54.099" viewBox="0 0 54.089 54.099">
    <defs>
        <style>
            .cls-1{fill:none}.cls-3{fill:#010101}
        </style>
    </defs>
    <g id="Repair_Notice-01" transform="translate(-.23 -.003)">
        <path id="Path_17" d="M66.728 61.344l-1.817-.624-6.111 6.117c.184.423.456 1.03.732 1.627h1.546l5.651-5.645z" class="cls-1" transform="translate(-26.808 -27.791)"/>
        <path id="Path_18" d="M16.16 15.374a.982.982 0 0 1-.239-.385l-1.155-3.46-6.61-4.409L5.52 9.766l4.4 6.61 3.449 1.15a.965.965 0 0 1 .239.114c.081.054.087.054 21.344 21.317l2.391-2.386z" class="cls-1" transform="translate(-2.421 -3.258)"/>
        <path id="Path_19" fill="#b29656" d="M65.316 70.566l10.059 10.059a2.581 2.581 0 1 0 3.65-3.65l-10.06-10.086c-.228-.244-.277-.309-.287-2.3L63 70.235c2.023 0 2.082.076 2.316.331z" transform="translate(-28.731 -29.563)"/>
        <path id="Path_20" d="M52.195 47.377l-9.8-9.8V34.21a.982.982 0 0 0-.667-.933c-3.644-1.258-3.644-1.258-4.089-.808l-.813.808C20.558 17.009 16.735 13.213 15.8 12.264l-1.191-3.579a.982.982 0 0 0-.385-.51l-7.56-5.043a.987.987 0 0 0-1.242.125l-3.8 3.8a.976.976 0 0 0-.119 1.242l5.038 7.592a1.009 1.009 0 0 0 .51.39l3.563 1.188 21.044 20.982-1.025 1.025c-.493.493-.493.493 1.085 3.959a.982.982 0 0 0 .889.58h3.368l9.783 9.8a4.552 4.552 0 1 0 6.437-6.437zM11.708 15.74a.965.965 0 0 0-.239-.114l-3.46-1.155-4.4-6.605 2.632-2.641 6.61 4.409 1.155 3.46a.982.982 0 0 0 .239.385l21.2 21.193-2.391 2.386C11.794 15.794 11.789 15.794 11.708 15.74zm21.523 26.29c-.277-.618-.542-1.226-.732-1.627l6.112-6.117 1.817.624v1.475c0 1.99.06 2.055.287 2.3L50.8 48.771a2.581 2.581 0 0 1-3.65 3.65l-10.058-10.06c-.233-.255-.293-.309-2.321-.315h-1.54z" class="cls-3" transform="translate(-.507 -1.357)"/>
        <path id="Path_21" d="M50.13 20.3l1.394 1.394 5.786-5.781a2.261 2.261 0 0 0 .515-2.354 8.31 8.31 0 0 1 1.844-8.91 9.116 9.116 0 0 1 8.048-2.532.239.239 0 0 1 .2.179.271.271 0 0 1-.065.287l-4.23 4.224a2.25 2.25 0 0 0 0 3.178l3.574 3.574a2.256 2.256 0 0 0 3.178 0l4.224-4.224a.287.287 0 0 1 .287-.07.255.255 0 0 1 .179.2 9.116 9.116 0 0 1-2.522 8.048 8.31 8.31 0 0 1-8.91 1.844 2.25 2.25 0 0 0-2.364.542l-5.781 5.754 1.394 1.394 5.781-5.786a.315.315 0 0 1 .325-.049A10.183 10.183 0 0 0 73.92 18.9a11.084 11.084 0 0 0 3.069-9.761 2.256 2.256 0 0 0-3.8-1.188l-4.224 4.224a.287.287 0 0 1-.39 0L65 8.607a.287.287 0 0 1 0-.39l4.224-4.224a2.24 2.24 0 0 0 .542-2.272A2.218 2.218 0 0 0 68.063.175a11.084 11.084 0 0 0-9.788 3.08 10.212 10.212 0 0 0-2.31 10.954.315.315 0 0 1-.049.32z" class="cls-3" transform="translate(-22.84)"/>
        <path id="Path_22" d="M6.851 75.242a2.8 2.8 0 1 1-3.959-3.959l17.9-17.9L19.389 52 1.494 69.9a4.772 4.772 0 0 0 6.746 6.736l17.787-17.782-1.394-1.394z" class="cls-3" transform="translate(0 -23.8)"/>
    </g>
</svg>
