<svg xmlns="http://www.w3.org/2000/svg" id="Payment-01" width="65" height="65" viewBox="0 0 65 65">
    <defs>
        <style>
            .cls-1{fill:none}.cls-2{fill:#b29656}.cls-3{fill:#010101}
        </style>
    </defs>
    <path id="Path_1" d="M33.956 4.16a29.8 29.8 0 1 0 29.8 29.8 29.827 29.827 0 0 0-29.8-29.8zm7.586 42.04a8.832 8.832 0 0 1-5.785 2.171v4.979a.957.957 0 0 1-.955.956h-1.19a.957.957 0 0 1-.956-.956v-4.958h-5.8V19.519h5.8V14.56a.957.957 0 0 1 .956-.955H34.8a.957.957 0 0 1 .955.955v4.992a8.329 8.329 0 0 1 5.122 2.041 7.477 7.477 0 0 1 2.231 5.507 6.929 6.929 0 0 1-3.828 6.37 7.224 7.224 0 0 1 4.609 6.994 7.74 7.74 0 0 1-2.347 5.736z" class="cls-1" transform="translate(-1.456 -1.456)"/>
    <path id="Path_2" d="M46.447 34.708h3.581a3.48 3.48 0 0 1 3.809 3.074 6.147 6.147 0 0 0 .052-.782c0-3.166-2.074-5.115-5.35-5.115H43.58V42.04h2.873v-7.332z" class="cls-1" transform="translate(-15.253 -11.158)"/>
    <path id="Path_3" d="M50.759 53.5a4.674 4.674 0 0 1 3.6 1.41c-.708-2.093-2.626-3.315-5.434-3.315H43.57v10.749h2.873V53.5z" class="cls-1" transform="translate(-15.25 -18.06)"/>
    <path id="Path_4" d="M51.571 36.23H47.99v7.332h2.093c3 0 4.979-1.6 5.3-4.257a3.48 3.48 0 0 0-3.812-3.075z" class="cls-2" transform="translate(-16.796 -12.681)"/>
    <path id="Path_5" d="M56.222 57.893a6.217 6.217 0 0 0-.306-1.963 4.664 4.664 0 0 0-3.6-1.41H48v8.84h2.483c3.549 0 5.739-2.067 5.739-5.467z" class="cls-2" transform="translate(-16.8 -19.082)"/>
    <path id="Path_6" d="M51.491 38.554a6.922 6.922 0 0 0 3.828-6.37 7.441 7.441 0 0 0-2.229-5.505 8.367 8.367 0 0 0-5.122-2.041v-4.992a.957.957 0 0 0-.956-.956h-1.189a.957.957 0 0 0-.956.956V24.6h-5.8v28.878h5.8v4.959a.957.957 0 0 0 .956.956h1.189a.957.957 0 0 0 .955-.956v-4.979a8.818 8.818 0 0 0 5.785-2.171 7.744 7.744 0 0 0 2.348-5.746 7.212 7.212 0 0 0-4.609-6.987zM42 27.263h4.96c3.283 0 5.35 1.957 5.35 5.115a6.147 6.147 0 0 1-.052.786c-.325 2.659-2.308 4.257-5.3 4.257h-4.963V27.263zm0 23.556V40.075h5.356c2.808 0 4.725 1.222 5.434 3.315a6.009 6.009 0 0 1 .306 1.963c0 3.4-2.191 5.466-5.746 5.466H42z" class="cls-3" transform="translate(-13.674 -6.541)"/>
    <path id="Path_7" d="M32.5 0A32.5 32.5 0 1 0 65 32.5 32.537 32.537 0 0 0 32.5 0zm0 62.3a29.8 29.8 0 1 1 29.8-29.8 29.827 29.827 0 0 1-29.8 29.8z" class="cls-3"/>
</svg>
