<svg xmlns="http://www.w3.org/2000/svg" width="46.128" height="61" viewBox="0 0 46.128 61">
    <defs>
        <style>
            .cls-1{fill:none}.cls-3{fill:#231f20}
        </style>
    </defs>
    <g id="Account-01" transform="translate(-12.19)">
        <path id="Path_30" d="M23.417 76.822V73.7a17.763 17.763 0 0 1 30.256-12.628A20.7 20.7 0 0 0 16.06 73v3.843a2.19 2.19 0 0 0 2.184 2.19h6.32a2.721 2.721 0 0 1-1.147-2.214z" class="cls-1" transform="translate(-1.509 -20.397)"/>
        <path id="Path_31" d="M43.857 26.2c5.118 0 9.608-5.386 9.608-11.523 0-5.96-4.307-10.809-9.608-10.809S34.25 8.75 34.25 14.679c0 6.137 4.49 11.521 9.607 11.521z" class="cls-1" transform="translate(-8.603 -1.509)"/>
        <path id="Path_32" fill="#b29656" d="M62.17 79.171v-3.843A20.618 20.618 0 0 0 58.376 63.4 17.763 17.763 0 0 0 28.12 76.023v3.123a2.721 2.721 0 0 0 1.147 2.214h30.72a2.19 2.19 0 0 0 2.183-2.189z" transform="translate(-6.213 -22.722)"/>
        <path id="Path_33" d="M42.348 27.053c6.49 0 11.968-6.362 11.968-13.884C54.316 5.9 48.948 0 42.348 0S30.38 5.9 30.38 13.17c0 7.521 5.478 13.883 11.968 13.883zm0-24.693c5.3 0 9.608 4.88 9.608 10.809 0 6.137-4.49 11.523-9.608 11.523s-9.607-5.386-9.607-11.523c0-5.959 4.312-10.808 9.607-10.808z" class="cls-3" transform="translate(-7.094)"/>
        <path id="Path_34" d="M35.254 48.43A23.089 23.089 0 0 0 12.19 71.494v3.843a4.551 4.551 0 0 0 4.545 4.551h37.039a4.551 4.551 0 0 0 4.544-4.551v-3.843A23.088 23.088 0 0 0 35.254 48.43zm-18.52 29.1a2.19 2.19 0 0 1-2.184-2.19v-3.846a20.7 20.7 0 1 1 41.407 0v3.843a2.19 2.19 0 0 1-2.184 2.19z" class="cls-3" transform="translate(0 -18.888)"/>
    </g>
</svg>
