<svg xmlns="http://www.w3.org/2000/svg" width="49" height="64.792" viewBox="0 0 49 64.792">
    <defs>
        <style>
            .cls-1{fill:#ae955e}.cls-2{fill:none}
        </style>
    </defs>
    <g id="man1" transform="translate(-12.2)">
        <path id="Path_1" d="M49.1 88.407L50.14 74.5h2.469l.975 13.907z" class="cls-1" transform="translate(-12.92 -26.085)"/>
        <path id="Path_2" d="M53.889 64.44l-1.3 3.444H49.6l-1.3-3.444 2.4-2.015.39-.325.39.325 2.4 2.015.065-.195.065.325z" class="cls-1" transform="translate(-12.64 -21.743)"/>
        <g id="Group_1" transform="translate(12.2)">
            <path id="Path_3" d="M34.586 67.963l-1.17-3.119-1.625 1.365h-.065a.227.227 0 0 1-.13.065c-.065 0-.065.065-.13.065s-.065 0-.13.065c-.065 0-.065 0-.13.065h-.78c-.065 0-.065 0-.13-.065-.065 0-.065 0-.065-.065a.064.064 0 0 1-.065-.065l-.065-.065h-.065A21.7 21.7 0 0 1 24.9 58.8 22.054 22.054 0 0 0 16 76.476v4.094a2.33 2.33 0 0 0 2.34 2.34h15.206z" class="cls-2" transform="translate(-13.531 -20.588)"/>
            <path id="Path_4" d="M47.475 74.5L46.5 88.407h4.484L49.944 74.5z" class="cls-2" transform="translate(-24.21 -26.085)"/>
            <path id="Path_5" d="M59.589 66.108c-.065.065-.13.065-.13.13-.065 0-.065.065-.13.065a.064.064 0 0 0-.065.065.227.227 0 0 0-.13.065h-.585c-.065 0-.065 0-.13-.065a.064.064 0 0 1-.065-.065c-.065 0-.065-.065-.13-.065l-.065-.065a.064.064 0 0 1-.065-.065l-1.624-1.364-1.17 3.119 1.04 14.947h15.142a2.33 2.33 0 0 0 2.34-2.34v-4.029A21.932 21.932 0 0 0 64.788 58.7a22.529 22.529 0 0 1-5.199 7.408z" class="cls-2" transform="translate(-27.291 -20.553)"/>
            <path id="Path_6" d="M49.889 67.884l1.3-3.444-2.4-2.015-.39-.325-.39.325L45.6 64.44l1.3 3.444z" class="cls-2" transform="translate(-23.894 -21.743)"/>
            <path id="Path_7" d="M43.713 61.034l1.625-1.365a11.31 11.31 0 0 1-2.145-1.17v.325a3.723 3.723 0 0 0 .52 2.21z" class="cls-2" transform="translate(-23.047 -20.483)"/>
            <path id="Path_8" d="M55.545 58.825V58.5L53.4 59.67l1.625 1.365a5.026 5.026 0 0 0 .52-2.21z" class="cls-2" transform="translate(-26.625 -20.483)"/>
            <path id="Path_9" d="M40.149 59.669a4.09 4.09 0 0 1-.585-2.145V57.2a23.957 23.957 0 0 1-3.574-2.6A25.219 25.219 0 0 0 33 56.03a18.724 18.724 0 0 0 4.029 6.239z" class="cls-2" transform="translate(-19.483 -19.117)"/>
            <path id="Path_10" d="M55.8 59.669l3.119 2.6a20.554 20.554 0 0 0 4.029-6.239 25.22 25.22 0 0 0-2.989-1.43 20.1 20.1 0 0 1-3.574 2.6v.325a4.261 4.261 0 0 1-.585 2.144z" class="cls-2" transform="translate(-27.466 -19.117)"/>
            <path id="Path_11" d="M44.4 27.62c5.459 0 10.2-5.719 10.2-12.217 0-6.3-4.549-11.5-10.2-11.5S34.2 9.034 34.2 15.4c0 6.5 4.744 12.22 10.2 12.22z" class="cls-2" transform="translate(-19.903 -1.366)"/>
            <path id="Path_12" d="M43.037 28.724c6.889 0 12.737-6.759 12.737-14.752C55.775 6.3 50.056 0 43.037 0S30.3 6.3 30.3 13.972c0 7.993 5.849 14.752 12.737 14.752zm0-26.19c5.654 0 10.2 5.134 10.2 11.5 0 6.5-4.744 12.217-10.2 12.217s-10.2-5.719-10.2-12.217c-.003-6.366 4.547-11.5 10.2-11.5z" transform="translate(-18.537)"/>
            <path id="Path_13" d="M60.595 70.584H60.4c.065-.065.13 0 .195 0z" transform="translate(-29.076 -24.704)"/>
            <path id="Path_14" d="M60.7 70.584h.26c-.065-.065-.195 0-.26 0z" transform="translate(-29.181 -24.704)"/>
            <path id="Path_16" d="M46.53 60.1l-.13.13c.065 0 .13.065.195.065a.239.239 0 0 0-.065-.195z" transform="translate(-24.175 -21.043)"/>
            <path id="Path_17" d="M53.295 60.23l-.13-.13c0 .065-.065.13-.065.195a.239.239 0 0 0 .195-.065z" transform="translate(-26.52 -21.043)"/>
            <path id="Path_18" d="M54.265 65.4l-.065.195.13.13z" transform="translate(-26.906 -22.899)"/>
            <path id="Path_19" d="M45.53 65.595l-.065-.195-.065.325z" transform="translate(-23.824 -22.899)"/>
            <path id="Path_20" d="M50.542 53.219a22.4 22.4 0 0 0-2.08-1.3 16.839 16.839 0 0 0-1.885-.91c-.78-.325-1.56-.65-2.34-.91a21.187 21.187 0 0 1-2.145 2.015c-.585.455-1.17.845-1.755 1.235-.65.39-1.3.78-1.95 1.1a13.187 13.187 0 0 1-1.69.715c-.585-.195-1.1-.455-1.69-.715-.65-.325-1.3-.715-1.95-1.1-.585-.39-1.17-.78-1.755-1.235a15.743 15.743 0 0 1-2.14-2.014c-.78.26-1.56.585-2.34.91a16.839 16.839 0 0 0-1.885.91 22.4 22.4 0 0 0-2.08 1.3A24.488 24.488 0 0 0 12.2 73.43v4.094a4.8 4.8 0 0 0 4.809 4.809h39.382a4.8 4.8 0 0 0 4.809-4.809V73.43a24.488 24.488 0 0 0-10.658-20.211zM38.845 56.6l.13.13a11.31 11.31 0 0 0 2.145-1.17 23.957 23.957 0 0 0 3.574-2.6 25.219 25.219 0 0 1 2.989 1.43 19.4 19.4 0 0 1-4.029 6.239l-3.119-2.6-1.625-1.365c-.065 0-.13.065-.195.065.065 0 .065-.065.13-.129zm-10.138-3.641a20.1 20.1 0 0 0 3.574 2.6l2.145 1.17.13-.13c0 .065.065.13.065.195-.065 0-.13-.065-.195-.065l-1.56 1.365-3.119 2.6a20.554 20.554 0 0 1-4.029-6.239 14.282 14.282 0 0 1 2.989-1.496zm3.509 26.9H17.009a2.33 2.33 0 0 1-2.34-2.34V73.43A22.149 22.149 0 0 1 23.7 55.624a22.34 22.34 0 0 0 5.134 7.408h.066l.065.065.065.065.065.065c.065 0 .065 0 .13.065h.78c.065 0 .065 0 .13-.065.065 0 .065 0 .13-.065.065 0 .065-.065.13-.065s.065-.065.13-.065h.065l1.625-1.365 1.17 3.119zm2.275 0l.975-13.907h2.469l1.04 13.907zm5-19.626l-1.3 3.444h-2.986l-1.3-3.444-.13.13.065-.325.065.195 2.4-2.015.39-.325.39.325 2.4 2.015.065-.195.065.325zM58.73 77.524a2.33 2.33 0 0 1-2.34 2.34H41.249l-1.04-14.947 1.17-3.119L43 63.162a.064.064 0 0 1 .065.065l.065.065c.065 0 .065.065.13.065a.064.064 0 0 1 .065.065c.065 0 .065 0 .13.065h.585c.065 0 .13 0 .13-.065a.064.064 0 0 0 .065-.065c.065 0 .065-.065.13-.065l.065-.065a.064.064 0 0 0 .065-.065 21.7 21.7 0 0 0 5.134-7.408A21.932 21.932 0 0 1 58.665 73.5v4.029z" transform="translate(-12.2 -17.542)"/>
        </g>
    </g>
</svg>
