<svg xmlns="http://www.w3.org/2000/svg" id="man1" width="36" height="47.602" viewBox="0 0 36 47.602">
    <defs>
        <style>
            .cls-1{fill:#ae955e}.cls-2{fill:none}
        </style>
    </defs>
    <path id="Path_429" d="M49.1 84.717l.764-10.217h1.814l.716 10.217z" class="cls-1" transform="translate(-31.482 -38.93)"/>
    <path id="Path_430" d="M52.406 63.819l-.955 2.531h-2.2l-.951-2.531 1.767-1.48.286-.239.286.239 1.767 1.48.048-.143.048.239z" class="cls-1" transform="translate(-31.064 -32.45)"/>
    <g id="Group_89">
        <path id="Path_431" d="M29.655 65.532L28.8 63.24l-1.194 1h-.048a.167.167 0 0 1-.1.048c-.048 0-.048.048-.1.048s-.048 0-.1.048c-.048 0-.048 0-.1.048H26.6c-.048 0-.048 0-.1-.048-.048 0-.048 0-.048-.048a.047.047 0 0 1-.048-.048l-.048-.048h-.048a15.942 15.942 0 0 1-3.767-5.44A16.2 16.2 0 0 0 16 71.787v3.008a1.712 1.712 0 0 0 1.719 1.719h11.172z" class="cls-2" transform="translate(-14.186 -30.726)"/>
        <path id="Path_432" d="M47.216 74.5L46.5 84.717h3.294L49.031 74.5z" class="cls-2" transform="translate(-30.123 -38.93)"/>
        <path id="Path_433" d="M58.451 64.143c-.048.048-.1.048-.1.1-.048 0-.048.048-.1.048a.047.047 0 0 0-.048.048.167.167 0 0 0-.1.048h-.43c-.048 0-.048 0-.1-.048a.047.047 0 0 1-.048-.048c-.048 0-.048-.048-.1-.048l-.048-.048a.047.047 0 0 1-.048-.048l-1.194-1-.835 2.285.764 10.981h11.125a1.712 1.712 0 0 0 1.719-1.719v-2.96A16.113 16.113 0 0 0 62.271 58.7a16.552 16.552 0 0 1-3.82 5.443z" class="cls-2" transform="translate(-34.722 -30.674)"/>
        <path id="Path_434" d="M48.751 66.349l.955-2.531-1.767-1.48-.286-.239-.286.239-1.767 1.481.955 2.531z" class="cls-2" transform="translate(-29.653 -32.45)"/>
        <path id="Path_435" d="M43.572 60.362l1.194-1a8.31 8.31 0 0 1-1.576-.862v.239a2.735 2.735 0 0 0 .382 1.623z" class="cls-2" transform="translate(-28.389 -30.569)"/>
        <path id="Path_436" d="M54.976 58.739V58.5l-1.576.859 1.194 1a3.693 3.693 0 0 0 .382-1.62z" class="cls-2" transform="translate(-33.729 -30.569)"/>
        <path id="Path_437" d="M38.252 58.324a3.005 3.005 0 0 1-.43-1.576v-.238A17.6 17.6 0 0 1 35.2 54.6a18.528 18.528 0 0 0-2.2 1.05 13.757 13.757 0 0 0 2.96 4.584z" class="cls-2" transform="translate(-23.069 -28.531)"/>
        <path id="Path_438" d="M55.8 58.324l2.292 1.91a15.1 15.1 0 0 0 2.96-4.584 18.528 18.528 0 0 0-2.2-1.05 14.768 14.768 0 0 1-2.626 1.91v.239a3.131 3.131 0 0 1-.426 1.575z" class="cls-2" transform="translate(-34.983 -28.531)"/>
        <path id="Path_439" d="M41.7 21.327c4.011 0 7.5-4.2 7.5-8.976 0-4.631-3.342-8.451-7.5-8.451s-7.5 3.772-7.5 8.451c0 4.774 3.485 8.976 7.5 8.976z" class="cls-2" transform="translate(-23.696 -2.038)"/>
        <path id="Path_440" d="M39.658 21.1c5.061 0 9.358-4.966 9.358-10.838C49.016 4.631 44.815 0 39.658 0S30.3 4.631 30.3 10.265c0 5.873 4.3 10.835 9.358 10.835zm0-19.241c4.154 0 7.5 3.772 7.5 8.451 0 4.775-3.485 8.976-7.5 8.976s-7.5-4.2-7.5-8.976c.004-4.676 3.342-8.448 7.5-8.448z" transform="translate(-21.658)"/>
        <path id="Path_441" d="M60.543 70.577H60.4c.048-.048.1 0 .143 0z" transform="translate(-37.387 -36.869)"/>
        <path id="Path_442" d="M60.7 70.577h.191c-.048-.048-.143 0-.191 0z" transform="translate(-37.544 -36.869)"/>
        <path id="Path_444" d="M46.5 60.1l-.1.1c.048 0 .1.048.143.048a.175.175 0 0 0-.043-.148z" transform="translate(-30.071 -31.405)"/>
        <path id="Path_445" d="M53.243 60.2l-.1-.1c0 .048-.048.1-.048.143a.175.175 0 0 0 .148-.043z" transform="translate(-33.572 -31.405)"/>
        <path id="Path_446" d="M54.248 65.4l-.048.143.1.1z" transform="translate(-34.147 -34.175)"/>
        <path id="Path_447" d="M45.5 65.543l-.048-.143-.048.239z" transform="translate(-29.549 -34.175)"/>
        <path id="Path_448" d="M40.37 52.392a16.457 16.457 0 0 0-1.528-.955 12.371 12.371 0 0 0-1.385-.668c-.573-.239-1.146-.477-1.719-.668a15.565 15.565 0 0 1-1.576 1.48c-.43.334-.859.621-1.289.907-.477.286-.955.573-1.432.812a9.689 9.689 0 0 1-1.241.525c-.43-.143-.812-.334-1.241-.525-.477-.239-.955-.525-1.432-.812-.43-.286-.859-.573-1.289-.907a11.566 11.566 0 0 1-1.576-1.48c-.573.191-1.146.43-1.719.668a12.371 12.371 0 0 0-1.385.668 16.457 16.457 0 0 0-1.528.955 17.991 17.991 0 0 0-7.83 14.849v3.008a3.525 3.525 0 0 0 3.533 3.533h28.934a3.525 3.525 0 0 0 3.533-3.533v-3.008a17.991 17.991 0 0 0-7.83-14.849zm-8.594 2.483l.1.1a8.309 8.309 0 0 0 1.576-.859 17.6 17.6 0 0 0 2.626-1.91 18.528 18.528 0 0 1 2.2 1.05 14.253 14.253 0 0 1-2.96 4.584l-2.292-1.91-1.194-1c-.048 0-.1.048-.143.048.039-.008.039-.056.087-.103zM24.327 52.2a14.768 14.768 0 0 0 2.626 1.91l1.576.859.1-.1c0 .048.048.1.048.143-.048 0-.1-.048-.143-.048l-1.146 1-2.292 1.91a15.1 15.1 0 0 1-2.96-4.584 10.493 10.493 0 0 1 2.191-1.09zm2.578 19.767H15.733a1.712 1.712 0 0 1-1.719-1.719v-3.007a16.273 16.273 0 0 1 6.637-13.082 16.413 16.413 0 0 0 3.772 5.441h.048l.048.048.048.048.048.048c.048 0 .048 0 .1.048h.573c.048 0 .048 0 .1-.048.048 0 .048 0 .1-.048.048 0 .048-.048.1-.048s.048-.048.1-.048h.048l1.194-1 .859 2.292zm1.671 0l.716-10.217h1.814l.764 10.217zm3.676-14.419l-.952 2.531h-2.2l-.955-2.531-.1.1.048-.239.048.143 1.767-1.48.286-.239.286.239 1.767 1.48.048-.143.048.239zm14.133 12.7a1.712 1.712 0 0 1-1.719 1.719H33.542l-.764-10.981.859-2.292 1.194 1a.047.047 0 0 1 .048.048l.048.048c.048 0 .048.048.1.048a.047.047 0 0 1 .048.048c.048 0 .048 0 .1.048h.43c.048 0 .1 0 .1-.048a.047.047 0 0 0 .048-.048c.048 0 .048-.048.1-.048l.048-.048a.047.047 0 0 0 .048-.048 15.942 15.942 0 0 0 3.751-5.44 16.113 16.113 0 0 1 6.637 13.034v2.96z" transform="translate(-12.2 -26.18)"/>
    </g>
</svg>
