<svg xmlns="http://www.w3.org/2000/svg" id="Account-01" width="35.997" height="47.602" viewBox="0 0 35.997 47.602">
    <defs>
        <style>
            .cls-1{fill:none}.cls-3{fill:#231f20}
        </style>
    </defs>
    <path id="Path_458" d="M21.8 71.436V69a13.862 13.862 0 0 1 23.611-9.854 16.151 16.151 0 0 0-29.351 9.31v3a1.709 1.709 0 0 0 1.7 1.709h4.94a2.123 2.123 0 0 1-.895-1.728z" class="cls-1" transform="translate(-14.218 -27.404)"/>
    <path id="Path_459" d="M41.747 21.3c3.994 0 7.5-4.2 7.5-8.992 0-4.651-3.361-8.435-7.5-8.435s-7.5 3.808-7.5 8.435c.003 4.786 3.507 8.992 7.5 8.992z" class="cls-1" transform="translate(-23.749 -2.028)"/>
    <path id="Path_460" fill="#b29656" d="M54.691 74.578v-3a16.09 16.09 0 0 0-2.961-9.311 13.862 13.862 0 0 0-23.61 9.855v2.437a2.123 2.123 0 0 0 .895 1.728h23.972a1.709 1.709 0 0 0 1.704-1.709z" transform="translate(-20.537 -30.527)"/>
    <path id="Path_461" d="M39.72 21.112c5.065 0 9.34-4.965 9.34-10.834C49.059 4.608 44.87 0 39.72 0s-9.34 4.608-9.34 10.277c0 5.87 4.275 10.835 9.34 10.835zm0-19.269c4.137 0 7.5 3.808 7.5 8.435 0 4.789-3.5 8.992-7.5 8.992s-7.5-4.2-7.5-8.992c.002-4.651 3.368-8.436 7.5-8.436z" class="cls-3" transform="translate(-21.721)"/>
    <path id="Path_462" d="M30.188 48.43a18.017 18.017 0 0 0-18 18v3a3.551 3.551 0 0 0 3.546 3.551h28.9a3.551 3.551 0 0 0 3.546-3.551v-3a18.017 18.017 0 0 0-18-18zM15.736 71.136a1.709 1.709 0 0 1-1.7-1.709v-3a16.156 16.156 0 1 1 32.312 0v3a1.709 1.709 0 0 1-1.7 1.709z" class="cls-3" transform="translate(-12.19 -25.376)"/>
</svg>
