<svg xmlns="http://www.w3.org/2000/svg" id="man2" width="51.155" height="50.845" viewBox="0 0 51.155 50.845">
    <defs>
        <style>
            .cls-1{fill:none}.cls-3{fill:#020202}
        </style>
    </defs>
    <path id="Path_449" d="M76.35 67.625a2.2 2.2 0 0 0-2.428-2.325H71.7v4.6h2.222a2.163 2.163 0 0 0 2.428-2.275z" class="cls-1" transform="translate(-34.652 -32.024)"/>
    <path id="Path_450" d="M76.712 78.977a2.287 2.287 0 0 0-2.583-2.377H71.7v4.857h2.429a2.337 2.337 0 0 0 2.583-2.48z" class="cls-1" transform="translate(-34.652 -37.485)"/>
    <path id="Path_451" d="M9.236 68.018V65.59a13.849 13.849 0 0 1 13.847-13.848 13.535 13.535 0 0 1 8.371 2.842c.052-.1.155-.155.207-.258A16.106 16.106 0 0 0 3.5 65.021v3a1.72 1.72 0 0 0 1.705 1.705h4.909a2.078 2.078 0 0 1-.878-1.708z" class="cls-1" transform="translate(-1.691 -24.098)"/>
    <path id="Path_452" d="M27.692 21.813c3.979 0 7.492-4.185 7.492-8.991 0-4.65-3.359-8.422-7.492-8.422S20.2 8.172 20.2 12.822c0 4.806 3.514 8.991 7.492 8.991z" class="cls-1" transform="translate(-9.762 -2.592)"/>
    <path id="Path_453" fill="#b19455" d="M33.718 65.454a12.164 12.164 0 0 1 3.1-8.112A13.823 13.823 0 0 0 14.6 68.348v2.429a2.078 2.078 0 0 0 .878 1.705h20.41a12.693 12.693 0 0 1-2.17-7.028z" transform="translate(-7.056 -26.804)"/>
    <path id="Path_454" d="M26 21.93c5.064 0 9.3-4.96 9.3-10.8C35.3 5.5 31.116.9 26 .9s-9.3 4.6-9.3 10.231c0 5.89 4.237 10.799 9.3 10.799zm0-19.17c4.134 0 7.492 3.772 7.492 8.422 0 4.754-3.514 8.991-7.492 8.991s-7.492-4.237-7.492-9.042c0-4.599 3.359-8.371 7.492-8.371z" transform="translate(-8.071 -.9)"/>
    <path id="Path_455" d="M60.252 62.252L60.2 62.2l.052.052z" class="cls-3" transform="translate(-29.094 -30.525)"/>
    <path id="Path_456" d="M38.909 48.81a12.311 12.311 0 0 0-7.6 2.635A17.739 17.739 0 0 0 17.93 45.4 17.939 17.939 0 0 0 0 63.33v3a3.517 3.517 0 0 0 3.514 3.514h26.92a12.229 12.229 0 1 0 8.474-21.03zM3.514 68.032a1.72 1.72 0 0 1-1.705-1.705v-3A16.142 16.142 0 0 1 17.93 47.208a15.95 15.95 0 0 1 12.039 5.477c-.052.1-.155.155-.207.258a12.191 12.191 0 0 0-.878 15.14H3.514zm35.395 3.41a10.351 10.351 0 0 1-5.684-1.705 12.979 12.979 0 0 1-1.653-1.292l-.413-.413a10.4 10.4 0 0 1-.1-13.951L31 54.029l.052.052a10.059 10.059 0 0 1 1.343-1.24 10.251 10.251 0 0 1 6.407-2.222 10.412 10.412 0 0 1 .1 20.824z" transform="translate(0 -22.406)"/>
    <path id="Path_457" d="M74.732 66.791a3.2 3.2 0 0 0 1.757-2.891 3.386 3.386 0 0 0-.982-2.48 3.791 3.791 0 0 0-2.325-.93v-1.967a.723.723 0 1 0-1.447 0v1.964H69.1V73.56h2.635v1.964a.723.723 0 0 0 1.447 0V73.56a4.012 4.012 0 0 0 2.635-.982 3.514 3.514 0 0 0-1.085-5.787zm-4.289-5.064h2.222a2.3 2.3 0 1 1 0 4.6h-2.222zm2.429 10.644h-2.429v-4.857h2.429a2.287 2.287 0 0 1 2.584 2.377 2.337 2.337 0 0 1-2.584 2.48z" class="cls-3" transform="translate(-33.395 -28.399)"/>
</svg>
