<svg id="Layer_1" data-name="Layer 1" xmlns="http://www.w3.org/2000/svg" viewBox="0 0 100 100"><defs><style>.cls-1{fill:#4d4d4d;}.cls-2{fill:#b29656;}</style></defs><path class="cls-1" d="M50,94.31A44.25,44.25,0,1,1,94.22,50.06,44.3,44.3,0,0,1,50,94.31ZM50,7.49A42.58,42.58,0,1,0,92.55,50.06,42.62,42.62,0,0,0,50,7.49Z"/><path class="cls-2" d="M46.7,53.63l-1-14.86q-.28-4.35-.28-6.24a5.65,5.65,0,0,1,1.35-4,4.63,4.63,0,0,1,3.55-1.44c1.78,0,3,.61,3.57,1.84a12.52,12.52,0,0,1,.9,5.33,39,39,0,0,1-.22,4.15l-1.33,15.3a12.24,12.24,0,0,1-.93,4.19A2.46,2.46,0,0,1,50,59.34a2.35,2.35,0,0,1-2.33-1.41A14.42,14.42,0,0,1,46.7,53.63Zm3.44,20.42a4.86,4.86,0,0,1-3.3-1.23,4.31,4.31,0,0,1-1.41-3.43,4.61,4.61,0,0,1,4.65-4.62,4.6,4.6,0,0,1,3.34,1.35,4.41,4.41,0,0,1,1.38,3.27,4.32,4.32,0,0,1-1.4,3.41A4.73,4.73,0,0,1,50.14,74.05Z"/><path class="cls-1" d="M48.06,74.57a5.71,5.71,0,0,1-3.85-1.43,5.1,5.1,0,0,1-1.7-4.06A5.46,5.46,0,0,1,48,63.62a5.44,5.44,0,0,1,3.92,1.59,5.56,5.56,0,0,1,0,7.91A5.62,5.62,0,0,1,48.06,74.57ZM48,65.3a3.66,3.66,0,0,0-2.71,1.1,3.59,3.59,0,0,0-1.11,2.68,3.48,3.48,0,0,0,1.12,2.8,4.13,4.13,0,0,0,5.47,0,3.51,3.51,0,0,0,1.11-2.79,3.57,3.57,0,0,0-1.13-2.67A3.73,3.73,0,0,0,48,65.3Zm-.12-5.44A3.18,3.18,0,0,1,44.79,58a14.74,14.74,0,0,1-1-4.57v0l-1-14.86c-.18-2.9-.28-5-.28-6.29a6.46,6.46,0,0,1,1.58-4.59,5.47,5.47,0,0,1,4.16-1.71c2.64,0,3.8,1.26,4.32,2.32a13.19,13.19,0,0,1,1,5.69,40.56,40.56,0,0,1-.22,4.24L52,53.45a13,13,0,0,1-1,4.49A3.27,3.27,0,0,1,47.88,59.86Zm-2.43-6.61a13.5,13.5,0,0,0,.86,4,1.53,1.53,0,0,0,1.57.92,1.62,1.62,0,0,0,1.61-1,11.31,11.31,0,0,0,.84-3.89L51.67,38a40.56,40.56,0,0,0,.21-4.08,11.82,11.82,0,0,0-.81-5c-.45-.93-1.38-1.38-2.82-1.38a3.81,3.81,0,0,0-2.94,1.18,4.88,4.88,0,0,0-1.13,3.45c0,1.24.1,3.32.28,6.18Z"/></svg>