<svg id="Layer_1" data-name="Layer 1" xmlns="http://www.w3.org/2000/svg" viewBox="0 0 300 300"><defs><style>.cls-1{fill:#e0e0e1;}.cls-1,.cls-2{fill-rule:evenodd;}.cls-2,.cls-3{fill:#e1e0e1;}</style></defs><path class="cls-1" d="M234.67,66l-204,94.84a12.49,12.49,0,0,0-6,16.57l24,51.55a12.13,12.13,0,0,0,2.86,3.9,12.47,12.47,0,0,0,13.7,2.13l204-94.84a12.28,12.28,0,0,0,3.9-2.86,12.6,12.6,0,0,0,2.52-4.18,12.36,12.36,0,0,0-.39-9.53L251.23,72a12.13,12.13,0,0,0-2.86-3.9A12.47,12.47,0,0,0,234.67,66m.9,1.94-204,94.84a11.4,11.4,0,0,0-1.74,1,10,10,0,0,0-1.49,1.34,10.51,10.51,0,0,0-1.21,1.62,10.17,10.17,0,0,0-.87,1.85,10.74,10.74,0,0,0-.52,2,11.31,11.31,0,0,0-.12,2,9.57,9.57,0,0,0,.29,2,10.11,10.11,0,0,0,.67,1.91l24,51.56a10.17,10.17,0,0,0,2.36,3.22,9.76,9.76,0,0,0,1.62,1.21,10.52,10.52,0,0,0,1.85.88,10.83,10.83,0,0,0,2,.52,10.3,10.3,0,0,0,2,.11,9.64,9.64,0,0,0,2-.28A10.11,10.11,0,0,0,64.3,233l204-94.84a10.64,10.64,0,0,0,1.74-1,9.94,9.94,0,0,0,1.48-1.33,10.41,10.41,0,0,0,1.22-1.62,11.36,11.36,0,0,0,.87-1.86,10.54,10.54,0,0,0,.52-2,10.4,10.4,0,0,0,.11-2,9.64,9.64,0,0,0-.28-2,10.11,10.11,0,0,0-.67-1.91l-24-51.55a9.71,9.71,0,0,0-1-1.75,9.94,9.94,0,0,0-1.33-1.48,10.34,10.34,0,0,0-1.62-1.21,10.52,10.52,0,0,0-1.85-.88,10.83,10.83,0,0,0-2-.52,10.3,10.3,0,0,0-2-.11,9.64,9.64,0,0,0-2,.28A10.11,10.11,0,0,0,235.57,67.89Z"/><path class="cls-2" d="M161.57,195.43c-.22-.5-1.08-.09-1.32-.57l-.21.1c.1.32-.72.38-.87.4.27.24.14,1,.67.88-.05-.47.62-.08,1.73-.81M80.3,233.81c-.34.2-.43.06-.71.18.25-.67-.77-.74-.13-1.42C80.25,232.71,79.64,233.56,80.3,233.81Zm.28,2.82-.88.41-.17-.35c.38-.2.53-.07.93-.29A1.71,1.71,0,0,1,80.58,236.63Zm2-.91-.46.22c0-.06.05-.12.17-.22S82.48,235.66,82.53,235.72ZM38.25,213l8,17.07a15.21,15.21,0,0,0,20.13,7.33l11.74-5.48c.12.83-.34,1.3-.23,2.32.42-.12.93-.36,1.2-.26.29.71.91.82.19,1.54-.68-.23.08-1.28-1.16-.8a10.67,10.67,0,0,1,.62,2.82l-10.1,4.71a20.56,20.56,0,0,1-27.24-9.92L33.27,215c.54-.32,1-.64,1.54-.89a6.51,6.51,0,0,0,2.55-.16c-.31.05,0-.66-.06-.71A2.54,2.54,0,0,1,38.25,213ZM169.8,190c.11.15-.52.8,0,.59-.08-.31.92-.51,1.08-.5.15-.27,0-.55.15-.81C170.43,189.65,170.68,189.82,169.8,190Zm-12.57,6.31c-1,.6-1.14.11-1.58,0a1.51,1.51,0,0,0-.14,1.4c-.08-.17-.43.06-.54,0-.12-.73-.54.23-.88-.18.22-.11.17-.34-.11-.25.21.3-.58,1.12.23,1.08-.11-.2,0-.39.27-.57.05.13.24.07.33.14-.09.14-.24.82.28.61.45-.4,0-.3.26-.56s1.26-.51.93.3c1.08-.68-.44-.57,1.13-1,.12-.64-.95.4-1,0C156,197,157.76,196.21,157.23,196.27Zm7.84-2.91a4.09,4.09,0,0,1-1.47.23c.09-.27.88-1.09.31-1a6.6,6.6,0,0,1-2.69,1.55c.07.17.15.33.22.49.7-.41,1.48-.63,1,0,1.05-.6,1.75-.7,2.17-.41C164.6,193.87,165.12,193.63,165.07,193.36Zm-2.31,1.81c-.93.3-1,.41-1.4,1,.32-.14.69.62.82.07C161.61,196.25,162.66,195.45,162.76,195.17Zm1,1.61c-.55.3-.67,0-.87-.19-.74.22-.3.53-.69.77-.3-.06-.42-.36-.88-.18l.23.48c.76-.45,1,.07,1.85,0C163.34,197.37,164.06,197.11,163.77,196.78Zm3.88-2.4.22-.1c.61-.91,1.17,0,1.9-.44-.57-.1.1-.77-.62-.76.28.26.12.48-.48.67-.15-.21.12-.38,0-.59-.39.13-.47.44-.64.31s-.2-.33,0-.47c-.05-.07-.1-.13-.27,0-.21.41-.19.85-.74,1.23C167.34,194.14,167.56,194.16,167.65,194.38Zm5.86-4.36c-.15-.46.94-.07.8-.53-.41.09-1.25-.25-1.3,0C173.69,189.41,172.86,190.18,173.51,190Zm3.85-.76c-.34.19-.43.06-.71.18-.31-.26.32-.45.21-.69C177.32,188.51,177.16,189.14,177.36,189.26Zm.64,2.06-2.54,1.18c0-.27.47-.5.42-.77-.76.37-1.46.75-1.56,1.17a2.65,2.65,0,0,1,1.1-.38l-8.17,3.81c-.17-.53.87-.5.21-.68.38-.19.56-.11.6.17.31-.17.82-.33.81-.53-1.13.11-1-.5-2.4-.06.67.42.27,1,.76,1.11l-.89.42a1.81,1.81,0,0,1-.41-1c-1.1.52-1,1.12-1.15,1.71l13.2-6.27c.14-.54,1.27-1.47.5-1.7a3.12,3.12,0,0,0-1.73.21c-.08,1.07-.37,1.13-.08,1.53l.05.12c.07.3.67-.14.81,0l-2.92,1.36c0-.11,0-.21,0-.28a.83.83,0,0,0-.39.46l-14.09,6.57c-.48-.72-.87-2-1.29-1.9.38.59.28,1.68.89,2.09l-25.25,11.77a1.89,1.89,0,0,0,.16-.35,2.38,2.38,0,0,0-.5.51L83,235.49c-1.49,0-1.61-1.34-1.77-2.43-1-.25-1.76-1-3.16-1.18l62-28.91a32.12,32.12,0,0,1-2.54,3.7l.06.12a21.22,21.22,0,0,0,2.91-4l17-7.93c.16.21.26.26.2-.09l.54-.26a.89.89,0,0,1,.15.52l.05.12c.73-.21.15,1.42,1.32.58-.58,0-1.08-.79-1.1-1.41l4.69-2.07.2.19c.57-.17.61-.38.65-.59L176,186.34c.24.65-1.83,1.21-2.21,2.06-.06-.26-.37-.16-.44-.39a8.56,8.56,0,0,0-2,.9c.32.2-.51.88.07.71a1.14,1.14,0,0,1,.26-.56c.48.07.06.16.23.48l.43-.2.22-.1c1.06-.36-.45-.18.26-.57a2.17,2.17,0,0,0,1.84-.56c.37,0,.61.44.07.71-.09-.13-.2-.26-.55,0-.16.56.27.44.46,1,1.46-.46,1.61.11,2.45.19-.82.22-1.09,1.07-.58,1-.14-.37.89-1.25,1.56-1.17l-1.08.5C177.27,190.77,177.69,191,178,191.32ZM141.63,101.9a.87.87,0,0,0,.77.53C142.42,102.07,142.53,101.42,141.63,101.9Zm-3,1.41c.06.12.12.24.17.36a.59.59,0,0,0,.66.29c.13-.59-.37-.49-.24-1.08C138.83,103,138.87,103.17,138.6,103.31Zm23.57-9.8c0-.35.69-.65.58-1C162.22,92.74,161.56,93.57,162.17,93.51ZM53,144.76c.2-.71.55-1.3,0-1.64C53.09,143.6,51.85,144.59,53,144.76Zm89.61-41.38.22-.1c-.07-.31.21-.74-.5-.51C142.08,103.15,141.91,103.46,142.58,103.38ZM70.87,138c-.24-.53-2.24.33-2.6.62.76,0-.17.36-.59.43,0,.23-.18.45-.2.69C68.33,138.81,69.76,138.78,70.87,138ZM18,176.94c1.14-.74,2.24-.76,2.69-1.56A5.94,5.94,0,0,0,18,176.94Zm7.9,11.3c-.47-.15-.74-.58-1.48-.35.11.24-.52.43-.21.69C24.65,188.55,25.66,188.72,25.92,188.24ZM26.74,201l-.17-.37c1-.41,2.1-.81,3.21-1.23A10.48,10.48,0,0,1,26.74,201Zm5-1.9,6.35,13.61c-.34.06-.59,0-.39-.25-.79.59-1.23.23-2.12.54a10.14,10.14,0,0,0-2.52,1.6l-6-13C28,200.72,30.24,199.78,31.76,199.05Zm241.8-89.38c-.23.33-.88.64-.58,1C273.93,110.47,274.19,109.61,273.56,109.67Zm-93.06,75.6c.41-.17.33.34.81.07-.17-.21.18-.38.27-.57-.19,0-.3,0-.33-.14C180.85,184.83,180.56,185,180.5,185.27Zm-1.56,1.17c1-.87.68-.42,1.35-.48-.16-.21.12-.38,0-.59C179.74,185.37,178.33,186,178.94,186.44Zm13.81-7-.86.4a.82.82,0,0,0,.93.31A.59.59,0,0,1,192.75,179.41ZM159,195.47c-.49.26-.41-.25-.82-.07-.64.35,0,1.14-.8,1.11.09.35.21.65.88.19C157.46,196.21,158.6,195.87,159,195.47ZM180,185.93c-.66.19-.48.44-1,.63.22.16.35.45.72.41C179.17,186.57,180.43,186.32,180,185.93Zm-91.2,43.61c-.12-.17-.13-.49-.44-.39,0,.32-1.19.53-.91.87C88.09,229.62,88.31,229.78,88.82,229.54Zm120.44-58.71.23-.11a.23.23,0,0,1-.12.34Zm-53.89,28.23c.43-.16.42-.36.81-.52-.2-.19-.32-.49-.87-.19C155.65,198.61,155.15,198.81,155.37,199.06Zm22-10.86,0,.12c-.46.54-.57,1.21.46,1C178.46,190.33,177.91,187.59,177.4,188.2Zm-7.77,4.22c.57.23.14.69.57,1.22a2,2,0,0,0,.8-.53c-.13-.55-.52.39-.81-.06.21-.1.21-.22.37-.33.43-.19.43.21,1-.15a.61.61,0,0,1-.07-.72c-.33.13-.78.42-.92.29,0-.35.56-.67.31-1l-.65.3C170.58,191.79,170.24,192.11,169.63,192.42Zm-57.12,28.15c0-.45.22-1.23-.51-1.1C112.23,219.77,111.78,220.62,112.51,220.57Zm51.09-24.16c.24.28.43.62.83.65.26-.43.32-.58-.12-.83.62-.39.84-.24,1.35-.48a1.17,1.17,0,0,0-.45-1c-.38.7-1.69,1-1.93,1.49C163.52,196.22,164.53,196,163.6,196.41Zm7.89-3.38c-.33.46.29.62.93.31C172.53,192.86,172.28,192.73,171.49,193ZM167.18,91.92c0,.47-.61.08-1.73.81.22.5,1.08.1,1.32.57l.22-.1c-.11-.32.71-.38.86-.4C167.58,92.57,167.71,91.79,167.18,91.92Zm51.61-24.66c.33-.2.43-.06.71-.18-.25.66.77.74.13,1.42C218.84,68.36,219.45,67.51,218.79,67.26Zm43.08,20.15-.12-.26C261.87,87.15,261.89,87.27,261.87,87.41Zm6.84,14.66-.1-.21a.83.83,0,0,1,.48,0A.72.72,0,0,1,268.71,102.07Zm5.13-1.66,9,19.38a21.67,21.67,0,0,1,1,2.7c-.27.13-.48.26-.52.41l.59-.17A20.57,20.57,0,0,1,273,147l-48.34,22.54c-.2,0-.3-.07-.49,0a.72.72,0,0,0,0,.3l-12.79,6a1.05,1.05,0,0,1,.21-1.27c-.77.35-.08-.23-.82-.06.39-.3.53-1.08-.08-1.3-.84.63-.09.92-.14,1.4l-.64.3,0,.13a1.23,1.23,0,0,1,1.16.93l-31.32,14.6c0-.73-.47-1.21-1.33-1.89a2.81,2.81,0,0,1,0,2.51l.64-.29a2.4,2.4,0,0,1,.62-1.17c-.42-.16-.74.51-.92.28-.45-.58.29-1.07.85-1.58-1-.23-1-.92-2.26-.88-.21-.29.8-.48.43-.79-.66-.12-1.46-.07-1.73-.36l10.41-4.86a.23.23,0,0,0,0,.14c.55-.36.55,0,1-.16l-.17-.35,2.6-1.21a1.31,1.31,0,0,0-.15,1.39c.42-.17.41-.36.81-.53-.45-.45-.2-.84.12-1.23l.43-.2c.32,0,.7-.24,1.06-.5l.87-.4a.27.27,0,0,1,.14.07.4.4,0,0,1,0-.15l4.29-2c.09,0,.16,0,.2.05l.22-.1c0-.08.06-.14.14-.21l1.17-.55a.32.32,0,0,0,.2.05l.41-.33L175.65,186.5a3.49,3.49,0,0,0,1.55.15c0-.22-.34-.48-.34-.71l.25-.12c.3.51.32,1.4.92,1.49l-.73-1.58,4.19-1.95a3.24,3.24,0,0,1-1.4,2.86c.34.54,0,1-.35,1.5.41-.39,1-.06.86-.4-.64.13-.32-.64.42-.79.33.31.26.16.29.61.4-.64.68-.57,1.18-.85-.18.07-.84-.1-.39-.26s.6.23,1.25-.14c-.19-1.39.23-2.24.06-3.43l24.82-11.57a1.08,1.08,0,0,0,.67.42c-.11-.21,0-.39.26-.57-.36,1.11.71,1.48.8,2.3.63-.19.33-.45.75-.65l-.05-.12c-.14-.32-.23-.08-.49.08.43-.36-.51-.83,0-1.18.32-.12.24.33.6.16-.05-.39,0-.78,0-1.17-.74.21-.3.52-.69.77-.32-.25-.08-.66-.2-.79l60.87-28.38a15.22,15.22,0,0,0,8.43-16.79,4.58,4.58,0,0,0,1.94-1.26,16.9,16.9,0,0,1-2,.94,14.67,14.67,0,0,0-1-3l-4.14-8.88a1.15,1.15,0,0,0,.76,0c-.11-.25.52-.43.2-.69a6.23,6.23,0,0,0-1.26.05l-4.73-10.15C270.4,101.73,272.14,101.09,273.84,100.41Zm-6.79-14.55,6.6,14.15c-1.38.59-2.81,1.13-4.34,1.71a9.64,9.64,0,0,1,3.88-1.81c.44-.67-.46-.7-1-.55a13.7,13.7,0,0,1-3.71,2.14l-6.16-13.21a4.26,4.26,0,0,0,1.21-.18C264.83,87.64,265.76,86.52,267.05,85.86Zm-46.66-22.3,11.21-5.23a20.56,20.56,0,0,1,27.24,9.91l8.06,17.29c-.92.42-1.81,1-2.62,1.47a6.9,6.9,0,0,0-2.53.14L254,70.5a15.21,15.21,0,0,0-20.12-7.32l-12.86,6c-.12-.84.33-1.3.22-2.32-.41.11-.92.35-1.19.26-.29-.72-.91-.83-.19-1.54.68.23-.08,1.28,1.16.79A10.59,10.59,0,0,1,220.39,63.56Zm-1.88.87.88-.41.16.36c-.38.19-.52.06-.92.28A1.27,1.27,0,0,1,218.51,64.43Zm-1.95.91.46-.21c0,.05-.05.12-.17.21S216.61,65.41,216.56,65.34ZM157.22,98.2c-.1-.15.52-.8,0-.59.08.31-.91.51-1.08.5-.14.27,0,.55-.15.81C156.6,98.52,156.34,98.34,157.22,98.2Zm12.58-6.31c.95-.6,1.13-.11,1.58,0a1.51,1.51,0,0,0,.13-1.39c.08.16.43-.07.55,0,.11.73.53-.23.87.18-.21.11-.17.34.12.25-.22-.3.57-1.12-.24-1.08.11.21,0,.39-.26.57-.06-.12-.25-.07-.33-.14.09-.14.23-.82-.29-.61-.44.41,0,.3-.26.56s-1.25.51-.93-.3c-1.08.68.44.57-1.13,1-.12.64,1-.4,1,0C171,91.21,169.26,92,169.8,91.89Zm-4,2.16c-.08-.17-.16-.33-.23-.49-.69.41-1.48.63-1,0-1,.6-1.75.7-2.17.41.06.28-.47.52-.42.79a4.13,4.13,0,0,1,1.47-.23c-.08.27-.87,1.09-.31,1A6.58,6.58,0,0,1,165.81,94.05Zm-1-2.08c.57-.06-.48.74-.58,1,.93-.3,1-.41,1.4-.95C165.34,92.18,165,91.42,164.84,92Zm-1.59-.59c.55-.3.67,0,.87.19.75-.22.3-.53.7-.77.29.06.41.36.87.18-.07-.16-.15-.32-.23-.48-.76.45-1-.07-1.85,0C163.68,90.79,163,91.05,163.25,91.38Zm-3.88,2.4-.21.1c-.61.91-1.17,0-1.9.44.57.1-.1.77.61.76-.27-.26-.12-.48.48-.67.16.21-.12.38,0,.59.39-.13.47-.44.65-.31s.2.33,0,.47c0,.07.1.13.28,0,.21-.41.19-.85.73-1.23C159.68,94,159.46,94,159.37,93.78Zm-5.85,4.36c.14.46-1,.07-.81.53.41-.09,1.25.25,1.31,0C153.33,98.75,154.16,98,153.52,98.14Zm-3.85.76c.33-.19.42-.06.7-.18.31.26-.32.45-.21.69C149.71,99.65,149.86,99,149.67,98.9ZM149,96.84l2.54-1.18c0,.27-.48.5-.43.77.77-.37,1.46-.75,1.56-1.17a2.61,2.61,0,0,1-1.1.38l8.17-3.81c.17.53-.86.5-.21.68-.37.19-.56.11-.6-.17-.31.17-.81.33-.8.53,1.13-.11,1,.5,2.39.06-.67-.42-.26-1-.76-1.11l.9-.42a1.89,1.89,0,0,1,.4,1c1.11-.52,1-1.12,1.15-1.71l13.94-6.5c-.15.54-1.27,1.47-.51,1.7a3.06,3.06,0,0,0,1.74-.21c.08-1.06.37-1.13.08-1.52l-.05-.13c-.07-.3-.67.14-.82,0l2.93-1.36a1.4,1.4,0,0,0,0,.28.88.88,0,0,0,.39-.46l-41,19.11c.47.72.87,2,1.29,1.9-.38-.59-.28-1.69-.89-2.09L164.6,89.57a1.89,1.89,0,0,0-.16.35,2.36,2.36,0,0,0,.5-.5l51.12-23.84c1.49,0,1.61,1.33,1.77,2.42,1,.26,1.76,1,3.15,1.19L159,98.1a33.56,33.56,0,0,1,2.55-3.7l-.06-.13a20.87,20.87,0,0,0-2.91,4l-17,7.93c-.15-.22-.25-.26-.19.09l-.55.25a1,1,0,0,1-.14-.52l-.06-.12c-.72.21-.14-1.41-1.32-.57.59,0,1.09.79,1.11,1.4l23.25-10.83-.21-.19c-.57.17-.61.38-.65.59L151,101.82c-.23-.65,1.84-1.21,2.21-2,.06.25.37.15.45.38a8.68,8.68,0,0,0,1.94-.9c-.32-.2.51-.88-.07-.71a1.14,1.14,0,0,1-.26.56c-.47-.07-.05-.16-.23-.48l-.43.2-.21.1c-1.06.36.44.18-.27.57a2.17,2.17,0,0,0-1.84.56c-.36,0-.61-.44-.07-.71.1.13.2.26.55,0,.16-.56-.27-.44-.45-1-1.47.46-1.62-.11-2.46-.19.83-.22,1.1-1.07.58-1,.14.37-.89,1.25-1.56,1.17l1.08-.5C149.76,97.39,149.34,97.19,149,96.84Zm8.43,102.33a.86.86,0,0,0-.77-.53C156.67,199,156.55,199.64,157.46,199.17Zm3-1.41c-.06-.12-.12-.25-.17-.37a.6.6,0,0,0-.66-.28c-.14.58.37.49.24,1.07C160.26,198.05,160.21,197.89,160.49,197.76Zm-24.15,10.81c.52-.24,1.18-1.07.58-1C136.89,207.91,136.22,208.21,136.34,208.57Zm109.78-52.26c-.2.71-.55,1.29,0,1.64C246,157.47,247.24,156.48,246.12,156.31Zm-89.61,41.37-.22.1c.07.32-.21.74.5.51C157,197.92,157.18,197.61,156.51,197.68ZM228.22,163c.24.54,2.24-.33,2.6-.62-.76,0,.17-.36.59-.42,0-.24.17-.46.2-.69C230.76,162.26,229.33,162.29,228.22,163ZM25.53,191.39c.23-.33.88-.63.58-1C25.16,190.59,24.9,191.45,25.53,191.39Zm121-88.5c-.42.17-.34-.33-.82-.07.18.21-.18.38-.26.57.18,0,.3,0,.33.14C146.17,103.33,146.46,103.12,146.53,102.89Zm1.56-1.17c-1,.87-.69.42-1.36.48.16.21-.12.38,0,.59C147.28,102.79,148.7,102.16,148.09,101.72Zm-13.82,7,.87-.4a.84.84,0,0,0-.93-.31A.59.59,0,0,1,134.27,108.75Zm34.62-16c.63-.35,0-1.14.79-1.11-.09-.35-.21-.65-.87-.19.75.49-.39.83-.74,1.24C168.55,92.43,168.47,92.94,168.89,92.76Zm-49.82,22.37c.65-.18.47-.43,1-.62-.22-.16-.35-.46-.72-.41C119.92,114.49,118.66,114.75,119.07,115.13Zm91.2-43.6c.12.16.13.48.44.39,0-.32,1.19-.54.91-.87C211,71.44,210.77,71.29,210.27,71.53ZM89.82,130.24l-.22.1c-.06-.12-.06-.23.12-.33ZM171.65,89.1c-.42.16-.41.36-.81.52.2.19.32.49.88.19C171.38,89.55,171.87,89.35,171.65,89.1Zm-50,23.77-.06-.12c.46-.55.58-1.21-.45-1C120.63,110.73,121.18,113.47,121.69,112.87Zm35.7-17.13c-.57-.23-.14-.69-.56-1.22a2.21,2.21,0,0,0-.81.53c.13.55.53-.39.82.06-.22.1-.21.22-.38.33-.43.19-.43-.21-1,.15a.61.61,0,0,1,.06.72c.34-.13.78-.42.92-.29,0,.35-.56.67-.3,1l.65-.3C156.44,96.37,156.78,96.05,157.39,95.74ZM186.58,80.5c0,.45-.22,1.23.51,1.1C186.86,81.29,187.31,80.45,186.58,80.5ZM163.42,91.75c-.23-.28-.42-.62-.83-.65-.26.43-.32.58.12.83-.61.39-.84.24-1.35.48a1.15,1.15,0,0,0,.46,1c.37-.7,1.68-1,1.93-1.49C163.5,91.94,162.5,92.15,163.42,91.75Zm-7.89,3.38c.33-.46-.29-.62-.93-.31C154.5,95.3,154.75,95.43,155.53,95.13ZM27.24,153.52l47.22-22c.2,0,.3.07.48.06a.67.67,0,0,0,.06-.31l12.78-6a1,1,0,0,1-.2,1.27c.77-.34.08.23.82.06-.39.31-.53,1.09.08,1.3.84-.62.08-.91.13-1.4l.65-.3-.06-.12a1.23,1.23,0,0,1-1.15-.93l31.32-14.61c0,.74.47,1.22,1.33,1.89a2.81,2.81,0,0,1,0-2.51L148,97.32a2.24,2.24,0,0,1-.62,1.17c.43.16.74-.51.92-.28.46.58-.29,1.07-.84,1.58.94.23.94.92,2.25.88.21.29-.79.48-.42.79.65.12,1.45.07,1.73.36l-10.42,4.86a.23.23,0,0,0,0-.14c-.54.36-.54,0-1,.16l.16.35-2.59,1.21a1.31,1.31,0,0,0,.14-1.39c-.42.17-.41.36-.81.53.46.45.2.84-.12,1.23l-.42.2c-.33,0-.71.24-1.07.5l-.86.4a.26.26,0,0,1-.15-.07.77.77,0,0,1,0,.15l-4.29,2c-.1,0-.17,0-.21,0l-.22.1c0,.08-.06.14-.14.21l-1.17.55a.3.3,0,0,0-.2-.05l-.41.33-3.82,1.67a3.33,3.33,0,0,0-1.55-.16c0,.23.34.49.35.72l-.25.11c-.3-.5-.33-1.39-.93-1.48l.74,1.57-4.19,2a3.27,3.27,0,0,1,1.4-2.87c-.35-.53,0-1,.35-1.5-.41.4-1,.07-.86.41.64-.13.32.63-.42.78-.33-.3-.26-.16-.29-.6-.4.64-.68.56-1.18.84.18-.06.84.1.39.27s-.6-.24-1.25.14c.19,1.39-.23,2.23-.07,3.42L90.86,129.76a1,1,0,0,0-.67-.42c.11.2,0,.39-.26.56.35-1.11-.71-1.47-.81-2.29-.63.19-.32.45-.75.65l.06.12c.14.31.23.07.49-.08-.44.36.51.82,0,1.18-.32.11-.24-.33-.6-.17,0,.4,0,.78,0,1.18.75-.22.3-.53.7-.77.32.25.08.66.2.78L29.5,158.37a15.2,15.2,0,0,0-7.33,20.12l9.38,20.11-.26,0c-.39.22.22.14-.1.35s-.93.35-1.19.26c.18-.36,1.49-.38,1.12-1-1.41.66-3.06,1.28-4.73,1.93l-9.07-19.45A20.55,20.55,0,0,1,27.24,153.52Z"/><path class="cls-1" d="M78.16,171.56l.11-.05,0-.08A.31.31,0,0,0,78.16,171.56Zm5.57,18.16-.29-.62c-.81.54-2.61,1-3,1.58l-.22.1c-.29-.06-.41-.36-.87-.19-.22-.29,1.26-.45.69-.77-1.1.35-.23.07-.56-.63a7.86,7.86,0,0,1,1.79-.68c-.27.43-.78.4-.21.69.6-.27.34-.41.86-.41,0,.16-.34.29-.59.43.09.08.28,0,.33.14a10.58,10.58,0,0,0,1.72-.44l-7.58-16.25,1.56-.73a1,1,0,0,1-.72-.12l1.5-.64-4.2-9-16.4,7.65.95,2,0-.07.44-.2c.59,0,1.46-.31,2-.2.28.34-.43.59-.37.91l.06.12a2.1,2.1,0,0,1-1.74.33l2.47,5.29.23-.12a1.81,1.81,0,0,1-.18.23l.46,1L64.36,178l7.92,17a10,10,0,0,0,2.42-1.35c-.15-.26-.94.37-1.35.48-.16-.47.9-1.1-.35-.73.08-.35.47-.67,1.13-1,.77.81,2.25,0,3.25-.92,0,.23-.63.42-.2.69a6.72,6.72,0,0,0-2.05,1.25c2.66-.73,6.71-3.18,8.37-4.05A.37.37,0,0,0,83.73,189.72Zm12.35-26.11-.16-.33,2.5-1.16-4.35-9.33-8,3.74a16.91,16.91,0,0,0,1.14,2.94c-.43-.56-1.63-2-1.45-2.8l-8.08,3.77,4.25,9.1a16.92,16.92,0,0,0,3.29-1.87c1.48-.19,4-1,4.87-2-.23-.28-.85,0-.83-.65.77,0,.09-.69,1.12-1a2.36,2.36,0,0,0,1.55,1.06c1-.35,1.13-.78,1.83-1.15,0,.19-.29.37-.26.56.74.11,1.34-.53,2.16-1A1.51,1.51,0,0,0,96.08,163.61Zm-.74,5a4,4,0,0,0,1.54-.73c.32-.15.67-.33,1-.45l-1.36-2.92a3.83,3.83,0,0,0-.29.28c-1.56.32-3.08,1.41-2.35,2.28.17.16.33-.28.49-.08-.33.22,0,1.13.89.77A1.92,1.92,0,0,0,95.34,168.59Zm4.14,2.33L98,167.71c-.27.12-.47.21,0,.35,0,.35-.56,0-.6-.16a4.31,4.31,0,0,1-2,.84h0a.87.87,0,0,0,1.26.41c0,.31-.22.41-.59.42.29.52,2.35.46,1,1.49.93-.26.7.35,1.32.57.62-.19.3-.45.48-.67A4.93,4.93,0,0,1,99.48,170.92Zm2.77,5.93-2.57-5.51c-.53.35-1.31.26-1.53,1a15.83,15.83,0,0,1,2,1c0,.28-.71.09-.26.56a.6.6,0,0,1-.66-.28c.3,1.33.69,2.09,2.39,2.3,0,.27-.79.48-.42.79A3.76,3.76,0,0,0,102.25,176.85Zm.44.94-.14-.3-.11.09A.74.74,0,0,1,102.69,177.79Zm-10.59-6a1.45,1.45,0,0,0,.09.56C92,172.18,91.88,172,92.1,171.78Zm14.34,17.14a7.56,7.56,0,0,1-1.94.91C104.93,190.22,106.71,189,106.44,188.92Zm-14.53,9.45c-.29.36-.9,1.43,0,1.17C91.24,199.17,92.61,198.35,91.91,198.37Zm10.38-7.07c-1.18.23-1.5-.8-2.24-.29-.07-.16-.15-.33-.23-.49.37,0,.88-.21.81-.52-1-.52-.94-2.58-2-3.09,0,.2.29.41,0,.59-.68-.4-.17-1.33-1-1.61.51.85.61,2.3,1,3.37s2.32,2.09.17,3.19c-.66-.61-2.06.64-2,1.25.64-.43.75-.12,1.19-.26-.12-.5,1.25-.53,1.83-1.15.57.34.54.61.94.89,0-.27-.12-.56.15-.81.15.19.07.71.66.29C101.43,192.17,101.47,191.71,102.29,191.3Zm-7.86-12.36,0,.13c.12.24.23.48.34.73.27-.45-.21-1-.13-1.42C94.39,178.55,94.78,178.78,94.43,178.94Zm-6.09,18c-.16.34-.5.67-.57,1-1,.45-1.23.32-1.89,1,.93-.52,2-.52,2.59-1.2.08.28.36.3.82.06.73-.45,2.56-1.7,2.86-1.19-.63-.56,1.35-.91.9-1.46-.64.56-1.4.5-2.1,1.13a9.64,9.64,0,0,1-1.31,0c-.35-.4.32-1.57-.46-1,.14-.05.27-.1.28,0s-.46.51-.69.76c.14.47.67.41.88.78-.27.13-.22.29-.59.42C88.42,197.32,89.18,196.63,88.34,196.91Zm.12-34.11c-.52-1-.39-1.85-1.31-2.28.4,1,.53,1.8,1.06,2.24.08.23-.27.43-.26.66a1.19,1.19,0,0,1,1.09.08,2.26,2.26,0,0,0-.53.55c.64-.43.48.26,1,0-.71-.09,0-.87-.39-.85-.24.42-.44-.07-.69-.36m-18,16.71c.05.14.13.27-.07.39l-.21.12A1.5,1.5,0,0,0,70.49,179.51Zm1.44-.32a1.47,1.47,0,0,1-1.42.25c.11-.46,0-.91-.52-1,.06.55.32,1.12-.29,1.62l.06.13,0,.12a1,1,0,0,0,.24-.16v0C70.55,179.94,72.56,179.18,71.93,179.19Zm22.35-9.84a.33.33,0,0,0,.07-.16l-.17.06a3.55,3.55,0,0,1-.91-1.19c.07-.51.4.22.45.39.2-.1.09-.23.1-.34s1.36,2.09.68,1.46a2.28,2.28,0,0,0-.22-.22Zm-2.89,1.55,0-.06,0,0h0ZM73,182.69c0,.2-.47.35-.8.52.18.35.4.65,1.14.21C72.29,183.41,73.64,182.8,73,182.69Zm19.76-8.32a1,1,0,0,1-.08-.18C92.87,174.22,93,174.24,92.79,174.37Zm.54.19a1,1,0,0,0,.47.22c-.38-.27-.11-1.45-1-1v0h0l-.22.08A4.56,4.56,0,0,0,92,172.7l.29-.07c.22.47.54.86.6.79s-.1-.24.1-.34a.61.61,0,0,0,0-.12l-.12-.25c-.7-.09,0-.92-.66-1l.14-.09c.69.4.76-.54,1.45-.83.08.43.73,0,.93.31a1.59,1.59,0,0,1-1.57.58,1.45,1.45,0,0,0,1.34,1.16c.43-.36-.51-.82,0-1.17a3.71,3.71,0,0,1,1.71.83c-.61.59-.77.31-1.63.46.2.26.56.3.62.76.76-.27,1.31-.23,1.63.12-.3.42-.53.27-1.08.51,1,.08.82.75,2.07-.08.53.78,1.09,1.53,1.93,1.33-1.35.61,1.33-.08,1.16.79-.33.1-.43,0-.64.3.34-.47-.23-.7-.78-.53-.41.81.14.63.45.39.21,1.29,1.36,1.54,1.73,2.6-.44.16-.35.37-.53.55-.28,0-.28-.42-.82-.06,0,.16.2.32,0,.46-.23-.28-.73-.19-1.47.24-.13.59.77-.27.82.06-1.07.68-2,.77-2,1.38.71-.19,2.07-1.29,2.27-.77l-1.94.91c.24.47,1.23-.11,1.48.35,1.23-.77,1.51-1.05,2.63-1.68.06.53.9,0,1.31,0,0-.51,0-.54.4-.6l.48,1a.57.57,0,0,0-.44-.06c.19.3.21.85.74.68l2.76,5.93c-.2-.2-.28-.57-.64-.53.23.25-.27.44.07.71.28-.1.41,0,.64,0l.52,1.13-3.54,9.72-.61.29a3.53,3.53,0,0,1-.46-1l-.06-.13c-.9-1.6-.19.26.29,1.26L86,207.11l-9.27-3.37c1.06-1.06,3.4-1.53,4.66-2.55l.21-.1c-.77-.61-2.39,1.41-3.41,1.15a4.62,4.62,0,0,1-2,1.23l-3.77-8.09c1-.45,1.94-1.08,2.89-1.45.16-.07.8-.07,1-.16s.31-.71.63-.89,4.55-1.13,4.26-2.14a3.8,3.8,0,0,0,3,.07l1.58,3.4,2,.67L93.86,192l.69-1.9-2.32-5c.4-.21.24-.33.71-.33.94-.71,2.46-.76,3-1.61l-.06-.08.06.08c.2.29.36.75,1,.62a6.7,6.7,0,0,1-1.09-2.9c-.13.65-1.07,1.87-.56,2.19.31-.21.47-.15.6,0-1.3.55-3.33,1.33-3.76,1.88l-.13-.27a18.66,18.66,0,0,1,2.41-1.21c-.09-.77-3,1.47-1.85,0-.74.09-.75.38-.82.67l-7-15c.36,0,.78,0,1.12,0-.17-.36-.75-.15-1-.43.57-.26,1.24-.66,1.41-.36-.34.17-.76.34-.54.55.64-.34,1.74-.65,1.61-1-.26.1-.6.31-.7.18,1.14-.65,1.3.06,2.07-.07,1-1.68,4.3-1.42,2.45.19.23-.12.37.64,0,.89h-.06c.17-.58-.41-.59-1.05-.5a2.7,2.7,0,0,0,1.05.5v0l.07,0a4.44,4.44,0,0,1,1.82.68c0,.1-.11.2-.11.3l.24-.09c.08.25,0,.58-.35,1a6.88,6.88,0,0,1-.81-.11,3.49,3.49,0,0,0,0-.56l-.22.11-.43.2c.05.12-.22.22-.37.32a1.15,1.15,0,0,1,.21.43,1.74,1.74,0,0,1-.75.72c.11-.23-.13-.46-.45-.65.18-.48.43-.87.16-1.15,0,.24-.24.45-.75.65a.86.86,0,0,0,.13.25c-.17-.08-.32-.15-.4-.2l0-.06c-.08,0-.06,0,0,.06a1.62,1.62,0,0,0,.27.56.73.73,0,0,1-.21.07.59.59,0,0,0,.47.3c.21.32.25.6-.4,1,1.45-.68-.21.74.83.65,0-.82.83.19,1.08-.51-.22.06-.83-.27-.45-.38a2.27,2.27,0,0,0,.91.1c.46.3.61,1.12,1,1.68l-.26.11c0,.31.36.35.64.25l0,0,0,0A.5.5,0,0,0,93.33,174.56Zm-.26-.27a1.54,1.54,0,0,0,.17.19c-.28.17-.24,0-.17-.19Zm-18.75,10c-.7-.13-1,.36-1.18.85C74,184.85,74.19,184.86,74.32,184.31Zm19.25-7.2c.62.78.48-1.08.63-1.47l-.06-.13c-.8.78-.84-.7-1.2-.32.25.6.71,1.23.58,1.8Zm3.64,5c-.51.11-.47-.55-1-.43l1.14,2.43C97.85,183.68,96.83,182.86,97.21,182.1Zm.4,3.67c-.12-.36.1-.87-.57-1.22C97,184.87,97,185.79,97.61,185.77Zm.49-.08c.14.47.71,1.22.5.51C98.52,185.93,97.85,184.86,98.1,185.69Zm-4,9.56c-.31-.52,2.42-.91,2.42-1.57-.69-.36-.93.86-1.41.36-.48.43-1.18.84-1.77,1.27C93.31,195.65,94.2,195.59,94.14,195.25ZM76.35,171.8c-.71.16-1.44.78-2.28.76-.17.22.15.48-.47.67a50.18,50.18,0,0,0-8.87,3.54c.41-.18.34.34.82.07,1.16-.9,3.63-1.28,5.35-2.06.77-.34,1.48-1.14,1.79-.68a30.47,30.47,0,0,1,3.83-1.94C76.46,172,76.4,171.92,76.35,171.8ZM96.91,173c.69-.42.88-.16,1.09.09C97.49,173.3,97.13,173.27,96.91,173Zm-1.63-2.36c.29-.21.75.23.71-.18.17-.1.22,0,.27,0,.26.36-.86,1,.56.63-.49.93.68.66.25,1.66A8.35,8.35,0,0,1,95.28,170.68ZM74.61,194.57c-.5.38-.71.85-1.3.61.08.56,1.54.25,2-.32C74.68,195.28,74.76,194.76,74.61,194.57Zm3.25-.92-.28-.61c-.55.23-1.06.47-1,.75C77.39,193.23,77.3,193.9,77.86,193.65Zm.4-2,.21-.1a1.42,1.42,0,0,1,1.08-.5c-.11-.4-1.83.43-1.84.56.18,0,.3,0,.33.14Zm13.9-16.42c.08.16.15.32.23.49l.64-.31C93,175.1,92.71,175,92.16,175.26Zm-13.33,6.36c-.14-.54-1.18.42-1.3.61C78,182.28,78,181.87,78.83,181.62Zm11.27-5.7a2.59,2.59,0,0,0-.92.28c-.22.29-.05.75.5.51C89.66,176.44,90.47,176.22,90.1,175.92Zm4.56-9.39c-.06.49.11.28.34.73.59-.27.34-.41.86-.41a.5.5,0,0,1,0-.46C95.38,166.59,95.31,166.15,94.66,166.53Zm-.16-2.6c0-.2.16-.38.54-.55.22-1-2.63-.06-2.39.52A1.38,1.38,0,0,1,94.5,163.93Zm126.67-31.49-4.07-8.72c-.85.2-1.71,1-2.22.46a19,19,0,0,1,2.07-.79l-6.43-13.78,5.69-2.65,2,.71,9.42,20.2-.74,1.92Zm-28.91-25.67,3,6.34a3.15,3.15,0,0,0,1.49-.78c.06.12-.11.22-.1.34l-.22.1a5.22,5.22,0,0,0-1,.61l1.26,2.71,2.5-1.16,6.34,13.61c.28-.19.63-.37,1-.56.28.28-.35.49-.88.7l4.23,9.09-2.49,1.16.78,1.67a2.64,2.64,0,0,1,1.54-.15,15.15,15.15,0,0,1,3.19-1.51,5.8,5.8,0,0,1,.78-.64c.3-.15.84-.36.49-.08a5.3,5.3,0,0,0-.72.49l.8-.38c.27-.25.13-.54.14-.81.34-.15.87,0,.12.24.64,0,.41.06.22.49.64-.87,1.92-.59,2.27-1.35.54-.3,1.86,0,1.78-.68.43-.2.43.2,1-.16A38.89,38.89,0,0,1,213,139.2c.12.07.29.07.33.26-1.67.23-1.56,2.39-3.14,3.39,1-1.09,1.24-2.26,2.12-3.36a21.7,21.7,0,0,0-2.12,1v0c1.43.26.2,1.44-.58,2.19a1.91,1.91,0,0,1-.5.14l.4.85a2,2,0,0,1,.74-.69,3.81,3.81,0,0,1-.61,1l2,4.35,25.73-12,3.54-9.73-3.68-7.89a5,5,0,0,1-1.32.44,2.8,2.8,0,0,1,1.19-.72l-5.66-12.13-.55.34a.53.53,0,0,0,0-.59l.41-.07-3.56-7.65-1.68.78a3.15,3.15,0,0,1,1.38-.89L218,94.77l-.83.39a.61.61,0,0,0,.58.24c-.43.49-1-.45-1.57.58a4.43,4.43,0,0,1,.2-.45Zm33.1-4.1c.64-.64,1-.6,2.32-1.23l.21-.1c0-.12.11-.23.11-.35l-.65.31c-.2.51-1.2.48-1.57.58C226.15,102.18,225.15,102.38,225.36,102.67Zm-22.85,4.57c-.28.13-.1.31-.32.44.06.55,1.25-.3.81-.52C202.76,107.3,202.6,107.31,202.51,107.24Zm21.46,2.6a4.55,4.55,0,0,0-2.16,1A4.46,4.46,0,0,0,224,109.84Zm1.57-.58c.7-.33,1.28-.29,1.18-.85C226.15,108.68,225.42,108.94,225.54,109.26Zm2.43-1c.29-.21,1.19-.37,1-.62-.89.21.62-.31.31-.45-.13.06-.26.11-.27,0s-.1-.13-.27,0C229,107.5,227.55,108.31,228,108.27Zm2.44-1c-.77.45-2.32.84-2.27,1.35C228.91,108.19,230.46,107.8,230.41,107.29Zm-19.95,19.24c-.32-.52-1.15.42-1.47.24l-.22.1C207.73,128,209.92,126.53,210.46,126.53Zm1.71-1.39c-.6.38-1.25.76-1.28,1.19.77-.34,2.76-1.18,1.77-1.27C212.68,125.4,211.67,125.61,212.17,125.14Zm24.37-7.51c-.88.44-1.28.35-1.67.93A3.46,3.46,0,0,0,236.54,117.63Zm-12.16,16.21.43-.2c.13-.07.25-.14.16-.22-.88-.15-1.54.49-2,.19.11.25.23.49.34.73.95-.24.56-.58,1.18-.84C224.54,133.62,224.38,133.72,224.38,133.84Zm6.49-2.43c.9-.41,2.6-.91,3-1.53l-3,1.41C230,131.56,230.13,131.86,230.87,131.41Zm-3.77,2.05c-.54-.31,1-.47.42-.79l-.22.1c-1.83.81-4.5,1.9-6.59,2.78C222.78,135.47,225.12,133.52,227.1,133.46Zm7.07-3.44a12.07,12.07,0,0,1,2.43-1C236.23,128.68,234.33,129.48,234.17,130Zm6.64-3.25a11,11,0,0,0-2.76,1.44A10.07,10.07,0,0,0,240.81,126.77Zm-26.31,9.61c0,.25-.29.1-.65.3.33.61-.57,1.13-1.06,1.68C214,137.82,215,136.66,214.5,136.38Zm20-10.08c-.63.64-1,.6-2.31,1.23l-.22.1c.06.12-.11.23-.1.35l.65-.31c.19-.51,1.2-.48,1.56-.58C233.72,126.79,234.73,126.59,234.51,126.3ZM212.58,130l.86-.4.22-.1-.12-.24c-.65.37-.72-.07-1.25.13.08.17.15.33.23.49a.52.52,0,0,0-.05.47c-.66.34-1.62.65-1.88,1,.92-.29,2.75-1.28,4.32-2C214.5,129.06,212.74,130.65,212.58,130ZM225,119.34h0c.07-.34.46-.66,1.12-1-.2-.12,0-.74-.5-.51-.16.59-.93.88-1.28,1.2A.56.56,0,0,1,225,119.34Zm7.6,18.56c.4-.17.39-.36.81-.53l.43-.2-.06-.12c-.49.29-.57,0-1.14.38C232.76,137.6,232.5,137.74,232.56,137.9Zm-14.65.15.21-.1c-.1-.2,0-.39.27-.57l-.06-.12a2.64,2.64,0,0,0-1.14.38C217.19,138.12,217.71,137.86,217.91,138.05Zm-.15-2,.65-.3.21-.1c0-.2.63-.34.54-.55l-.65.31a3.36,3.36,0,0,1-1.24.72C217.33,136.24,217.58,136.09,217.76,136ZM229,122.94a.55.55,0,0,1,0-.59c-.35.25-.87.48-1,.75C228.37,123,228.65,123,229,122.94Zm5.33-3.23c-.7.33-1.28.29-1.18.85C233.72,120.29,234.45,120,234.33,119.71Zm-2.43,1c-.28.21-1.18.37-1,.62.88-.21-.63.32-.32.45.14-.06.26-.11.27,0s.1.13.28,0C230.9,121.47,232.32,120.66,231.9,120.7Zm-2.43,1c.76-.45,2.31-.84,2.26-1.35C231,120.78,229.41,121.17,229.47,121.68Zm-21.16-.82c.25-.14.4-.15.49-.08l.44-.2c.19-.43,1.54-.15,1.94-.91-.64.43-.76.12-1.19.26l-.44.21C209.21,120.38,208.22,120.58,208.31,120.86Zm15-9.52c.89-.44,1.29-.35,1.67-.93A3.46,3.46,0,0,0,223.33,111.34ZM225.71,99a11.9,11.9,0,0,1-2.44,1C223.65,100.29,225.54,99.49,225.71,99Zm-6.64,3.25a11.09,11.09,0,0,0,2.75-1.44A10.33,10.33,0,0,0,219.07,102.2ZM118.84,165.49c0-.59-.82-.07-.83-.65-.68.52-1.54.3-1.73.8,1-.46.49.55.34.73C117.23,166.36,118,165.53,118.84,165.49ZM122.53,148c1-.51,1.31-.14,1.21.32C124.82,147.78,122.57,147.1,122.53,148Zm-9.89,16.18.06.14a.62.62,0,0,0,.34,0c0-.39.56-.74.52-1.13-.43.14-.66,0-1.19.26C113,163.54,112.67,164,112.64,164.22Zm6.8-1.39c0,.12.11.25-.1.35-.11.62,1.91.09.4.85.35.65,1.07-.26,1.57-.58-.32-.29-1-.25-.4-.86,1-.33.08.68.83.66.35-.37,1.56-.67,1.06-1.1-.66.32-.73.61-1.29.61.58-.54.38-.79,1.07-1.09-.21-.59-1.49.33-2,.19C120.53,162.34,120.3,162.71,119.44,162.83Zm23.59-3c-.44-.2-.75-.57-1.48-.35-.33.58.93.51.89.77C142.41,160.11,142.71,160,143,159.85Zm-11.24-5.07,0,0,0,.05Zm6.07-2.42-.18-.06c-4,1.55-6,2.92-10,4.47l.14-.12-1,.47v.06a9.17,9.17,0,0,0-1.72.8C128.38,157.13,133.87,154.39,137.86,152.36Zm-27.41,1.9c1.36-.2,1.58.7,1.93,1.33A22.07,22.07,0,0,0,114.8,154c.08.43.64.18,1.25-.13a4.11,4.11,0,0,1-1.53-3.29l-1.08.5c0,.44.54.18.56.63C112,152.16,110.85,153.17,110.45,154.26Zm0,2.36c.08.16.16.32.23.49l.65-.31C111.28,156.45,111.05,156.31,110.49,156.62ZM116,155.4c-.26.56-2.68,1-1.87,1.61C115,156.57,116.82,155.59,116,155.4Zm3.57,4.27c.08.31-.91.51-1.08.5.5.39-.81.64-.85,1C118,161.14,120.75,159.81,119.54,159.67Zm2.95.11c-.06-.12-.12-.24-.17-.37-.49.62-1.54.46-1.89,1C121.17,160.6,121.65,159.92,122.49,159.78Zm-5.6,3.79a2.57,2.57,0,0,0,1-.62c0-.43-.46-.17-.5-.51C116.73,162.78,116.6,163.16,116.89,163.57Zm-1.09,2.74c0-.17.21-.19.43-.2l-.22-.49c-.35,0-.86.25-1.2.26.16.21-.11.38,0,.59C115.44,166,115.44,166.41,115.8,166.31Zm28.78-7.64a1.8,1.8,0,0,0-1.39,1c.89-.56.55-.28,1.35-.48A.49.49,0,0,1,144.58,158.67Zm-19.64,9.76c.17-.3.11-.43-.23-.49-.43.32-1.13.62-1.12,1C124.4,168.47,124.29,168.42,124.94,168.43Zm22.28-5.79c.18.35.4.65,1.15.21C148.11,162.6,147.65,162.64,147.22,162.64Zm-23,13.25a7.36,7.36,0,0,0-3.62,1.25c0-.39,0-.95-.83-.66.8.25-.11.68,0,1.18C120.9,177.7,123.27,176.15,124.21,175.89Zm2.44-1c.09-.51-2,.45-1.52.71C126.05,175.22,125.9,175.06,126.65,174.9Zm21-9.18c.37,0,1.61-.47,1.45-.82C148.65,165.18,147.57,165.41,147.61,165.72Zm-11.84-1.33,1.79.69,1.86,4h0a33.47,33.47,0,0,0,4.07-2c-.47.72,1.24-.39,1.68-.34a48,48,0,0,1-5.94,2.9l-.5,1.36-6.08,2.84-1.93-.66a3.7,3.7,0,0,1-.83.24,1.36,1.36,0,0,1,.65-.59l-1.68-3.6-11.42,5.33,3.72,8,9.73,3.53,18.3-8.53,3.53-9.72-1.6-3.44c-.34.21-1,.39-1,.63a.59.59,0,0,1-.66-.29c.6-.18.76-.41.48-.66a1.82,1.82,0,0,1,.91-.19l-3.07-6.59c-.16.56-1.7,1.19-2.47,1.37.38-.85,1.6-1.14,2.44-1.44l-.68-1.46-8.48-3.08a1.85,1.85,0,0,0-.36.38c-.26.09-.28-.14-.38-.27a9.32,9.32,0,0,1-1.56,1.17c-.4-.25-2.46.48-2.16,1-.29.07-.52,0-.6-.17a1.15,1.15,0,0,0-.48.67c-.84-.17-1.64.69-2.65,1.09-2,.78-4.82,1.5-5.83,2.72-.58-.19-1,0-1.36-.11.7-.59,1.54-.55,1.61-1-.89-.09-2.17,1.25-2.86,1.19.22-1.12,2.48-.76,2.32-1.74l-1.08-.39-2-4.19.72-2,6.08-2.83,1.93.74,1.93,4.14,11.41-5.33-3.81-8.17L129.82,136l-18.3,8.53L108,154.23l.46,1a1.71,1.71,0,0,1,.88,0,6.89,6.89,0,0,1-.53.75l1.71,3.66c.24-.17.5-.33.37-.53.57,0,.26.56-.19.92l1.5,3.2a20.1,20.1,0,0,1,3.21-1.18c-.92.59-1.62,1.2-1.76,1.86.83.18.75,1.47.75,2.17-.74,0-.83-.69-1-1a2.28,2.28,0,0,1-.21.3l.53,1.14,8,2.91c.44-.25,1-.4,1.24-.2a2.13,2.13,0,0,1-.72.39l1.2.44,4.45-2.07v0c-.44-.37-1.27,1.05-1.41.36,1.36-.45,2.22-1.41,3.24-1.51a6.56,6.56,0,0,1-.59.59l6.34-3-1.27.13c-.18-1.61,3.44-2.76,4.75-2.21.17-.22.33-.45.48-.67.48-.27.41.24.82.06-.22.63-1,.6-1.89,1,.8.53-1.3.84-.68,1.36C137,164.23,136.39,164.32,135.77,164.39Z"/><path class="cls-3" d="M146.85,128l34.51-15.93,4.1,8.89-21.6,10,3.06,6.62,20-9.25,3.92,8.5-20,9.25,3.79,8.21L196.87,144l4.35,9.44-35.13,16.22Z"/></svg>