<svg xmlns="http://www.w3.org/2000/svg" width="25.404" height="33.589" viewBox="0 0 25.404 33.589">
    <defs>
        <style>
            .cls-2{fill:#231f20}
        </style>
    </defs>
    <g id="Group_105" transform="translate(-14.09 -0.57)">
        <path id="Path_612" fill="#b29656" d="M47.857 71.387H31.306a1.506 1.506 0 0 1-1.506-1.506v-1.7a9.783 9.783 0 0 1 19.563 0v1.7a1.506 1.506 0 0 1-1.506 1.506" transform="translate(-10.357 -38.239)"/>
        <path id="Path_613" d="M38.6 15.465c-3.575 0-6.6-3.5-6.6-7.643 0-4 2.965-7.251 6.6-7.251s6.59 3.254 6.59 7.251c0 4.144-3.019 7.643-6.59 7.643m0-13.593c-2.917 0-5.292 2.668-5.292 5.95 0 3.38 2.474 6.345 5.292 6.345s5.289-2.965 5.289-6.345c0-3.282-2.385-5.95-5.289-5.95" class="cls-2" transform="translate(-11.807 0)"/>
        <path id="Path_614" d="M36.989 66.027H16.595a2.5 2.5 0 0 1-2.5-2.5v-2.12a12.7 12.7 0 0 1 25.4 0v2.12a2.5 2.5 0 0 1-2.5 2.5m-10.2-16.016a11.416 11.416 0 0 0-11.4 11.4v2.12a1.206 1.206 0 0 0 1.2 1.2h20.394a1.206 1.206 0 0 0 1.2-1.2v-2.12A11.416 11.416 0 0 0 26.794 50" class="cls-2" transform="translate(0 -31.868)"/>
    </g>
</svg>
