<svg xmlns="http://www.w3.org/2000/svg" id="viewall1" width="12.078" height="12.029" viewBox="0 0 12.078 12.029">
    <defs>
        <style>
            .cls-1{fill:#fff}
        </style>
    </defs>
    <path id="Path_421" d="M4.5 0H1.634A1.434 1.434 0 0 0 .2 1.422v2.867a1.423 1.423 0 0 0 1.422 1.422h2.867a1.423 1.423 0 0 0 1.422-1.422V1.422A1.405 1.405 0 0 0 4.5 0zm.984 4.3a.98.98 0 0 1-.984.984H1.634A.98.98 0 0 1 .65 4.3V1.422a.98.98 0 0 1 .984-.985H4.5a.98.98 0 0 1 .984.984V4.3z" class="cls-1" transform="translate(-.2)"/>
    <path id="Path_422" d="M56.889 0h-2.867A1.423 1.423 0 0 0 52.6 1.422v2.867a1.423 1.423 0 0 0 1.422 1.422h2.868a1.423 1.423 0 0 0 1.422-1.422V1.422A1.423 1.423 0 0 0 56.889 0zm.984 4.3a.98.98 0 0 1-.984.984h-2.867a.98.98 0 0 1-.984-.984V1.422a.98.98 0 0 1 .984-.984h2.868a.98.98 0 0 1 .984.984z" class="cls-1" transform="translate(-46.233)"/>
    <path id="Path_423" d="M4.5 52H1.634A1.426 1.426 0 0 0 .2 53.422v2.868a1.423 1.423 0 0 0 1.422 1.422h2.867a1.423 1.423 0 0 0 1.422-1.422v-2.868A1.4 1.4 0 0 0 4.5 52zm.984 4.289a.98.98 0 0 1-.984.984H1.634a.98.98 0 0 1-.984-.984v-2.867a.98.98 0 0 1 .984-.984H4.5a.98.98 0 0 1 .984.984v2.868z" class="cls-1" transform="translate(-.2 -45.682)"/>
    <path id="Path_424" d="M56.889 52h-2.867a1.423 1.423 0 0 0-1.422 1.422v2.868a1.423 1.423 0 0 0 1.422 1.422h2.868a1.423 1.423 0 0 0 1.422-1.422v-2.868A1.416 1.416 0 0 0 56.889 52zm-3.852 4.289v-2.867a.98.98 0 0 1 .984-.984h2.868a.98.98 0 0 1 .984.984v.826a1.337 1.337 0 0 0-1.13-.62h-1.154a1.346 1.346 0 0 0-1.349 1.349v1.154a1.337 1.337 0 0 0 .62 1.13h-.826a.958.958 0 0 1-.997-.972z" class="cls-1" transform="translate(-46.233 -45.682)"/>
</svg>
