<svg xmlns="http://www.w3.org/2000/svg" xmlns:svgjs="http://svgjs.com/svgjs" xmlns:xlink="http://www.w3.org/1999/xlink" width="288" height="288"><svg xmlns="http://www.w3.org/2000/svg" width="288" height="288" data-name="Layer 1" viewBox="0 0 100 100"><path fill="none" stroke="#505050" stroke-linejoin="round" stroke-width="2" d="M66.48,31,63.13,18.91,4.8,35.93,8.42,48.35a6.81,6.81,0,1,1,3.82,13.08l3.62,12.42,6.88-2" class="colorStroke515150 svgStroke"/><path fill="none" stroke="#505050" stroke-linejoin="round" stroke-width="2" d="M95,81.24V67.3c-3.3,0-6-3.57-6-8s2.67-8,6-8V37.42H29.3V51.36c3.3,0,6,3.57,6,8s-2.68,8-6,8V81.24Z" class="colorStroke515150 svgStroke"/><line x1="79.1" x2="79.1" y1="37.42" y2="45.38" fill="none" stroke="#505050" stroke-linejoin="round" stroke-width="2" class="colorStroke515150 svgStroke"/><line x1="79.1" x2="79.1" y1="49.37" y2="57.34" fill="none" stroke="#505050" stroke-linejoin="round" stroke-width="2" class="colorStroke515150 svgStroke"/><line x1="79.1" x2="79.1" y1="61.32" y2="69.29" fill="none" stroke="#505050" stroke-linejoin="round" stroke-width="2" class="colorStroke515150 svgStroke"/><line x1="79.1" x2="79.1" y1="73.27" y2="81.24" fill="none" stroke="#505050" stroke-linejoin="round" stroke-width="2" class="colorStroke515150 svgStroke"/><path fill="#4d4d4d" d="M50.77 70.54a1.06 1.06 0 01-.54-.14 1.09 1.09 0 01-.42-1.49l11-19.75a1.1 1.1 0 011.5-.43 1.09 1.09 0 01.42 1.49L51.73 70A1.1 1.1 0 0150.77 70.54zM49.12 59.57a5.52 5.52 0 010-11 5.52 5.52 0 010 11zm0-8.78a3.35 3.35 0 000 6.58 3.35 3.35 0 000-6.58zM63.39 70.54a5.52 5.52 0 114.94-5.48A5.24 5.24 0 0163.39 70.54zm0-8.78a3.35 3.35 0 102.74 3.3A3.07 3.07 0 0063.39 61.76z" class="color4d4d4d svgShape"/><path fill="#848484" d="M64.06,33,61.18,21.77,9.53,37l1.73,6.87s6.5.78,8.32,6.77,0,10.4-3.12,12.48L18,68.85l6-2.34h0S34.15,61.83,25.56,53V36.86l.26-3.38Z" class="colorb29656 svgShape"/></svg></svg>