<svg xmlns="http://www.w3.org/2000/svg" xmlns:svgjs="http://svgjs.com/svgjs" xmlns:xlink="http://www.w3.org/1999/xlink" width="288" height="288"><svg xmlns="http://www.w3.org/2000/svg" width="288" height="288" data-name="Layer 1" viewBox="0 0 100 100"><path fill="none" d="M60.81 38.33a9 9 0 009-9V16.09h-18V29.32A9 9 0 0060.81 38.33zM8.56 16.09V29.32a9 9 0 1018 0V16.09zM82.43 38.33a9 9 0 009-9V16.09h-18V29.32A9 9 0 0082.43 38.33zM39.19 38.33a9 9 0 009-9V16.09h-18V29.32A9 9 0 0039.19 38.33z"/><path fill="#848484" d="M37.62,44.92a1.79,1.79,0,0,1,1.72-1.79H20.13a2,2,0,0,0-2,2V83.65H37.62ZM29.56,62.64a2.85,2.85,0,1,1,2.85-2.85A2.85,2.85,0,0,1,29.56,62.64Z" class="colorb29656 svgShape"/><rect width="12.73" height="3.24" x="50.25" y="52.22" fill="#010101" class="color010101 svgShape" rx="1.62" transform="rotate(-45 56.617 53.829)"/><rect width="23.88" height="3.24" x="52.22" y="59.76" fill="#010101" class="color010101 svgShape" rx="1.62" transform="rotate(-45 64.165 61.382)"/><rect width="10.56" height="3.24" x="66.43" y="67.31" fill="#010101" class="color010101 svgShape" rx="1.62" transform="rotate(-45 71.707 68.918)"/><path fill="#010101" d="M93.24,12.49H6.76A1.81,1.81,0,0,0,5,14.29v15a12.6,12.6,0,0,0,23.42,6.46,12.58,12.58,0,0,0,21.62,0,12.58,12.58,0,0,0,21.62,0A12.6,12.6,0,0,0,95,29.32v-15A1.81,1.81,0,0,0,93.24,12.49ZM17.57,38.33a9,9,0,0,1-9-9V16.09h18V29.32A9,9,0,0,1,17.57,38.33Zm21.62,0a9,9,0,0,1-9-9V16.09h18V29.32A9,9,0,0,1,39.19,38.33Zm21.62,0a9,9,0,0,1-9-9V16.09h18V29.32A9,9,0,0,1,60.81,38.33Zm30.63-9a9,9,0,1,1-18,0V16.09h18Z" class="color010101 svgShape"/><path fill="#010101" d="M41.22 45.09v-.17a1.79 1.79 0 00-1.8-1.8h-.08A2 2 0 0141.22 45.09zM29.56 56.94a2.85 2.85 0 102.85 2.85A2.85 2.85 0 0029.56 56.94z" class="color010101 svgShape"/><path fill="#010101" d="M98.41,83.91H90.23v-39a1.81,1.81,0,0,0-3.61,0V83.65H41.22V45.09a2,2,0,0,0-1.88-2,1.79,1.79,0,0,0-1.72,1.79V83.65H13.37V44.92a1.8,1.8,0,1,0-3.6,0v39H1.59a1.81,1.81,0,0,0,0,3.6H98.41a1.81,1.81,0,0,0,0-3.6Z" class="color010101 svgShape"/></svg></svg>