<svg xmlns="http://www.w3.org/2000/svg" xmlns:svgjs="http://svgjs.com/svgjs" xmlns:xlink="http://www.w3.org/1999/xlink" width="288" height="288"><svg xmlns="http://www.w3.org/2000/svg" width="288" height="288" enable-background="new 0 0 100 100" viewBox="0 0 100 100"><rect width="36.49" height="36.49" x="3.85" y="59.9" fill="none"/><polygon fill="none" points="65.04 65.25 96.19 65.25 96.19 59.9 59.7 59.9 59.7 96.39 65.04 96.39"/><rect width="36.49" height="36.49" x="3.85" y="3.61" fill="none"/><rect width="36.49" height="36.49" x="59.7" y="3.61" fill="none"/><path fill="#212121" d="M43.95 0H.24v43.71h43.71V0zM40.34 40.1H3.85V3.61h36.49V40.1zM.24 100h43.71V56.29H.24V100zM3.85 59.9h36.49v36.49H3.85V59.9zM56.09 0v43.71H99.8V0H56.09zM96.19 40.1H59.7V3.61h36.49V40.1zM56.09 100H99.8V56.29H56.09V100zM59.7 59.9h36.49v5.35 31.14H65.04 59.7V59.9z" class="color231f20 svgShape"/><rect width="18.47" height="4.19" x=".2" y="47.9" fill="#212121" class="color231f20 svgShape"/><rect width="18.47" height="4.19" x="60.91" y="47.9" fill="#212121" class="color231f20 svgShape"/><rect width="4.19" height="18.47" x="47.7" fill="#212121" class="color231f20 svgShape"/><rect width="4.19" height="18.47" x="47.7" y="61.12" fill="#212121" class="color231f20 svgShape"/><polygon fill="#212121" points="47.7 27.39 47.7 47.9 27.19 47.9 27.19 52.1 47.7 52.1 51.89 52.1 51.89 47.9 51.89 27.39" class="color231f20 svgShape"/><rect width="31.14" height="31.14" x="65.04" y="65.25" fill="#848484" class="colorb29656 svgShape"/></svg></svg>