<svg xmlns="http://www.w3.org/2000/svg" xmlns:svgjs="http://svgjs.com/svgjs" xmlns:xlink="http://www.w3.org/1999/xlink" width="288" height="288"><svg xmlns="http://www.w3.org/2000/svg" width="288" height="288" enable-background="new 0 0 100 100" viewBox="0 0 100 100"><path fill="none" d="M50,4.16C24.72,4.16,4.16,24.72,4.16,50S24.72,95.84,50,95.84c25.28,0,45.84-20.57,45.84-45.84		S75.28,4.16,50,4.16z M61.67,68.84c-2.14,2.03-5.3,3.2-8.9,3.34v7.66c0,0.81-0.66,1.47-1.47,1.47h-1.83
		c-0.81,0-1.47-0.66-1.47-1.47v-7.63h-8.92V27.79h8.92v-7.63c0-0.81,0.66-1.47,1.47-1.47h1.83c0.81,0,1.47,0.66,1.47,1.47v7.68
		c3.21,0.24,5.92,1.33,7.88,3.14c2.16,2.04,3.43,5.05,3.43,8.47c0,4.33-1.98,7.57-5.89,9.8c4.51,1.86,7.09,5.77,7.09,10.76
		C65.28,63.61,63.95,66.68,61.67,68.84z"/><path fill="none" d="M47.99 36.23h5.51c3.3 0 5.48 1.79 5.86 4.73.05-.39.08-.79.08-1.21 0-4.87-3.19-7.87-8.23-7.87h-7.63v15.63h4.42V36.23zM54.63 54.53c2.39 0 4.29.78 5.54 2.17-1.09-3.22-4.04-5.1-8.36-5.1h-8.24v16.53h4.42v-13.6H54.63z"/><path fill="#848484" d="M53.5 36.23h-5.51v11.28h3.22c4.61 0 7.66-2.46 8.15-6.55C58.98 38.02 56.8 36.23 53.5 36.23zM60.65 59.71c0-1.11-.17-2.11-.47-3.02-1.24-1.39-3.15-2.17-5.54-2.17h-6.64v13.6h3.82C57.28 68.12 60.65 64.94 60.65 59.71z" class="colorb29656 svgShape"/><path fill="#010101" d="M58.18,49.25c3.91-2.22,5.89-5.47,5.89-9.8c0-3.43-1.26-6.43-3.43-8.47c-1.96-1.8-4.67-2.9-7.88-3.14v-7.68
		c0-0.81-0.66-1.47-1.47-1.47h-1.83c-0.81,0-1.47,0.66-1.47,1.47v7.63h-8.92v44.42h8.92v7.63c0,0.81,0.66,1.47,1.47,1.47h1.83
		c0.81,0,1.47-0.66,1.47-1.47v-7.66c3.61-0.14,6.76-1.31,8.9-3.34c2.28-2.16,3.61-5.23,3.61-8.84
		C65.28,55.02,62.69,51.11,58.18,49.25z M43.58,31.88h7.63c5.05,0,8.23,3.01,8.23,7.87c0,0.42-0.03,0.82-0.08,1.21
		c-0.5,4.09-3.55,6.55-8.15,6.55h-3.22h-4.42V31.88z M43.58,68.12V51.59h8.24c4.32,0,7.27,1.88,8.36,5.1
		c0.31,0.9,0.47,1.91,0.47,3.02c0,5.23-3.37,8.41-8.84,8.41h-3.82H43.58z" class="color010101 svgShape"/><path fill="#010101" d="M50,0C22.43,0,0,22.43,0,50s22.43,50,50,50c27.57,0,50-22.43,50-50S77.57,0,50,0z M50,95.84
		C24.72,95.84,4.16,75.28,4.16,50S24.72,4.16,50,4.16c25.28,0,45.84,20.57,45.84,45.84S75.28,95.84,50,95.84z" class="color010101 svgShape"/></svg></svg>