<svg xmlns="http://www.w3.org/2000/svg" xmlns:svgjs="http://svgjs.com/svgjs" xmlns:xlink="http://www.w3.org/1999/xlink" width="288" height="288"><svg xmlns="http://www.w3.org/2000/svg" width="288" height="288" data-name="Layer 1" viewBox="0 0 100 100"><path fill="none" d="M73.42 61.87l-3.35-1.15L58.8 72c.34.78.84 1.9 1.35 3H63L73.42 64.59zM25.14 22.34a1.81 1.81 0 01-.44-.71l-2.13-6.38L10.38 7.12 5.52 12l8.12 12.19L20 26.31a1.78 1.78 0 01.44.21c.15.1.16.1 39.36 39.31l4.41-4.4z"/><path fill="#848484" d="M67.27,75.61,85.82,94.16a4.76,4.76,0,1,0,6.73-6.73L74,68.83c-.42-.45-.51-.57-.53-4.24L63,75C66.73,75,66.84,75.14,67.27,75.61Z" class="colorb29656 svgShape"/><path fill="#010101" d="M95.12,84.86,77.05,66.79c0-1.31,0-4.18,0-6.21a1.81,1.81,0,0,0-1.23-1.72c-6.72-2.32-6.72-2.32-7.54-1.49l-1.5,1.49c-30-30-37.05-37-38.77-38.75l-2.2-6.6a1.81,1.81,0,0,0-.71-.94L11.16,3.27a1.82,1.82,0,0,0-2.29.23l-7,7a1.8,1.8,0,0,0-.22,2.29l9.29,14a1.86,1.86,0,0,0,.94.72l6.57,2.19L57.25,68.4l-1.89,1.89c-.91.91-.91.91,2,7.3A1.81,1.81,0,0,0,59,78.66h6.21L83.25,96.73A8.39,8.39,0,0,0,95.12,84.86ZM20.46,26.52a1.78,1.78,0,0,0-.44-.21l-6.38-2.13L5.52,12l4.86-4.87,12.19,8.13,2.13,6.38a1.81,1.81,0,0,0,.44.71L64.23,61.43l-4.41,4.4C20.62,26.62,20.61,26.62,20.46,26.52ZM60.15,75c-.51-1.14-1-2.26-1.35-3L70.07,60.72l3.35,1.15v2.72c0,3.67.11,3.79.53,4.24l18.6,18.6a4.76,4.76,0,0,1-6.73,6.73L67.27,75.61c-.43-.47-.54-.57-4.28-.58H60.15Z" class="color010101 svgShape"/><path fill="#010101" d="M50.13 37.43L52.7 40 63.37 29.34A4.17 4.17 0 0064.32 25c-2.13-6.15-.89-12.14 3.4-16.43A16.81 16.81 0 0182.56 3.9a.44.44 0 01.36.33.5.5 0 01-.12.53L75 12.55a4.15 4.15 0 000 5.86L81.59 25a4.16 4.16 0 005.86 0l7.79-7.79a.53.53 0 01.53-.13.47.47 0 01.33.37 16.81 16.81 0 01-4.65 14.84c-4.29 4.29-10.28 5.53-16.43 3.4a4.15 4.15 0 00-4.36 1L60 47.3l2.57 2.57L73.23 39.2a.58.58 0 01.6-.09C81.34 41.72 88.7 40.17 94 34.85a20.44 20.44 0 005.66-18 4.09 4.09 0 00-2.82-3.19 4.13 4.13 0 00-4.19 1l-7.79 7.79a.53.53 0 01-.72 0l-6.58-6.58a.53.53 0 010-.72l7.79-7.79a4.13 4.13 0 001-4.19A4.09 4.09 0 0083.2.32 20.44 20.44 0 0065.15 6c-5.32 5.32-6.87 12.68-4.26 20.2a.58.58 0 01-.09.59zM12.44 94.86a5.16 5.16 0 01-7.3-7.3l33-33L35.56 52l-33 33A8.8 8.8 0 0015 97.43L47.8 64.64l-2.57-2.57z" class="color010101 svgShape"/></svg></svg>