<svg xmlns="http://www.w3.org/2000/svg" xmlns:svgjs="http://svgjs.com/svgjs" xmlns:xlink="http://www.w3.org/1999/xlink" width="288" height="288"><svg xmlns="http://www.w3.org/2000/svg" width="288" height="288" enable-background="new 0 0 100 100" viewBox="0 0 100 100"><path fill="none" d="M43.35,80.91c-2.07-0.22-2.62-2.12-2.62-2.12c-0.96-3.07,0.93-9.05,6-15.46H15c-0.92,0-1.67-0.75-1.67-1.67		S14.08,60,15,60h34.39c1.46-1.81,3.3-4.1,5.37-6.67H15c-0.92,0-1.67-0.75-1.67-1.67S14.08,50,15,50h42.44L70,34.41V11.77
		c0-2.82-2.29-5.1-5.1-5.1H26.67v14.9c0,4.66-3.78,8.44-8.44,8.44H3.33v58.23c0,2.82,2.29,5.1,5.1,5.1H64.9c2.81,0,5.1-2.29,5.1-5.1
		V55.87c-5.58,6.93-10.46,12.99-12.56,15.59C52.18,78,46.6,81.21,43.35,80.91z M38.33,16.67h20c0.92,0,1.67,0.75,1.67,1.67
		c0,0.92-0.75,1.67-1.67,1.67h-20c-0.92,0-1.67-0.75-1.67-1.67C36.67,17.41,37.41,16.67,38.33,16.67z M15,40h43.33
		c0.92,0,1.67,0.75,1.67,1.67c0,0.92-0.75,1.67-1.67,1.67H15c-0.92,0-1.67-0.75-1.67-1.67C13.33,40.75,14.08,40,15,40z"/><path fill="none" d="M70.59,43.16l-2.01-1.62l-19,23.59c-4.94,6.13-6.05,11.03-5.75,12.5c0.56-0.01,1.54-0.31,2.81-1
		c0.46-2.36,2.06-6.29,5.78-10.91L70.59,43.16z"/><path fill="#868686" d="M54.82,69.35l19-23.59l-3.23-2.6L52.42,65.72c-3.73,4.62-5.32,8.55-5.78,10.91
		C48.78,75.47,51.72,73.2,54.82,69.35z" class="colorae955e svgShape"/><path fill="none" d="M23.33 21.56V8.05L4.71 26.67h13.52C21.04 26.67 23.33 24.38 23.33 21.56zM92.49 17.62c-.06-.06-.11-.12-.18-.18-1.44-1.16-3.57-.93-4.73.51L70.69 38.92l2.06 1.66L90 18.93C90.64 18.13 91.55 17.69 92.49 17.62z"/><path fill="#868686" d="M92.82,22.17c1.11-1.38,0.94-3.36-0.33-4.55c-0.94,0.07-1.86,0.51-2.49,1.31L72.75,40.58l3.18,2.56
		L92.82,22.17z" class="colorae955e svgShape"/><path fill="#010101" d="M38.33 20h20c.92 0 1.67-.75 1.67-1.67 0-.92-.75-1.67-1.67-1.67h-20c-.92 0-1.67.75-1.67 1.67C36.67 19.25 37.41 20 38.33 20zM15 43.33h43.33c.92 0 1.67-.75 1.67-1.67 0-.92-.75-1.67-1.67-1.67H15c-.92 0-1.67.75-1.67 1.67C13.33 42.59 14.08 43.33 15 43.33z" class="color010101 svgShape"/><path fill="#010101" d="M99.37,27.45c-0.72-0.59-1.78-0.47-2.37,0.25l-1.06,1.32l-2.62-2.12c1.33-1.65,2.11-2.62,2.11-2.62
		c2.33-2.89,1.88-7.13-1.02-9.46c-2.89-2.33-7.13-1.88-9.46,1.02c0,0-5.11,6.34-11.63,14.43v-18.5c0-4.66-3.78-8.44-8.44-8.44H27.36
		c-2.58,0-5.05,1.02-6.87,2.84L2.01,24.65C0.73,25.94,0,27.69,0,29.51v58.72c0,4.66,3.78,8.44,8.44,8.44H64.9
		c4.66,0,8.44-3.78,8.44-8.44v-36.5c6.59-8.18,13.57-16.85,17.89-22.21l2.6,2.14L78.01,51.3c-0.59,0.72-0.48,1.78,0.25,2.36
		c0.73,0.58,1.78,0.47,2.37-0.25l19-23.59C100.21,29.1,100.1,28.04,99.37,27.45z M87.58,17.96c1.16-1.45,3.29-1.68,4.73-0.51
		c0.07,0.05,0.12,0.12,0.18,0.18c1.27,1.19,1.44,3.18,0.33,4.55L75.93,43.14l-3.18-2.56l-2.06-1.66L87.58,17.96z M73.82,45.76
		l-19,23.59c-3.1,3.85-6.04,6.12-8.18,7.28c-1.27,0.69-2.25,0.99-2.81,1c-0.3-1.47,0.8-6.37,5.75-12.5l19-23.59l2.01,1.62
		L73.82,45.76z M23.33,8.05v13.52c0,2.82-2.29,5.1-5.1,5.1H4.71L23.33,8.05z M70,88.23c0,2.82-2.29,5.1-5.1,5.1H8.44
		c-2.82,0-5.1-2.29-5.1-5.1V30h14.9c4.66,0,8.44-3.78,8.44-8.44V6.67H64.9c2.81,0,5.1,2.29,5.1,5.1v22.64L57.44,50H15
		c-0.92,0-1.67,0.75-1.67,1.67s0.75,1.67,1.67,1.67h39.76c-2.07,2.57-3.91,4.85-5.37,6.67H15c-0.92,0-1.67,0.75-1.67,1.67
		s0.75,1.67,1.67,1.67h31.73c-5.07,6.41-6.96,12.4-6,15.46c0,0,0.55,1.89,2.62,2.12c3.25,0.3,8.83-2.91,14.1-9.45
		c2.1-2.6,6.97-8.66,12.56-15.59V88.23z" class="color010101 svgShape"/></svg></svg>