<svg xmlns="http://www.w3.org/2000/svg" xmlns:svgjs="http://svgjs.com/svgjs" xmlns:xlink="http://www.w3.org/1999/xlink" width="288" height="288"><svg xmlns="http://www.w3.org/2000/svg" width="288" height="288" viewBox="0 0 20.967 22.478"><g class="color000 svgShape" transform="translate(-4.6 -1.1)"><circle cx="3.571" cy="3.571" r="3.571" fill="#868686" class="colorae955e svgShape" transform="translate(18.311 11.744)"/><path d="M30.089 35.578h8.927a.389.389 0 1 0 0-.778h-8.927a.386.386 0 0 0-.389.389.4.4 0 0 0 .389.389z" class="color000 svgShape" transform="translate(-19.355 -25.986)"/><path d="M34.644 46.5h-4.555a.389.389 0 0 0 0 .778h4.555a.389.389 0 0 0 0-.778z" class="color000 svgShape" transform="translate(-19.355 -35.008)"/><path d="M34.644 57.2h-4.555a.389.389 0 1 0 0 .778h4.555a.386.386 0 0 0 .389-.389.4.4 0 0 0-.389-.389z" class="color000 svgShape" transform="translate(-19.355 -43.259)"/><path d="M34.644 68h-4.555a.389.389 0 1 0 0 .778h4.555a.386.386 0 0 0 .389-.389.4.4 0 0 0-.389-.389z" class="color000 svgShape" transform="translate(-19.355 -51.587)"/><path d="M25.567 14.994a4.5 4.5 0 0 0-1.534-3.388V6.548a.29.29 0 0 0-.023-.137v-.023c0-.023-.023-.023-.023-.046v-.023c-.023-.023-.023-.046-.046-.046l-5.127-5.081-.046-.046h-.023c-.023 0-.023-.023-.046-.023h-.023c-.023 0-.046-.023-.069-.023h-11.1a.386.386 0 0 0-.389.389v18.7H4.989a.386.386 0 0 0-.389.389 3.009 3.009 0 0 0 3 3h13.412a3.009 3.009 0 0 0 3-3v-2.151a4.612 4.612 0 0 0 1.555-3.433zm-.778 0a3.754 3.754 0 1 1-3.754-3.754 3.756 3.756 0 0 1 3.754 3.754zm-5.86-12.612l.572.572 3.227 3.227h-3.8zM7.621 22.754a2.236 2.236 0 0 1-2.2-1.854h12.638a3.019 3.019 0 0 0 .984 1.854zm15.634-2.22a2.22 2.22 0 1 1-4.441 0 .386.386 0 0 0-.389-.389H7.9V1.832h10.274v4.716a.386.386 0 0 0 .389.389h4.715v4.143a4.461 4.461 0 0 0-2.243-.618 4.532 4.532 0 0 0 0 9.064 4.3 4.3 0 0 0 2.22-.6z" class="color000 svgShape"/><path d="M72.011 52.558a1.474 1.474 0 0 1-.481-.275.449.449 0 0 1-.114-.343.582.582 0 0 1 .114-.366.584.584 0 0 1 .778.023.726.726 0 0 1 .137.458h.8v-.023a1.3 1.3 0 0 0-.275-.847 1.269 1.269 0 0 0-.778-.389v-.6h-.435v.6a1.507 1.507 0 0 0-.824.343 1.035 1.035 0 0 0-.3.778.97.97 0 0 0 .3.778 2.539 2.539 0 0 0 .938.481 1.322 1.322 0 0 1 .458.275.557.557 0 0 1 0 .732.56.56 0 0 1-.412.137.623.623 0 0 1-.458-.16.64.64 0 0 1-.183-.5H70.5v.023a1.139 1.139 0 0 0 .343.893 1.411 1.411 0 0 0 .87.343v.549h.435v-.5a1.507 1.507 0 0 0 .824-.343 1 1 0 0 0 .3-.778 1.053 1.053 0 0 0-.3-.8 2.9 2.9 0 0 0-.961-.489z" class="color000 svgShape" transform="translate(-50.816 -37.861)"/></g></svg></svg>